SplineFontDB: 3.0
FontName: Rokkitt-Bold
FullName: Rokkitt Bold
FamilyName: Rokkitt Bold Bold
Weight: Bold
Copyright: Copyright (c) 2011 by vernon adams. All rights reserved.
Version: 2.000
FONDName: Rokkitt Bold
ItalicAngle: 0
UnderlinePosition: 0
UnderlineWidth: 0
Ascent: 1638
Descent: 410
UFOAscent: 1638
UFODescent: -410
LayerCount: 2
Layer: 0 0 "Back"  1
Layer: 1 0 "Fore"  0
FSType: 0
OS2Version: 0
OS2_WeightWidthSlopeOnly: 0
OS2_UseTypoMetrics: 0
CreationTime: 1339083542
ModificationTime: 1339083556
PfmFamily: 0
TTFWeight: 700
TTFWidth: 0
LineGap: 0
VLineGap: 0
Panose: 2 0 8 3 5 0 0 2 0 3
OS2TypoAscent: 1638
OS2TypoAOffset: 0
OS2TypoDescent: -410
OS2TypoDOffset: 0
OS2TypoLinegap: 0
OS2WinAscent: 1593
OS2WinAOffset: 0
OS2WinDescent: -594
OS2WinDOffset: 0
HheadAscent: 1593
HheadAOffset: 0
HheadDescent: -594
HheadDOffset: 0
OS2SubXSize: 5646
OS2SubYSize: 5214
OS2SubXOff: 0
OS2SubYOff: 729
OS2SupXSize: 5646
OS2SupYSize: 5214
OS2SupXOff: 0
OS2SupYOff: 3170
OS2StrikeYSize: 102
OS2StrikeYPos: 512
OS2Vendor: 'newt'
OS2CodePages: 20000001.00000000
OS2UnicodeRanges: 800000ef.4000204b.00000000.00000000
Lookup: 258 0 0 "'kern' Horizontal Kerning in Latin lookup 0"  {"'kern' Horizontal Kerning in Latin lookup 0 subtable"  } ['kern' ('latn' <'dflt' > ) ]
DEI: 91125
LangName: 1033 "" "" "" "vernonadams: Rokkitt Bold: 2011" "" "Version 2.000" "" "Rokkitt Bold is a trademark of vernon adams." "vernon adams" "vernon adams" "Copyright (c) 2011 by vernon adams. All rights reserved." "" "newtypography.co.uk" "" "" "" "" "" "Rokkitt Bold" 
PickledData: "(dp1
S'org.robofab.glyphOrder'
p2
(S'.notdef'
S'uni0001'
S'uni0002'
S'uni0003'
S'uni0004'
S'uni0005'
S'uni0006'
S'uni0007'
S'uni0008'
S'uni0009'
S'CR'
S'uni0010'
S'uni0011'
S'uni0012'
S'uni0013'
S'uni0014'
S'uni0015'
S'uni0016'
S'uni0017'
S'uni0018'
S'uni0019'
S'space'
S'exclam'
S'quotedbl'
S'numbersign'
S'dollar'
S'percent'
S'ampersand'
S'quotesingle'
S'parenleft'
S'parenright'
S'asterisk'
S'plus'
S'comma'
S'hyphen'
S'period'

StartChar: A
Encoding: 65 65 2
Width: 1391
VWidth: 0
Flags: HW
PickledData: "(dp1
S'com.typemytype.robofont.layerData'
p2
(dp3
s."
LayerCount: 2
Fore
SplineSet
549 0 m 1
 576.407 141 l 1
 417.407 141 l 1
 565.75 436 l 1
 967.75 436 l 1
 1005.41 141 l 1
 849.407 141 l 1
 822 0 l 1
 1342 0 l 1
 1369.41 141 l 1
 1236.41 141 l 1
 1105.96 1075 l 1
 1223.96 1075 l 1
 1251.17 1215 l 1
 610.172 1215 l 1
 582.959 1075 l 1
 700.959 1075 l 1
 217.407 141 l 1
 76.4072 141 l 1
 49 0 l 1
 549 0 l 1
884.959 1075 m 1
 901.959 1075 l 1
 954.157 577 l 1
 635.157 577 l 1
 884.959 1075 l 1
931.172 1215 m 0
1198.94 10 m 0
EndSplineSet
EndChar

StartChar: AE
Encoding: 198 198 3
Width: 1877
VWidth: 0
Flags: HW
LayerCount: 2
Fore
SplineSet
501 0 m 1
 528.407 141 l 1
 389.407 141 l 1
 608.75 436 l 1
 995.75 436 l 1
 938.407 141 l 1
 784.407 141 l 1
 757 0 l 1
 1794 0 l 1
 1863 355 l 1
 1697 355 l 1
 1655.41 141 l 1
 1155.41 141 l 1
 1234.33 547 l 1
 1563.33 547 l 1
 1541.36 434 l 1
 1643.36 434 l 1
 1716.84 812 l 1
 1614.84 812 l 1
 1592.29 696 l 1
 1262.29 696 l 1
 1335.96 1075 l 1
 1834.96 1075 l 1
 1794.53 867 l 1
 1960.53 867 l 1
 2028.17 1215 l 1
 813.172 1215 l 1
 785.959 1075 l 1
 893.959 1075 l 1
 162.407 141 l 1
 16.4072 141 l 1
 -11 0 l 1
 501 0 l 1
1119.96 1075 m 1
 1023.16 577 l 1
 715.157 577 l 1
 1095.96 1075 l 1
 1119.96 1075 l 1
1175.17 1215 m 0
EndSplineSet
EndChar

StartChar: Aacute
Encoding: 193 193 4
Width: 1256
VWidth: 0
Flags: HW
LayerCount: 2
Fore
SplineSet
860.748 1326 m 1
 1136.23 1632 l 1
 878.229 1632 l 1
 694.748 1326 l 1
 860.748 1326 l 1
-18 0 m 1
 9.40723 141 l 1
 150.407 141 l 1
 633.959 1075 l 1
 515.959 1075 l 1
 543.172 1215 l 1
 1184.17 1215 l 1
 1156.96 1075 l 1
 1038.96 1075 l 1
 1169.41 141 l 1
 1302.41 141 l 1
 1275 0 l 1
 755 0 l 1
 782.407 141 l 1
 938.407 141 l 1
 900.75 436 l 1
 498.75 436 l 1
 350.407 141 l 1
 509.407 141 l 1
 482 0 l 1
 -18 0 l 1
568.157 577 m 1
 887.157 577 l 1
 834.959 1075 l 1
 817.959 1075 l 1
 568.157 577 l 1
864.172 1215 m 0
864.172 1215 m 0
1131.94 10 m 0
EndSplineSet
EndChar

StartChar: Abreve
Encoding: 258 258 5
Width: 1256
VWidth: 0
Flags: HW
LayerCount: 2
Fore
SplineSet
669.955 1574 m 1
 652.964 1430 741.498 1335 886.498 1335 c 0
 1034.5 1335 1156.16 1431 1197.96 1574 c 1
 1064.96 1574 l 1
 1040.18 1498 980.629 1454 909.629 1454 c 0
 833.629 1454 797.182 1498 798.955 1574 c 1
 669.955 1574 l 1
-18 0 m 1
 9.40723 141 l 1
 150.407 141 l 1
 633.959 1075 l 1
 515.959 1075 l 1
 543.172 1215 l 1
 1184.17 1215 l 1
 1156.96 1075 l 1
 1038.96 1075 l 1
 1169.41 141 l 1
 1302.41 141 l 1
 1275 0 l 1
 755 0 l 1
 782.407 141 l 1
 938.407 141 l 1
 900.75 436 l 1
 498.75 436 l 1
 350.407 141 l 1
 509.407 141 l 1
 482 0 l 1
 -18 0 l 1
568.157 577 m 1
 887.157 577 l 1
 834.959 1075 l 1
 817.959 1075 l 1
 568.157 577 l 1
864.172 1215 m 0
1131.94 10 m 0
865.922 1224 m 0
EndSplineSet
EndChar

StartChar: Acircumflex
Encoding: 194 194 6
Width: 1256
VWidth: 0
Flags: HW
LayerCount: 2
Fore
SplineSet
781.554 1325 m 1
 931.538 1577 l 1
 983.554 1325 l 1
 1163.55 1325 l 1
 1087.5 1654 l 1
 804.505 1654 l 1
 606.554 1325 l 1
 781.554 1325 l 1
-19 0 m 1
 8.40723 141 l 1
 149.407 141 l 1
 632.959 1075 l 1
 514.959 1075 l 1
 542.172 1215 l 1
 1183.17 1215 l 1
 1155.96 1075 l 1
 1037.96 1075 l 1
 1168.41 141 l 1
 1301.41 141 l 1
 1274 0 l 1
 754 0 l 1
 781.407 141 l 1
 937.407 141 l 1
 899.75 436 l 1
 497.75 436 l 1
 349.407 141 l 1
 508.407 141 l 1
 481 0 l 1
 -19 0 l 1
567.157 577 m 1
 886.157 577 l 1
 833.959 1075 l 1
 816.959 1075 l 1
 567.157 577 l 1
863.172 1215 m 0
863.172 1215 m 0
1130.94 10 m 0
EndSplineSet
EndChar

StartChar: Adieresis
Encoding: 196 196 7
Width: 1256
VWidth: 0
Flags: HW
LayerCount: 2
Fore
SplineSet
1024.32 1581 m 1
 988.354 1396 l 1
 1175.36 1396 l 1
 1211.32 1581 l 1
 1024.32 1581 l 1
659.315 1581 m 1
 623.354 1396 l 1
 810.354 1396 l 1
 846.315 1581 l 1
 659.315 1581 l 1
-18 0 m 1
 9.40723 141 l 1
 150.407 141 l 1
 633.959 1075 l 1
 515.959 1075 l 1
 543.172 1215 l 1
 1184.17 1215 l 1
 1156.96 1075 l 1
 1038.96 1075 l 1
 1169.41 141 l 1
 1302.41 141 l 1
 1275 0 l 1
 755 0 l 1
 782.407 141 l 1
 938.407 141 l 1
 900.75 436 l 1
 498.75 436 l 1
 350.407 141 l 1
 509.407 141 l 1
 482 0 l 1
 -18 0 l 1
568.157 577 m 1
 887.157 577 l 1
 834.959 1075 l 1
 817.959 1075 l 1
 568.157 577 l 1
864.172 1215 m 0
864.172 1215 m 0
1131.94 10 m 0
EndSplineSet
EndChar

StartChar: Agrave
Encoding: 192 192 8
Width: 1256
VWidth: 0
Flags: HW
LayerCount: 2
Fore
SplineSet
1075.75 1326 m 1
 1012.23 1632 l 1
 754.229 1632 l 1
 910.748 1326 l 1
 1075.75 1326 l 1
-19 0 m 1
 8.40723 141 l 1
 149.407 141 l 1
 632.959 1075 l 1
 514.959 1075 l 1
 542.172 1215 l 1
 1183.17 1215 l 1
 1155.96 1075 l 1
 1037.96 1075 l 1
 1168.41 141 l 1
 1301.41 141 l 1
 1274 0 l 1
 754 0 l 1
 781.407 141 l 1
 937.407 141 l 1
 899.75 436 l 1
 497.75 436 l 1
 349.407 141 l 1
 508.407 141 l 1
 481 0 l 1
 -19 0 l 1
567.157 577 m 1
 886.157 577 l 1
 833.959 1075 l 1
 816.959 1075 l 1
 567.157 577 l 1
863.172 1215 m 0
863.172 1215 m 0
1130.94 10 m 0
EndSplineSet
EndChar

StartChar: Amacron
Encoding: 256 256 9
Width: 1256
VWidth: 0
Flags: HW
LayerCount: 2
Fore
SplineSet
700.498 1335 m 1
 1075.5 1335 l 1
 1100.96 1466 l 1
 725.962 1466 l 1
 700.498 1335 l 1
-18 0 m 1
 9.40723 141 l 1
 150.407 141 l 1
 633.959 1075 l 1
 515.959 1075 l 1
 543.172 1215 l 1
 1184.17 1215 l 1
 1156.96 1075 l 1
 1038.96 1075 l 1
 1169.41 141 l 1
 1302.41 141 l 1
 1275 0 l 1
 755 0 l 1
 782.407 141 l 1
 938.407 141 l 1
 900.75 436 l 1
 498.75 436 l 1
 350.407 141 l 1
 509.407 141 l 1
 482 0 l 1
 -18 0 l 1
568.157 577 m 1
 887.157 577 l 1
 834.959 1075 l 1
 817.959 1075 l 1
 568.157 577 l 1
864.172 1215 m 0
1131.94 10 m 0
846.095 1122 m 0
EndSplineSet
EndChar

StartChar: Aogonek
Encoding: 260 260 10
Width: 1256
VWidth: 0
Flags: HW
LayerCount: 2
Fore
SplineSet
876 0 m 1
 813.033 -77 791.702 -125 781.595 -177 c 0
 761.379 -281 823.384 -353 927.384 -353 c 0
 974.384 -353 1008.33 -343 1068.58 -316 c 1
 1088.6 -213 l 1
 1053.68 -228 1028.71 -233 997.709 -233 c 0
 932.709 -233 906.707 -197 920.508 -126 c 0
 928.866 -83 945.67 -48 990 0 c 1
 876 0 l 1
482 0 m 1
 509.407 141 l 1
 350.407 141 l 1
 498.75 436 l 1
 900.75 436 l 1
 938.407 141 l 1
 782.407 141 l 1
 755 0 l 1
 1275 0 l 1
 1302.41 141 l 1
 1169.41 141 l 1
 1038.96 1075 l 1
 1156.96 1075 l 1
 1184.17 1215 l 1
 543.172 1215 l 1
 515.959 1075 l 1
 633.959 1075 l 1
 150.407 141 l 1
 9.40723 141 l 1
 -18 0 l 1
 482 0 l 1
568.157 577 m 1
 887.157 577 l 1
 834.959 1075 l 1
 817.959 1075 l 1
 568.157 577 l 1
1131.94 10 m 0
864.172 1215 m 0
1131.94 10 m 0
EndSplineSet
EndChar

StartChar: Aring
Encoding: 197 197 11
Width: 1256
VWidth: 0
Flags: HW
LayerCount: 2
Fore
SplineSet
804.297 1442 m 0
 814.404 1494 860.54 1541 926.54 1541 c 0
 992.54 1541 1021.4 1494 1011.3 1442 c 0
 1001.19 1390 954.053 1343 888.053 1343 c 0
 822.053 1343 794.188 1390 804.297 1442 c 0
725.686 1444 m 0
 708.191 1354 760.252 1272 874.252 1272 c 0
 988.252 1272 1073.19 1354 1090.69 1444 c 0
 1107.79 1532 1056.95 1610 939.952 1610 c 0
 823.952 1610 742.791 1532 725.686 1444 c 0
-19 0 m 1
 8.40723 141 l 1
 149.407 141 l 1
 632.959 1075 l 1
 514.959 1075 l 1
 542.172 1215 l 1
 1183.17 1215 l 1
 1155.96 1075 l 1
 1037.96 1075 l 1
 1168.41 141 l 1
 1301.41 141 l 1
 1274 0 l 1
 754 0 l 1
 781.407 141 l 1
 937.407 141 l 1
 899.75 436 l 1
 497.75 436 l 1
 349.407 141 l 1
 508.407 141 l 1
 481 0 l 1
 -19 0 l 1
567.157 577 m 1
 886.157 577 l 1
 833.959 1075 l 1
 816.959 1075 l 1
 567.157 577 l 1
863.172 1215 m 0
863.172 1215 m 0
1130.94 10 m 0
EndSplineSet
EndChar

StartChar: Atilde
Encoding: 195 195 12
Width: 1256
VWidth: 0
Flags: HW
LayerCount: 2
Fore
SplineSet
703.275 1339 m 1
 716.856 1378 733.938 1399 768.938 1399 c 0
 837.938 1399 910.525 1330 1011.53 1330 c 0
 1109.53 1330 1185.27 1411 1219.93 1543 c 1
 1113.93 1543 l 1
 1097.96 1502 1076.88 1481 1045.88 1481 c 0
 974.877 1481 893.9 1548 799.9 1548 c 0
 718.9 1548 634.85 1486 595.275 1339 c 1
 703.275 1339 l 1
-19 0 m 1
 8.40723 141 l 1
 149.407 141 l 1
 632.959 1075 l 1
 514.959 1075 l 1
 542.172 1215 l 1
 1183.17 1215 l 1
 1155.96 1075 l 1
 1037.96 1075 l 1
 1168.41 141 l 1
 1301.41 141 l 1
 1274 0 l 1
 754 0 l 1
 781.407 141 l 1
 937.407 141 l 1
 899.75 436 l 1
 497.75 436 l 1
 349.407 141 l 1
 508.407 141 l 1
 481 0 l 1
 -19 0 l 1
567.157 577 m 1
 886.157 577 l 1
 833.959 1075 l 1
 816.959 1075 l 1
 567.157 577 l 1
863.172 1215 m 0
863.172 1215 m 0
1130.94 10 m 0
EndSplineSet
EndChar

StartChar: B
Encoding: 66 66 13
Width: 1295
VWidth: 0
Flags: HW
LayerCount: 2
Fore
SplineSet
707 0 m 2
 1067 0 1202.38 182 1233.87 344 c 0
 1262.83 493 1193.04 597 1061.6 641 c 1
 1172.15 685 1261.06 772 1285.55 898 c 0
 1323.46 1093 1200.17 1215 925.172 1215 c 2
 389.172 1215 l 1
 361.959 1075 l 1
 516.959 1075 l 1
 335.407 141 l 1
 180.407 141 l 1
 153 0 l 1
 707 0 l 2
634.492 553 m 1
 778.492 553 l 2
 963.492 553 1034.33 475 1010.81 354 c 0
 984.958 221 900.407 141 692.407 141 c 2
 554.407 141 l 1
 634.492 553 l 1
735.959 1075 m 1
 829.959 1075 l 2
 1025.96 1075 1087.91 1013 1063.61 888 c 0
 1040.67 770 956.038 705 781.038 705 c 2
 664.038 705 l 1
 735.959 1075 l 1
EndSplineSet
EndChar

StartChar: C
Encoding: 67 67 14
Width: 1455
VWidth: 0
Flags: HW
LayerCount: 2
Fore
SplineSet
1396.59 358 m 1
 1241.33 439 l 1
 1148.71 230 971.407 141 794.407 141 c 0
 529.407 141 428.256 346 479.378 609 c 0
 531.666 878 724.765 1074 976.765 1074 c 0
 1130.76 1074 1252.16 1004 1297.72 832 c 1
 1452.72 832 l 1
 1527.17 1215 l 1
 1363.17 1215 l 1
 1338.68 1089 l 1
 1262.79 1177 1147.67 1233 991.671 1233 c 0
 599.671 1233 313.715 976 241.795 606 c 0
 175.705 266 328.695 -17 747.307 -19 c 1
 1000.7 -17 1249.22 68 1396.59 358 c 1
954.172 1215 m 0
718 0 m 0
EndSplineSet
EndChar

StartChar: Cacute
Encoding: 262 262 16
Width: 1337
VWidth: 0
Flags: HW
LayerCount: 2
Fore
SplineSet
995.498 1335 m 1
 1232.45 1592 l 1
 1025.45 1592 l 1
 876.498 1335 l 1
 995.498 1335 l 1
1347.59 358 m 1
 1192.33 439 l 1
 1099.71 230 922.407 141 745.407 141 c 0
 480.407 141 379.256 346 430.378 609 c 0
 482.666 878 675.765 1074 927.765 1074 c 0
 1081.76 1074 1203.16 1004 1248.72 832 c 1
 1403.72 832 l 1
 1478.17 1215 l 1
 1314.17 1215 l 1
 1289.68 1089 l 1
 1213.79 1177 1098.67 1233 942.671 1233 c 0
 550.671 1233 264.715 976 192.795 606 c 0
 126.705 266 279.695 -17 698.307 -19 c 1
 951.695 -17 1200.22 68 1347.59 358 c 1
905.172 1215 m 0
669 0 m 0
1016.86 1270 m 0
EndSplineSet
EndChar

StartChar: Ccaron
Encoding: 268 268 17
Width: 1337
VWidth: 0
Flags: HW
LayerCount: 2
Fore
SplineSet
708.763 1537 m 1
 820.418 1278 l 1
 1016.42 1278 l 1
 1225.76 1537 l 1
 1121.76 1537 l 1
 939.828 1383 l 1
 815.763 1537 l 1
 708.763 1537 l 1
1346.59 358 m 1
 1191.33 439 l 1
 1098.71 230 921.407 141 744.407 141 c 0
 479.407 141 378.256 346 429.378 609 c 0
 481.666 878 674.765 1074 926.765 1074 c 0
 1080.76 1074 1202.16 1004 1247.72 832 c 1
 1402.72 832 l 1
 1477.17 1215 l 1
 1313.17 1215 l 1
 1288.68 1089 l 1
 1212.79 1177 1097.67 1233 941.671 1233 c 0
 549.671 1233 263.715 976 191.795 606 c 0
 125.705 266 278.695 -17 697.307 -19 c 1
 950.695 -17 1199.22 68 1346.59 358 c 1
904.172 1215 m 0
904.172 1215 m 0
668 0 m 0
EndSplineSet
EndChar

StartChar: Ccedilla
Encoding: 199 199 18
Width: 1337
VWidth: 0
Flags: HW
LayerCount: 2
Fore
SplineSet
455.412 -358 m 1
 469.829 -361 511.635 -362 524.635 -362 c 0
 675.635 -362 754.853 -294 770.985 -211 c 0
 783.037 -149 750.007 -108 684.729 -94 c 0
 681.923 -93 679.117 -92 676.117 -92 c 1
 711.972 5 l 1
 639.972 5 l 1
 569.482 -157 l 1
 625.705 -161 653.817 -181 647.014 -216 c 0
 638.072 -262 585.156 -277 517.156 -277 c 0
 502.156 -277 487.351 -276 470.935 -273 c 1
 455.412 -358 l 1
1345.59 358 m 1
 1190.33 439 l 1
 1097.71 230 920.407 141 743.407 141 c 0
 478.407 141 377.256 346 428.378 609 c 0
 480.666 878 673.765 1074 925.765 1074 c 0
 1079.76 1074 1201.16 1004 1246.72 832 c 1
 1401.72 832 l 1
 1476.17 1215 l 1
 1312.17 1215 l 1
 1287.68 1089 l 1
 1211.79 1177 1096.67 1233 940.671 1233 c 0
 548.671 1233 262.715 976 190.795 606 c 0
 124.705 266 277.695 -17 696.307 -19 c 1
 949.695 -17 1198.22 68 1345.59 358 c 1
667 0 m 0
903.172 1215 m 0
667 0 m 0
EndSplineSet
EndChar

StartChar: Ccircumflex
Encoding: 264 264 19
Width: 1337
VWidth: 0
Flags: HW
LayerCount: 2
Fore
SplineSet
840.498 1335 m 1
 978.205 1565 l 1
 1026.5 1335 l 1
 1174.5 1335 l 1
 1123.95 1610 l 1
 848.952 1610 l 1
 697.498 1335 l 1
 840.498 1335 l 1
1347.59 358 m 1
 1192.33 439 l 1
 1099.71 230 922.407 141 745.407 141 c 0
 480.407 141 379.256 346 430.378 609 c 0
 482.666 878 675.765 1074 927.765 1074 c 0
 1081.76 1074 1203.16 1004 1248.72 832 c 1
 1403.72 832 l 1
 1478.17 1215 l 1
 1314.17 1215 l 1
 1289.68 1089 l 1
 1213.79 1177 1098.67 1233 942.671 1233 c 0
 550.671 1233 264.715 976 192.795 606 c 0
 126.705 266 279.695 -17 698.307 -19 c 1
 951.695 -17 1200.22 68 1347.59 358 c 1
905.172 1215 m 0
669 0 m 0
926.361 1288 m 0
EndSplineSet
EndChar

StartChar: Cdotaccent
Encoding: 266 266 20
Width: 1337
VWidth: 0
Flags: HW
LayerCount: 2
Fore
SplineSet
882.315 1581 m 1
 846.354 1396 l 1
 1033.36 1396 l 1
 1069.32 1581 l 1
 882.315 1581 l 1
1346.59 358 m 1
 1191.33 439 l 1
 1098.71 230 921.407 141 744.407 141 c 0
 479.407 141 378.256 346 429.378 609 c 0
 481.666 878 674.765 1074 926.765 1074 c 0
 1080.76 1074 1202.16 1004 1247.72 832 c 1
 1402.72 832 l 1
 1477.17 1215 l 1
 1313.17 1215 l 1
 1288.68 1089 l 1
 1212.79 1177 1097.67 1233 941.671 1233 c 0
 549.671 1233 263.715 976 191.795 606 c 0
 125.705 266 278.695 -17 697.307 -19 c 1
 950.695 -17 1199.22 68 1346.59 358 c 1
904.172 1215 m 0
904.172 1215 m 0
668 0 m 0
EndSplineSet
EndChar

StartChar: D
Encoding: 68 68 21
Width: 1519
VWidth: 0
Flags: HW
PickledData: "(dp1
S'com.typemytype.robofont.layerData'
p2
(dp3
s."
LayerCount: 2
Fore
SplineSet
392.172 1215 m 1
 364.959 1075 l 1
 537.959 1075 l 1
 356.407 141 l 1
 183.407 141 l 1
 156 0 l 1
 756 0 l 2
 1181 0 1440.87 236 1514.54 615 c 0
 1580.05 952 1426.17 1215 993.172 1215 c 2
 392.172 1215 l 1
953.959 1075 m 2
 1254.96 1075 1339.47 877 1287.38 609 c 0
 1234.89 339 1077.41 141 764.407 141 c 2
 575.407 141 l 1
 756.959 1075 l 1
 953.959 1075 l 2
1015.17 1215 m 0
897.184 608 m 0
EndSplineSet
EndChar

StartChar: Dcaron
Encoding: 270 270 22
Width: 1383
VWidth: 0
Flags: HW
LayerCount: 2
Fore
SplineSet
731.763 1537 m 1
 843.418 1278 l 1
 1039.42 1278 l 1
 1248.76 1537 l 1
 1144.76 1537 l 1
 962.828 1383 l 1
 838.763 1537 l 1
 731.763 1537 l 1
304.172 1215 m 1
 276.959 1075 l 1
 449.959 1075 l 1
 268.407 141 l 1
 95.4072 141 l 1
 68 0 l 1
 668 0 l 2
 1093 0 1352.87 236 1426.54 615 c 0
 1492.05 952 1338.17 1215 905.172 1215 c 2
 304.172 1215 l 1
865.959 1075 m 2
 1166.96 1075 1251.47 877 1199.38 609 c 0
 1146.89 339 989.407 141 676.407 141 c 2
 487.407 141 l 1
 668.959 1075 l 1
 865.959 1075 l 2
927.172 1215 m 0
927.172 1215 m 0
809.184 608 m 0
EndSplineSet
EndChar

StartChar: E
Encoding: 69 69 23
Width: 1343
VWidth: 0
Flags: HW
PickledData: "(dp1
S'com.typemytype.robofont.layerData'
p2
(dp3
s."
LayerCount: 2
Fore
SplineSet
1235.96 1075 m 1
 1195.53 867 l 1
 1361.53 867 l 1
 1429.17 1215 l 1
 390.172 1215 l 1
 362.959 1075 l 1
 520.959 1075 l 1
 339.407 141 l 1
 181.407 141 l 1
 154 0 l 1
 1195 0 l 1
 1264 355 l 1
 1098 355 l 1
 1056.41 141 l 1
 558.407 141 l 1
 637.326 547 l 1
 964.326 547 l 1
 942.361 434 l 1
 1044.36 434 l 1
 1117.84 812 l 1
 1015.84 812 l 1
 993.289 696 l 1
 665.289 696 l 1
 738.959 1075 l 1
 1235.96 1075 l 1
907.172 1215 m 0
671 0 m 0
1140.94 10 m 0
EndSplineSet
EndChar

StartChar: Eacute
Encoding: 201 201 24
Width: 1171
VWidth: 0
Flags: HW
LayerCount: 2
Fore
SplineSet
818.748 1326 m 1
 1094.23 1632 l 1
 836.229 1632 l 1
 652.748 1326 l 1
 818.748 1326 l 1
1150.96 1075 m 1
 1110.53 867 l 1
 1276.53 867 l 1
 1344.17 1215 l 1
 305.172 1215 l 1
 277.959 1075 l 1
 435.959 1075 l 1
 254.407 141 l 1
 96.4072 141 l 1
 69 0 l 1
 1110 0 l 1
 1179 355 l 1
 1013 355 l 1
 971.407 141 l 1
 473.407 141 l 1
 552.326 547 l 1
 879.326 547 l 1
 857.361 434 l 1
 959.361 434 l 1
 1032.84 812 l 1
 930.837 812 l 1
 908.289 696 l 1
 580.289 696 l 1
 653.959 1075 l 1
 1150.96 1075 l 1
822.172 1215 m 0
822.172 1215 m 0
586 0 m 0
1055.94 10 m 0
EndSplineSet
EndChar

StartChar: Ecaron
Encoding: 282 282 25
Width: 1171
VWidth: 0
Flags: HW
LayerCount: 2
Fore
SplineSet
640.842 1594 m 1
 752.498 1335 l 1
 948.498 1335 l 1
 1157.84 1594 l 1
 1053.84 1594 l 1
 871.907 1440 l 1
 747.842 1594 l 1
 640.842 1594 l 1
1150.96 1075 m 1
 1110.53 867 l 1
 1276.53 867 l 1
 1344.17 1215 l 1
 305.172 1215 l 1
 277.959 1075 l 1
 435.959 1075 l 1
 254.407 141 l 1
 96.4072 141 l 1
 69 0 l 1
 1110 0 l 1
 1179 355 l 1
 1013 355 l 1
 971.407 141 l 1
 473.407 141 l 1
 552.326 547 l 1
 879.326 547 l 1
 857.361 434 l 1
 959.361 434 l 1
 1032.84 812 l 1
 930.837 812 l 1
 908.289 696 l 1
 580.289 696 l 1
 653.959 1075 l 1
 1150.96 1075 l 1
822.172 1215 m 0
586 0 m 0
1055.94 10 m 0
836.252 1272 m 0
EndSplineSet
EndChar

StartChar: Ecircumflex
Encoding: 202 202 26
Width: 1171
VWidth: 0
Flags: HW
LayerCount: 2
Fore
SplineSet
739.554 1325 m 1
 889.538 1577 l 1
 941.554 1325 l 1
 1121.55 1325 l 1
 1045.5 1654 l 1
 762.505 1654 l 1
 564.554 1325 l 1
 739.554 1325 l 1
1149.96 1075 m 1
 1109.53 867 l 1
 1275.53 867 l 1
 1343.17 1215 l 1
 304.172 1215 l 1
 276.959 1075 l 1
 434.959 1075 l 1
 253.407 141 l 1
 95.4072 141 l 1
 68 0 l 1
 1109 0 l 1
 1178 355 l 1
 1012 355 l 1
 970.407 141 l 1
 472.407 141 l 1
 551.326 547 l 1
 878.326 547 l 1
 856.361 434 l 1
 958.361 434 l 1
 1031.84 812 l 1
 929.837 812 l 1
 907.289 696 l 1
 579.289 696 l 1
 652.959 1075 l 1
 1149.96 1075 l 1
821.172 1215 m 0
821.172 1215 m 0
585 0 m 0
1054.94 10 m 0
EndSplineSet
EndChar

StartChar: Edieresis
Encoding: 203 203 27
Width: 1171
VWidth: 0
Flags: HW
LayerCount: 2
Fore
SplineSet
982.315 1581 m 1
 946.354 1396 l 1
 1133.36 1396 l 1
 1169.32 1581 l 1
 982.315 1581 l 1
617.315 1581 m 1
 581.354 1396 l 1
 768.354 1396 l 1
 804.315 1581 l 1
 617.315 1581 l 1
1150.96 1075 m 1
 1110.53 867 l 1
 1276.53 867 l 1
 1344.17 1215 l 1
 305.172 1215 l 1
 277.959 1075 l 1
 435.959 1075 l 1
 254.407 141 l 1
 96.4072 141 l 1
 69 0 l 1
 1110 0 l 1
 1179 355 l 1
 1013 355 l 1
 971.407 141 l 1
 473.407 141 l 1
 552.326 547 l 1
 879.326 547 l 1
 857.361 434 l 1
 959.361 434 l 1
 1032.84 812 l 1
 930.837 812 l 1
 908.289 696 l 1
 580.289 696 l 1
 653.959 1075 l 1
 1150.96 1075 l 1
822.172 1215 m 0
822.172 1215 m 0
586 0 m 0
1055.94 10 m 0
EndSplineSet
EndChar

StartChar: Edotaccent
Encoding: 278 278 28
Width: 1171
VWidth: 0
Flags: HW
LayerCount: 2
Fore
SplineSet
799.315 1581 m 1
 763.354 1396 l 1
 950.354 1396 l 1
 986.315 1581 l 1
 799.315 1581 l 1
1149.96 1075 m 1
 1109.53 867 l 1
 1275.53 867 l 1
 1343.17 1215 l 1
 304.172 1215 l 1
 276.959 1075 l 1
 434.959 1075 l 1
 253.407 141 l 1
 95.4072 141 l 1
 68 0 l 1
 1109 0 l 1
 1178 355 l 1
 1012 355 l 1
 970.407 141 l 1
 472.407 141 l 1
 551.326 547 l 1
 878.326 547 l 1
 856.361 434 l 1
 958.361 434 l 1
 1031.84 812 l 1
 929.837 812 l 1
 907.289 696 l 1
 579.289 696 l 1
 652.959 1075 l 1
 1149.96 1075 l 1
821.172 1215 m 0
821.172 1215 m 0
585 0 m 0
1054.94 10 m 0
EndSplineSet
EndChar

StartChar: Egrave
Encoding: 200 200 29
Width: 1171
VWidth: 0
Flags: HW
LayerCount: 2
Fore
SplineSet
1033.75 1326 m 1
 970.229 1632 l 1
 712.229 1632 l 1
 868.748 1326 l 1
 1033.75 1326 l 1
1149.96 1075 m 1
 1109.53 867 l 1
 1275.53 867 l 1
 1343.17 1215 l 1
 304.172 1215 l 1
 276.959 1075 l 1
 434.959 1075 l 1
 253.407 141 l 1
 95.4072 141 l 1
 68 0 l 1
 1109 0 l 1
 1178 355 l 1
 1012 355 l 1
 970.407 141 l 1
 472.407 141 l 1
 551.326 547 l 1
 878.326 547 l 1
 856.361 434 l 1
 958.361 434 l 1
 1031.84 812 l 1
 929.837 812 l 1
 907.289 696 l 1
 579.289 696 l 1
 652.959 1075 l 1
 1149.96 1075 l 1
821.172 1215 m 0
821.172 1215 m 0
585 0 m 0
1054.94 10 m 0
EndSplineSet
EndChar

StartChar: Emacron
Encoding: 274 274 30
Width: 1171
VWidth: 0
Flags: HW
LayerCount: 2
Fore
SplineSet
675.575 1428 m 1
 1050.58 1428 l 1
 1076.04 1559 l 1
 701.039 1559 l 1
 675.575 1428 l 1
1149.96 1075 m 1
 1109.53 867 l 1
 1275.53 867 l 1
 1343.17 1215 l 1
 304.172 1215 l 1
 276.959 1075 l 1
 434.959 1075 l 1
 253.407 141 l 1
 95.4072 141 l 1
 68 0 l 1
 1109 0 l 1
 1178 355 l 1
 1012 355 l 1
 970.407 141 l 1
 472.407 141 l 1
 551.326 547 l 1
 878.326 547 l 1
 856.361 434 l 1
 958.361 434 l 1
 1031.84 812 l 1
 929.837 812 l 1
 907.289 696 l 1
 579.289 696 l 1
 652.959 1075 l 1
 1149.96 1075 l 1
821.172 1215 m 0
821.172 1215 m 0
585 0 m 0
1054.94 10 m 0
EndSplineSet
EndChar

StartChar: Eogonek
Encoding: 280 280 31
Width: 1171
VWidth: 0
Flags: HW
LayerCount: 2
Fore
SplineSet
800 0 m 1
 737.033 -77 715.702 -125 705.595 -177 c 0
 685.379 -281 747.384 -353 851.384 -353 c 0
 898.384 -353 932.327 -343 992.576 -316 c 1
 1012.6 -213 l 1
 977.682 -228 952.709 -233 921.709 -233 c 0
 856.709 -233 830.707 -197 844.508 -126 c 0
 852.866 -83 869.67 -48 914 0 c 1
 800 0 l 1
1150.96 1075 m 1
 1110.53 867 l 1
 1276.53 867 l 1
 1344.17 1215 l 1
 305.172 1215 l 1
 277.959 1075 l 1
 435.959 1075 l 1
 254.407 141 l 1
 96.4072 141 l 1
 69 0 l 1
 1110 0 l 1
 1179 355 l 1
 1013 355 l 1
 971.407 141 l 1
 473.407 141 l 1
 552.326 547 l 1
 879.326 547 l 1
 857.361 434 l 1
 959.361 434 l 1
 1032.84 812 l 1
 930.837 812 l 1
 908.289 696 l 1
 580.289 696 l 1
 653.959 1075 l 1
 1150.96 1075 l 1
1055.94 10 m 0
822.172 1215 m 0
586 0 m 0
1055.94 10 m 0
EndSplineSet
EndChar

StartChar: Eth
Encoding: 208 208 32
Width: 1374
VWidth: 0
Flags: HW
LayerCount: 2
Fore
SplineSet
858.959 1075 m 2
 1159.96 1075 1244.47 877 1192.38 609 c 0
 1139.89 339 982.407 141 669.407 141 c 2
 480.407 141 l 1
 558.938 545 l 1
 739.938 545 l 1
 768.9 694 l 1
 587.9 694 l 1
 661.959 1075 l 1
 858.959 1075 l 2
195.938 545 m 1
 339.938 545 l 1
 261.407 141 l 1
 88.4072 141 l 1
 61 0 l 1
 661 0 l 2
 1086 0 1345.87 236 1419.54 615 c 0
 1485.05 952 1331.17 1215 898.172 1215 c 2
 297.172 1215 l 1
 269.959 1075 l 1
 442.959 1075 l 1
 368.9 694 l 1
 224.9 694 l 1
 195.938 545 l 1
EndSplineSet
EndChar

StartChar: Euro
Encoding: 8364 8364 33
Width: 1412
VWidth: 0
Flags: HW
LayerCount: 2
Fore
SplineSet
936.671 806 m 1
 648.671 806 l 1
 724.16 968 849.959 1075 996.959 1075 c 0
 1123.96 1075 1218.35 1005 1249.72 832 c 1
 1404.72 832 l 1
 1479.17 1215 l 1
 1316.17 1215 l 1
 1293.24 1097 l 1
 1234.01 1173 1140.67 1233 998.671 1233 c 0
 731.671 1233 517.46 1057 408.671 806 c 1
 237.671 806 l 1
 213.762 683 l 1
 365.762 683 l 1
 357.708 657 352.849 632 347.795 606 c 0
 344.685 590 340.631 564 338.715 549 c 1
 187.715 549 l 1
 163.806 426 l 1
 332.806 426 l 1
 339.045 170 477.695 -17 774.307 -19 c 1
 994.695 -17 1212.22 68 1349.59 358 c 1
 1193.33 439 l 1
 1111.71 230 961.407 141 814.407 141 c 0
 656.407 141 579.956 257 571.806 426 c 1
 862.806 426 l 1
 886.715 549 l 1
 575.715 549 l 1
 576.631 564 582.268 593 585.378 609 c 0
 590.237 634 596.097 659 602.762 683 c 1
 912.762 683 l 1
 936.671 806 l 1
EndSplineSet
EndChar

StartChar: F
Encoding: 70 70 34
Width: 1219
VWidth: 0
Flags: HW
LayerCount: 2
Fore
SplineSet
1196.96 1075 m 1
 1156.72 868 l 1
 1325.72 868 l 1
 1393.17 1215 l 1
 387.172 1215 l 1
 359.959 1075 l 1
 522.959 1075 l 1
 341.407 141 l 1
 178.407 141 l 1
 151 0 l 1
 705 0 l 1
 732.407 141 l 1
 560.407 141 l 1
 639.326 547 l 1
 917.326 547 l 1
 895.361 434 l 1
 1001.36 434 l 1
 1074.25 809 l 1
 968.254 809 l 1
 946.483 697 l 1
 668.483 697 l 1
 741.959 1075 l 1
 1196.96 1075 l 1
EndSplineSet
EndChar

StartChar: G
Encoding: 71 71 35
Width: 1487
VWidth: 0
Flags: HW
PickledData: "(dp1
S'com.typemytype.robofont.layerData'
p2
(dp3
s."
LayerCount: 2
Fore
SplineSet
1002.08 448 m 1
 1238.08 448 l 1
 1195.15 258 1050.38 146 809.407 141 c 1
 549.407 141 424.562 327 480.544 615 c 0
 532.443 882 723.765 1074 984.765 1074 c 0
 1157.76 1074 1272.63 991 1314.53 831 c 1
 1469.53 831 l 1
 1544.17 1215 l 1
 1373.17 1215 l 1
 1349.46 1093 l 1
 1276.79 1177 1151.67 1233 989.671 1233 c 0
 555.671 1233 300.664 914 241.572 610 c 0
 188.7 338 273.307 -19 769.307 -19 c 0
 1141.31 -19 1410.27 166 1498.24 598 c 1
 1031.24 598 l 1
 1002.08 448 l 1
980.172 1215 m 0
744 0 m 0
EndSplineSet
EndChar

StartChar: Gbreve
Encoding: 286 286 36
Width: 1380
VWidth: 0
Flags: HW
LayerCount: 2
Fore
SplineSet
730.205 1565 m 1
 713.215 1421 801.748 1326 946.748 1326 c 0
 1094.75 1326 1216.41 1422 1258.21 1565 c 1
 1125.21 1565 l 1
 1100.43 1489 1040.88 1445 969.88 1445 c 0
 893.88 1445 857.433 1489 859.205 1565 c 1
 730.205 1565 l 1
948.082 448 m 1
 1184.08 448 l 1
 1141.15 258 996.38 146 755.407 141 c 1
 495.407 141 370.562 327 426.544 615 c 0
 478.443 882 669.765 1074 930.765 1074 c 0
 1103.76 1074 1218.63 991 1260.53 831 c 1
 1415.53 831 l 1
 1490.17 1215 l 1
 1319.17 1215 l 1
 1295.46 1093 l 1
 1222.79 1177 1097.67 1233 935.671 1233 c 0
 501.671 1233 246.664 914 187.572 610 c 0
 134.7 338 219.307 -19 715.307 -19 c 0
 1087.31 -19 1356.27 166 1444.24 598 c 1
 977.239 598 l 1
 948.082 448 l 1
926.172 1215 m 0
926.172 1215 m 0
690 0 m 0
EndSplineSet
EndChar

StartChar: Gcircumflex
Encoding: 284 284 37
Width: 1380
VWidth: 0
Flags: HW
LayerCount: 2
Fore
SplineSet
839.308 1262 m 1
 977.016 1492 l 1
 1025.31 1262 l 1
 1173.31 1262 l 1
 1122.76 1537 l 1
 847.763 1537 l 1
 696.308 1262 l 1
 839.308 1262 l 1
947.082 448 m 1
 1183.08 448 l 1
 1140.15 258 995.38 146 754.407 141 c 1
 494.407 141 369.562 327 425.544 615 c 0
 477.443 882 668.765 1074 929.765 1074 c 0
 1102.76 1074 1217.63 991 1259.53 831 c 1
 1414.53 831 l 1
 1489.17 1215 l 1
 1318.17 1215 l 1
 1294.46 1093 l 1
 1221.79 1177 1096.67 1233 934.671 1233 c 0
 500.671 1233 245.664 914 186.572 610 c 0
 133.7 338 218.307 -19 714.307 -19 c 0
 1086.31 -19 1355.27 166 1443.24 598 c 1
 976.239 598 l 1
 947.082 448 l 1
925.172 1215 m 0
925.172 1215 m 0
689 0 m 0
EndSplineSet
EndChar

StartChar: Gcommaaccent
Encoding: 290 290 38
Width: 1509
VWidth: 0
Flags: HW
LayerCount: 2
Fore
SplineSet
1002.08 448 m 1
 1238.08 448 l 1
 1195.15 258 1050.38 146 809.407 141 c 1
 549.407 141 424.562 327 480.544 615 c 0
 532.443 882 723.765 1074 984.765 1074 c 0
 1157.76 1074 1272.63 991 1314.53 831 c 1
 1469.53 831 l 1
 1544.17 1215 l 1
 1373.17 1215 l 1
 1349.46 1093 l 1
 1276.79 1177 1151.67 1233 989.671 1233 c 0
 555.671 1233 300.664 914 241.572 610 c 0
 188.7 338 273.307 -19 769.307 -19 c 0
 1141.31 -19 1410.27 166 1498.24 598 c 1
 1031.24 598 l 1
 1002.08 448 l 1
980.172 1215 m 0
744 0 m 0
EndSplineSet
EndChar

StartChar: Gdotaccent
Encoding: 288 288 39
Width: 1380
VWidth: 0
Flags: HW
LayerCount: 2
Fore
SplineSet
900.458 1520 m 1
 864.498 1335 l 1
 1051.5 1335 l 1
 1087.46 1520 l 1
 900.458 1520 l 1
948.082 448 m 1
 1184.08 448 l 1
 1141.15 258 996.38 146 755.407 141 c 1
 495.407 141 370.562 327 426.544 615 c 0
 478.443 882 669.765 1074 930.765 1074 c 0
 1103.76 1074 1218.63 991 1260.53 831 c 1
 1415.53 831 l 1
 1490.17 1215 l 1
 1319.17 1215 l 1
 1295.46 1093 l 1
 1222.79 1177 1097.67 1233 935.671 1233 c 0
 501.671 1233 246.664 914 187.572 610 c 0
 134.7 338 219.307 -19 715.307 -19 c 0
 1087.31 -19 1356.27 166 1444.24 598 c 1
 977.239 598 l 1
 948.082 448 l 1
926.172 1215 m 0
690 0 m 0
922.314 1154 m 0
EndSplineSet
EndChar

StartChar: H
Encoding: 72 72 40
Width: 1546
VWidth: 0
Flags: HW
PickledData: "(dp1
S'com.typemytype.robofont.layerData'
p2
(dp3
s."
LayerCount: 2
Fore
SplineSet
1121.17 1215 m 1
 1093.96 1075 l 1
 1234.96 1075 l 1
 1164.59 713 l 1
 659.593 713 l 1
 729.959 1075 l 1
 871.959 1075 l 1
 899.172 1215 l 1
 392.172 1215 l 1
 364.959 1075 l 1
 510.959 1075 l 1
 329.407 141 l 1
 183.407 141 l 1
 156 0 l 1
 663 0 l 1
 690.407 141 l 1
 548.407 141 l 1
 629.853 560 l 1
 1134.85 560 l 1
 1053.41 141 l 1
 912.407 141 l 1
 885 0 l 1
 1390 0 l 1
 1417.41 141 l 1
 1271.41 141 l 1
 1452.96 1075 l 1
 1598.96 1075 l 1
 1626.17 1215 l 1
 1121.17 1215 l 1
1009.17 1215 m 0
891.184 608 m 0
EndSplineSet
EndChar

StartChar: Hbar
Encoding: 294 294 41
Width: 1372
VWidth: 0
Flags: HW
LayerCount: 2
Fore
SplineSet
1034.17 1215 m 1
 1006.96 1075 l 1
 1147.96 1075 l 1
 1123.27 948 l 1
 618.272 948 l 1
 642.959 1075 l 1
 784.959 1075 l 1
 812.172 1215 l 1
 305.172 1215 l 1
 277.959 1075 l 1
 423.959 1075 l 1
 399.272 948 l 1
 263.272 948 l 1
 242.862 843 l 1
 378.862 843 l 1
 242.407 141 l 1
 96.4072 141 l 1
 69 0 l 1
 576 0 l 1
 603.407 141 l 1
 461.407 141 l 1
 542.853 560 l 1
 1047.85 560 l 1
 966.407 141 l 1
 825.407 141 l 1
 798 0 l 1
 1303 0 l 1
 1330.41 141 l 1
 1184.41 141 l 1
 1320.86 843 l 1
 1451.86 843 l 1
 1472.27 948 l 1
 1341.27 948 l 1
 1365.96 1075 l 1
 1511.96 1075 l 1
 1539.17 1215 l 1
 1034.17 1215 l 1
1102.86 843 m 1
 1077.59 713 l 1
 572.593 713 l 1
 597.862 843 l 1
 1102.86 843 l 1
EndSplineSet
EndChar

StartChar: Hcircumflex
Encoding: 292 292 42
Width: 1372
VWidth: 0
Flags: HW
LayerCount: 2
Fore
SplineSet
835.308 1262 m 1
 973.016 1492 l 1
 1021.31 1262 l 1
 1169.31 1262 l 1
 1118.76 1537 l 1
 843.763 1537 l 1
 692.308 1262 l 1
 835.308 1262 l 1
1033.17 1215 m 1
 1005.96 1075 l 1
 1146.96 1075 l 1
 1076.59 713 l 1
 571.593 713 l 1
 641.959 1075 l 1
 783.959 1075 l 1
 811.172 1215 l 1
 304.172 1215 l 1
 276.959 1075 l 1
 422.959 1075 l 1
 241.407 141 l 1
 95.4072 141 l 1
 68 0 l 1
 575 0 l 1
 602.407 141 l 1
 460.407 141 l 1
 541.853 560 l 1
 1046.85 560 l 1
 965.407 141 l 1
 824.407 141 l 1
 797 0 l 1
 1302 0 l 1
 1329.41 141 l 1
 1183.41 141 l 1
 1364.96 1075 l 1
 1510.96 1075 l 1
 1538.17 1215 l 1
 1033.17 1215 l 1
921.172 1215 m 0
921.172 1215 m 0
803.184 608 m 0
EndSplineSet
EndChar

StartChar: I
Encoding: 73 73 43
Width: 810
VWidth: 0
Flags: HW
PickledData: "(dp1
S'com.typemytype.robofont.layerData'
p2
(dp3
s."
LayerCount: 2
Fore
SplineSet
376.172 1215 m 1
 348.959 1075 l 1
 502.959 1075 l 1
 321.407 141 l 1
 167.407 141 l 1
 140 0 l 1
 667 0 l 1
 694.407 141 l 1
 540.407 141 l 1
 721.959 1075 l 1
 875.959 1075 l 1
 903.172 1215 l 1
 376.172 1215 l 1
641.172 1215 m 0
671.943 10 m 0
EndSplineSet
EndChar

StartChar: IJ
Encoding: 306 306 44
Width: 1301
VWidth: 0
Flags: HW
LayerCount: 2
Fore
SplineSet
941.172 1215 m 1
 913.959 1075 l 1
 1067.96 1075 l 1
 886.407 141 l 1
 732.407 141 l 1
 705 0 l 1
 1232 0 l 1
 1259.41 141 l 1
 1105.41 141 l 1
 1286.96 1075 l 1
 1440.96 1075 l 1
 1468.17 1215 l 1
 941.172 1215 l 1
1206.17 1215 m 0
1236.94 10 m 0
-64.7617 -256 m 1
 106.238 -256 l 2
 330.238 -256 432.48 -121 473.105 88 c 2
 664.959 1075 l 1
 826.959 1075 l 1
 854.172 1215 l 1
 304.172 1215 l 1
 276.959 1075 l 1
 445.959 1075 l 1
 252.551 80 l 2
 235.057 -10 201.866 -83 93.8662 -83 c 2
 -31.1338 -83 l 1
 -64.7617 -256 l 1
555.172 1215 m 0
EndSplineSet
EndChar

StartChar: Iacute
Encoding: 205 205 45
Width: 663
VWidth: 0
Flags: HW
LayerCount: 2
Fore
SplineSet
564.748 1326 m 1
 840.229 1632 l 1
 582.229 1632 l 1
 398.748 1326 l 1
 564.748 1326 l 1
303.172 1215 m 1
 275.959 1075 l 1
 429.959 1075 l 1
 248.407 141 l 1
 94.4072 141 l 1
 67 0 l 1
 594 0 l 1
 621.407 141 l 1
 467.407 141 l 1
 648.959 1075 l 1
 802.959 1075 l 1
 830.172 1215 l 1
 303.172 1215 l 1
568.172 1215 m 0
568.172 1215 m 0
598.943 10 m 0
EndSplineSet
EndChar

StartChar: Ibreve
Encoding: 300 300 46
Width: 663
VWidth: 0
Flags: HW
LayerCount: 2
Fore
SplineSet
371.955 1574 m 1
 354.964 1430 443.498 1335 588.498 1335 c 0
 736.498 1335 858.158 1431 899.955 1574 c 1
 766.955 1574 l 1
 742.182 1498 682.629 1454 611.629 1454 c 0
 535.629 1454 499.182 1498 500.955 1574 c 1
 371.955 1574 l 1
303.172 1215 m 1
 275.959 1075 l 1
 429.959 1075 l 1
 248.407 141 l 1
 94.4072 141 l 1
 67 0 l 1
 594 0 l 1
 621.407 141 l 1
 467.407 141 l 1
 648.959 1075 l 1
 802.959 1075 l 1
 830.172 1215 l 1
 303.172 1215 l 1
568.172 1215 m 0
598.943 10 m 0
567.922 1224 m 0
EndSplineSet
EndChar

StartChar: Icircumflex
Encoding: 206 206 47
Width: 663
VWidth: 0
Flags: HW
LayerCount: 2
Fore
SplineSet
485.554 1325 m 1
 635.538 1577 l 1
 687.554 1325 l 1
 867.554 1325 l 1
 791.505 1654 l 1
 508.505 1654 l 1
 310.554 1325 l 1
 485.554 1325 l 1
302.172 1215 m 1
 274.959 1075 l 1
 428.959 1075 l 1
 247.407 141 l 1
 93.4072 141 l 1
 66 0 l 1
 593 0 l 1
 620.407 141 l 1
 466.407 141 l 1
 647.959 1075 l 1
 801.959 1075 l 1
 829.172 1215 l 1
 302.172 1215 l 1
567.172 1215 m 0
567.172 1215 m 0
597.943 10 m 0
EndSplineSet
EndChar

StartChar: Idieresis
Encoding: 207 207 48
Width: 663
VWidth: 0
Flags: HW
LayerCount: 2
Fore
SplineSet
728.315 1581 m 1
 692.354 1396 l 1
 879.354 1396 l 1
 915.315 1581 l 1
 728.315 1581 l 1
363.315 1581 m 1
 327.354 1396 l 1
 514.354 1396 l 1
 550.315 1581 l 1
 363.315 1581 l 1
303.172 1215 m 1
 275.959 1075 l 1
 429.959 1075 l 1
 248.407 141 l 1
 94.4072 141 l 1
 67 0 l 1
 594 0 l 1
 621.407 141 l 1
 467.407 141 l 1
 648.959 1075 l 1
 802.959 1075 l 1
 830.172 1215 l 1
 303.172 1215 l 1
568.172 1215 m 0
568.172 1215 m 0
598.943 10 m 0
EndSplineSet
EndChar

StartChar: Idotaccent
Encoding: 304 304 49
Width: 663
VWidth: 0
Flags: HW
LayerCount: 2
Fore
SplineSet
545.315 1581 m 1
 509.354 1396 l 1
 696.354 1396 l 1
 732.315 1581 l 1
 545.315 1581 l 1
302.172 1215 m 1
 274.959 1075 l 1
 428.959 1075 l 1
 247.407 141 l 1
 93.4072 141 l 1
 66 0 l 1
 593 0 l 1
 620.407 141 l 1
 466.407 141 l 1
 647.959 1075 l 1
 801.959 1075 l 1
 829.172 1215 l 1
 302.172 1215 l 1
567.172 1215 m 0
567.172 1215 m 0
597.943 10 m 0
EndSplineSet
EndChar

StartChar: Igrave
Encoding: 204 204 50
Width: 663
VWidth: 0
Flags: HW
LayerCount: 2
Fore
SplineSet
779.748 1326 m 1
 716.229 1632 l 1
 458.229 1632 l 1
 614.748 1326 l 1
 779.748 1326 l 1
302.172 1215 m 1
 274.959 1075 l 1
 428.959 1075 l 1
 247.407 141 l 1
 93.4072 141 l 1
 66 0 l 1
 593 0 l 1
 620.407 141 l 1
 466.407 141 l 1
 647.959 1075 l 1
 801.959 1075 l 1
 829.172 1215 l 1
 302.172 1215 l 1
567.172 1215 m 0
567.172 1215 m 0
597.943 10 m 0
EndSplineSet
EndChar

StartChar: Imacron
Encoding: 298 298 51
Width: 663
VWidth: 0
Flags: HW
LayerCount: 2
Fore
SplineSet
421.575 1428 m 1
 796.575 1428 l 1
 822.039 1559 l 1
 447.039 1559 l 1
 421.575 1428 l 1
302.172 1215 m 1
 274.959 1075 l 1
 428.959 1075 l 1
 247.407 141 l 1
 93.4072 141 l 1
 66 0 l 1
 593 0 l 1
 620.407 141 l 1
 466.407 141 l 1
 647.959 1075 l 1
 801.959 1075 l 1
 829.172 1215 l 1
 302.172 1215 l 1
567.172 1215 m 0
567.172 1215 m 0
597.943 10 m 0
EndSplineSet
EndChar

StartChar: Iogonek
Encoding: 302 302 52
Width: 663
VWidth: 0
Flags: HW
LayerCount: 2
Fore
SplineSet
343 0 m 1
 280.033 -77 258.702 -125 248.595 -177 c 0
 228.379 -281 290.384 -353 394.384 -353 c 0
 441.384 -353 475.327 -343 535.576 -316 c 1
 555.597 -213 l 1
 520.682 -228 495.709 -233 464.709 -233 c 0
 399.709 -233 373.707 -197 387.508 -126 c 0
 395.866 -83 412.67 -48 457 0 c 1
 343 0 l 1
303.172 1215 m 1
 275.959 1075 l 1
 429.959 1075 l 1
 248.407 141 l 1
 94.4072 141 l 1
 67 0 l 1
 594 0 l 1
 621.407 141 l 1
 467.407 141 l 1
 648.959 1075 l 1
 802.959 1075 l 1
 830.172 1215 l 1
 303.172 1215 l 1
598.943 10 m 0
568.172 1215 m 0
598.943 10 m 0
EndSplineSet
EndChar

StartChar: Itilde
Encoding: 296 296 53
Width: 663
VWidth: 0
Flags: HW
LayerCount: 2
Fore
SplineSet
368.636 1346 m 1
 384.411 1386 405.688 1408 448.688 1408 c 0
 526.688 1408 604.887 1337 716.887 1337 c 0
 821.887 1337 900.437 1417 937.289 1550 c 1
 859.289 1550 l 1
 840.932 1507 810.654 1485 769.654 1485 c 0
 692.654 1485 607.262 1555 505.262 1555 c 0
 418.262 1555 330.21 1493 288.636 1346 c 1
 368.636 1346 l 1
302.172 1215 m 1
 274.959 1075 l 1
 428.959 1075 l 1
 247.407 141 l 1
 93.4072 141 l 1
 66 0 l 1
 593 0 l 1
 620.407 141 l 1
 466.407 141 l 1
 647.959 1075 l 1
 801.959 1075 l 1
 829.172 1215 l 1
 302.172 1215 l 1
567.172 1215 m 0
567.172 1215 m 0
597.943 10 m 0
EndSplineSet
EndChar

StartChar: J
Encoding: 74 74 54
Width: 792
VWidth: 0
Flags: HW
LayerCount: 2
Fore
SplineSet
44.2383 -256 m 1
 215.238 -256 l 2
 439.238 -256 541.48 -121 582.105 88 c 2
 773.959 1075 l 1
 935.959 1075 l 1
 963.172 1215 l 1
 413.172 1215 l 1
 385.959 1075 l 1
 554.959 1075 l 1
 361.551 80 l 2
 344.057 -10 310.866 -83 202.866 -83 c 2
 77.8662 -83 l 1
 44.2383 -256 l 1
664.172 1215 m 0
EndSplineSet
EndChar

StartChar: Jcircumflex
Encoding: 308 308 55
Width: 638
VWidth: 0
Flags: HW
LayerCount: 2
Fore
SplineSet
472.554 1325 m 1
 622.538 1577 l 1
 674.554 1325 l 1
 854.554 1325 l 1
 778.505 1654 l 1
 495.505 1654 l 1
 297.554 1325 l 1
 472.554 1325 l 1
554.172 1215 m 0
-65.7617 -256 m 1
 105.238 -256 l 2
 329.238 -256 431.48 -121 472.105 88 c 2
 663.959 1075 l 1
 825.959 1075 l 1
 853.172 1215 l 1
 303.172 1215 l 1
 275.959 1075 l 1
 444.959 1075 l 1
 251.551 80 l 2
 234.057 -10 200.866 -83 92.8662 -83 c 2
 -32.1338 -83 l 1
 -65.7617 -256 l 1
554.172 1215 m 0
EndSplineSet
EndChar

StartChar: K
Encoding: 75 75 56
Width: 1415
VWidth: 0
Flags: HW
PickledData: "(dp1
S'com.typemytype.robofont.layerData'
p2
(dp3
s."
LayerCount: 2
Fore
SplineSet
392.172 1215 m 1
 364.959 1075 l 1
 505.959 1075 l 1
 324.407 141 l 1
 183.407 141 l 1
 156 0 l 1
 659 0 l 1
 686.407 141 l 1
 543.407 141 l 1
 632.822 601 l 1
 958.407 141 l 1
 834.407 141 l 1
 807 0 l 1
 1351 0 l 1
 1378.41 141 l 1
 1227.41 141 l 1
 878.237 634 l 1
 1419.96 1075 l 1
 1541.96 1075 l 1
 1569.17 1215 l 1
 1069.17 1215 l 1
 1041.96 1075 l 1
 1161.96 1075 l 1
 641.348 650 l 1
 723.959 1075 l 1
 878.959 1075 l 1
 906.172 1215 l 1
 392.172 1215 l 1
948.172 1215 m 0
712 0 m 0
EndSplineSet
EndChar

StartChar: Kcommaaccent
Encoding: 310 310 57
Width: 1461
VWidth: 0
Flags: HW
LayerCount: 2
Fore
SplineSet
393.172 1215 m 1
 365.959 1075 l 1
 506.959 1075 l 1
 325.407 141 l 1
 184.407 141 l 1
 157 0 l 1
 660 0 l 1
 687.407 141 l 1
 544.407 141 l 1
 633.822 601 l 1
 919.407 141 l 1
 795.407 141 l 1
 768 0 l 1
 1312 0 l 1
 1339.41 141 l 1
 1188.41 141 l 1
 879.237 634 l 1
 1380.96 1075 l 1
 1502.96 1075 l 1
 1530.17 1215 l 1
 1030.17 1215 l 1
 1002.96 1075 l 1
 1122.96 1075 l 1
 642.348 650 l 1
 724.959 1075 l 1
 879.959 1075 l 1
 907.172 1215 l 1
 393.172 1215 l 1
949.172 1215 m 0
713 0 m 0
EndSplineSet
EndChar

StartChar: L
Encoding: 76 76 58
Width: 1220
VWidth: 0
Flags: HW
PickledData: "(dp1
S'com.typemytype.robofont.layerData'
p2
(dp3
s."
LayerCount: 2
Fore
SplineSet
392.172 1215 m 1
 364.959 1075 l 1
 533.959 1075 l 1
 352.407 141 l 1
 183.407 141 l 1
 156 0 l 1
 1132 0 l 1
 1230.36 506 l 1
 1050.36 506 l 1
 979.407 141 l 1
 570.407 141 l 1
 751.959 1075 l 1
 918.959 1075 l 1
 946.172 1215 l 1
 392.172 1215 l 1
867.172 1215 m 0
631 0 m 0
EndSplineSet
EndChar

StartChar: Lacute
Encoding: 313 313 59
Width: 1088
VWidth: 0
Flags: HW
LayerCount: 2
Fore
SplineSet
758.807 1280 m 1
 995.763 1537 l 1
 788.763 1537 l 1
 639.807 1280 l 1
 758.807 1280 l 1
305.172 1215 m 1
 277.959 1075 l 1
 446.959 1075 l 1
 265.407 141 l 1
 96.4072 141 l 1
 69 0 l 1
 1045 0 l 1
 1143.36 506 l 1
 963.356 506 l 1
 892.407 141 l 1
 483.407 141 l 1
 664.959 1075 l 1
 831.959 1075 l 1
 859.172 1215 l 1
 305.172 1215 l 1
780.172 1215 m 0
780.172 1215 m 0
544 0 m 0
EndSplineSet
EndChar

StartChar: Lcaron
Encoding: 317 317 60
Width: 1088
VWidth: 0
Flags: HW
LayerCount: 2
Fore
SplineSet
1427.5 1227 m 1
 1418.76 1182 1391.38 1036 1383.83 992 c 1
 1511.83 992 l 1
 1490.44 882 1446.28 840 1346.78 822 c 1
 1326.95 720 l 1
 1523.15 721 1603.2 819 1640.71 1012 c 0
 1649.46 1057 1673.67 1197 1676.67 1233 c 1
 1619.67 1233 1477.48 1232 1427.5 1227 c 1
305.172 1215 m 1
 277.959 1075 l 1
 446.959 1075 l 1
 265.407 141 l 1
 96.4072 141 l 1
 69 0 l 1
 1045 0 l 1
 1143.36 506 l 1
 963.356 506 l 1
 892.407 141 l 1
 483.407 141 l 1
 664.959 1075 l 1
 831.959 1075 l 1
 859.172 1215 l 1
 305.172 1215 l 1
780.172 1215 m 0
544 0 m 0
EndSplineSet
EndChar

StartChar: Lcommaaccent
Encoding: 315 315 61
Width: 1198
VWidth: 0
Flags: HW
LayerCount: 2
Fore
SplineSet
387.172 1215 m 1
 359.959 1075 l 1
 528.959 1075 l 1
 347.407 141 l 1
 178.407 141 l 1
 151 0 l 1
 1127 0 l 1
 1225.36 506 l 1
 1045.36 506 l 1
 974.407 141 l 1
 565.407 141 l 1
 746.959 1075 l 1
 913.959 1075 l 1
 941.172 1215 l 1
 387.172 1215 l 1
862.172 1215 m 0
626 0 m 0
EndSplineSet
EndChar

StartChar: Ldot
Encoding: 319 319 62
Width: 1088
VWidth: 0
Flags: HW
LayerCount: 2
Fore
SplineSet
827.75 863 m 1
 786.736 652 l 1
 1013.74 652 l 1
 1054.75 863 l 1
 827.75 863 l 1
305.172 1215 m 1
 277.959 1075 l 1
 446.959 1075 l 1
 265.407 141 l 1
 96.4072 141 l 1
 69 0 l 1
 1045 0 l 1
 1143.36 506 l 1
 963.356 506 l 1
 892.407 141 l 1
 483.407 141 l 1
 664.959 1075 l 1
 831.959 1075 l 1
 859.172 1215 l 1
 305.172 1215 l 1
780.172 1215 m 0
544 0 m 0
EndSplineSet
EndChar

StartChar: Lslash
Encoding: 321 321 63
Width: 1076
VWidth: 0
Flags: HW
LayerCount: 2
Fore
SplineSet
294.172 1215 m 1
 266.959 1075 l 1
 435.959 1075 l 1
 352.375 645 l 1
 172.546 579 l 1
 147.471 450 l 1
 327.3 516 l 1
 254.407 141 l 1
 85.4072 141 l 1
 58 0 l 1
 1034 0 l 1
 1132.36 506 l 1
 952.356 506 l 1
 881.407 141 l 1
 472.407 141 l 1
 562.211 603 l 1
 758.401 676 l 1
 783.477 805 l 1
 587.286 732 l 1
 653.959 1075 l 1
 820.959 1075 l 1
 848.172 1215 l 1
 294.172 1215 l 1
EndSplineSet
EndChar

StartChar: M
Encoding: 77 77 64
Width: 1918
VWidth: 0
Flags: HW
PickledData: "(dp1
S'com.typemytype.robofont.layerData'
p2
(dp3
s."
LayerCount: 2
Fore
SplineSet
498.407 141 m 1
 677.043 1060 l 1
 897 0 l 1
 972 0 l 1
 1606.24 1061 l 1
 1427.41 141 l 1
 1280.41 141 l 1
 1253 0 l 1
 1762 0 l 1
 1789.41 141 l 1
 1632.41 141 l 1
 1813.96 1075 l 1
 1969.96 1075 l 1
 1997.17 1215 l 1
 1520.17 1215 l 1
 1025.67 379 l 1
 863.172 1215 l 1
 392.172 1215 l 1
 364.959 1075 l 1
 521.959 1075 l 1
 340.407 141 l 1
 183.407 141 l 1
 156 0 l 1
 618 0 l 1
 645.407 141 l 1
 498.407 141 l 1
EndSplineSet
EndChar

StartChar: N
Encoding: 78 78 65
Width: 1602
VWidth: 0
Flags: HW
PickledData: "(dp1
S'com.typemytype.robofont.layerData'
p2
(dp3
s."
LayerCount: 2
Fore
SplineSet
392.172 1215 m 1
 364.959 1075 l 1
 537.959 1075 l 1
 356.407 141 l 1
 183.407 141 l 1
 156 0 l 1
 662 0 l 1
 689.407 141 l 1
 519.407 141 l 1
 687.547 1006 l 1
 1105 0 l 1
 1321 0 l 1
 1529.96 1075 l 1
 1707.96 1075 l 1
 1735.17 1215 l 1
 1224.17 1215 l 1
 1196.96 1075 l 1
 1365.96 1075 l 1
 1213.18 289 l 1
 828.172 1215 l 1
 392.172 1215 l 1
1028.17 1215 m 0
792 0 m 0
EndSplineSet
EndChar

StartChar: Nacute
Encoding: 323 323 66
Width: 1409
VWidth: 0
Flags: HW
LayerCount: 2
Fore
SplineSet
1048.5 1335 m 1
 1285.45 1592 l 1
 1078.45 1592 l 1
 929.498 1335 l 1
 1048.5 1335 l 1
305.172 1215 m 1
 277.959 1075 l 1
 450.959 1075 l 1
 269.407 141 l 1
 96.4072 141 l 1
 69 0 l 1
 575 0 l 1
 602.407 141 l 1
 432.407 141 l 1
 600.547 1006 l 1
 996 0 l 1
 1212 0 l 1
 1420.96 1075 l 1
 1598.96 1075 l 1
 1626.17 1215 l 1
 1115.17 1215 l 1
 1087.96 1075 l 1
 1256.96 1075 l 1
 1104.18 289 l 1
 741.172 1215 l 1
 305.172 1215 l 1
941.172 1215 m 0
705 0 m 0
1069.86 1270 m 0
EndSplineSet
EndChar

StartChar: Ncaron
Encoding: 327 327 67
Width: 1409
VWidth: 0
Flags: HW
LayerCount: 2
Fore
SplineSet
744.763 1537 m 1
 856.418 1278 l 1
 1052.42 1278 l 1
 1261.76 1537 l 1
 1157.76 1537 l 1
 975.828 1383 l 1
 851.763 1537 l 1
 744.763 1537 l 1
304.172 1215 m 1
 276.959 1075 l 1
 449.959 1075 l 1
 268.407 141 l 1
 95.4072 141 l 1
 68 0 l 1
 574 0 l 1
 601.407 141 l 1
 431.407 141 l 1
 599.547 1006 l 1
 995 0 l 1
 1211 0 l 1
 1419.96 1075 l 1
 1597.96 1075 l 1
 1625.17 1215 l 1
 1114.17 1215 l 1
 1086.96 1075 l 1
 1255.96 1075 l 1
 1103.18 289 l 1
 740.172 1215 l 1
 304.172 1215 l 1
940.172 1215 m 0
940.172 1215 m 0
704 0 m 0
EndSplineSet
EndChar

StartChar: Ncommaaccent
Encoding: 325 325 68
Width: 1602
VWidth: 0
Flags: HW
LayerCount: 2
Fore
SplineSet
392.172 1215 m 1
 364.959 1075 l 1
 537.959 1075 l 1
 356.407 141 l 1
 183.407 141 l 1
 156 0 l 1
 662 0 l 1
 689.407 141 l 1
 519.407 141 l 1
 687.547 1006 l 1
 1083 0 l 1
 1299 0 l 1
 1507.96 1075 l 1
 1685.96 1075 l 1
 1713.17 1215 l 1
 1202.17 1215 l 1
 1174.96 1075 l 1
 1343.96 1075 l 1
 1191.18 289 l 1
 828.172 1215 l 1
 392.172 1215 l 1
1028.17 1215 m 0
792 0 m 0
EndSplineSet
EndChar

StartChar: Ntilde
Encoding: 209 209 69
Width: 1409
VWidth: 0
Flags: HW
LayerCount: 2
Fore
SplineSet
780.275 1339 m 1
 793.856 1378 810.938 1399 845.938 1399 c 0
 914.938 1399 987.525 1330 1088.53 1330 c 0
 1186.53 1330 1262.27 1411 1296.93 1543 c 1
 1190.93 1543 l 1
 1174.96 1502 1153.88 1481 1122.88 1481 c 0
 1051.88 1481 970.9 1548 876.9 1548 c 0
 795.9 1548 711.85 1486 672.275 1339 c 1
 780.275 1339 l 1
304.172 1215 m 1
 276.959 1075 l 1
 449.959 1075 l 1
 268.407 141 l 1
 95.4072 141 l 1
 68 0 l 1
 574 0 l 1
 601.407 141 l 1
 431.407 141 l 1
 599.547 1006 l 1
 995 0 l 1
 1211 0 l 1
 1419.96 1075 l 1
 1597.96 1075 l 1
 1625.17 1215 l 1
 1114.17 1215 l 1
 1086.96 1075 l 1
 1255.96 1075 l 1
 1103.18 289 l 1
 740.172 1215 l 1
 304.172 1215 l 1
940.172 1215 m 0
940.172 1215 m 0
704 0 m 0
EndSplineSet
EndChar

StartChar: O
Encoding: 79 79 70
Width: 1538
VWidth: 0
Flags: HW
LayerCount: 2
Fore
SplineSet
976.959 1075 m 0
 1219.96 1075 1344.69 873 1292.79 606 c 0
 1240.12 335 1031.41 141 794.407 141 c 0
 550.407 141 428.256 346 478.6 605 c 0
 532.638 883 743.959 1075 976.959 1075 c 0
764.307 -19 m 0
 1174.31 -19 1465.9 267 1531.79 606 c 0
 1598.66 950 1416.67 1233 1006.67 1233 c 0
 599.671 1233 309.05 952 241.989 607 c 0
 175.511 265 352.307 -19 764.307 -19 c 0
1005.17 1215 m 0
EndSplineSet
EndChar

StartChar: OE
Encoding: 338 338 71
Width: 2046
VWidth: 0
Flags: HW
LayerCount: 2
Fore
SplineSet
1963 0 m 1
 2032 355 l 1
 1865 355 l 1
 1823.41 141 l 1
 1325.41 141 l 1
 1404.33 547 l 1
 1731.33 547 l 1
 1709.36 434 l 1
 1811.36 434 l 1
 1884.84 812 l 1
 1783.84 812 l 1
 1761.29 696 l 1
 1433.29 696 l 1
 1506.96 1075 l 1
 2002.96 1075 l 1
 1962.53 867 l 1
 2128.53 867 l 1
 2196.17 1215 l 1
 948.172 1215 l 2
 545.172 1215 261.05 952 193.989 607 c 0
 127.511 265 305 0 713 0 c 2
 1963 0 l 1
757.407 141 m 2
 517.407 141 376.979 324 431.6 605 c 0
 490.108 906 705.765 1074 936.765 1074 c 2
 1288.76 1074 l 1
 1107.41 141 l 1
 757.407 141 l 2
1259.17 1215 m 0
EndSplineSet
EndChar

StartChar: Oacute
Encoding: 211 211 72
Width: 1440
VWidth: 0
Flags: HW
LayerCount: 2
Fore
SplineSet
952.748 1326 m 1
 1228.23 1632 l 1
 970.229 1632 l 1
 786.748 1326 l 1
 952.748 1326 l 1
927.959 1075 m 0
 1170.96 1075 1295.69 873 1243.79 606 c 0
 1191.12 335 982.407 141 745.407 141 c 0
 501.407 141 379.256 346 429.6 605 c 0
 483.638 883 694.959 1075 927.959 1075 c 0
715.307 -19 m 0
 1125.31 -19 1416.9 267 1482.79 606 c 0
 1549.66 950 1367.67 1233 957.671 1233 c 0
 550.671 1233 260.05 952 192.989 607 c 0
 126.511 265 303.307 -19 715.307 -19 c 0
956.172 1215 m 0
956.172 1215 m 0
EndSplineSet
EndChar

StartChar: Obreve
Encoding: 334 334 73
Width: 1440
VWidth: 0
Flags: HW
LayerCount: 2
Fore
SplineSet
760.205 1565 m 1
 743.215 1421 831.748 1326 976.748 1326 c 0
 1124.75 1326 1246.41 1422 1288.21 1565 c 1
 1155.21 1565 l 1
 1130.43 1489 1070.88 1445 999.88 1445 c 0
 923.88 1445 887.433 1489 889.205 1565 c 1
 760.205 1565 l 1
927.959 1075 m 0
 1170.96 1075 1295.69 873 1243.79 606 c 0
 1191.12 335 982.407 141 745.407 141 c 0
 501.407 141 379.256 346 429.6 605 c 0
 483.638 883 694.959 1075 927.959 1075 c 0
715.307 -19 m 0
 1125.31 -19 1416.9 267 1482.79 606 c 0
 1549.66 950 1367.67 1233 957.671 1233 c 0
 550.671 1233 260.05 952 192.989 607 c 0
 126.511 265 303.307 -19 715.307 -19 c 0
956.172 1215 m 0
956.172 1215 m 0
EndSplineSet
EndChar

StartChar: Ocircumflex
Encoding: 212 212 74
Width: 1440
VWidth: 0
Flags: HW
LayerCount: 2
Fore
SplineSet
873.554 1325 m 1
 1023.54 1577 l 1
 1075.55 1325 l 1
 1255.55 1325 l 1
 1179.5 1654 l 1
 896.505 1654 l 1
 698.554 1325 l 1
 873.554 1325 l 1
926.959 1075 m 0
 1169.96 1075 1294.69 873 1242.79 606 c 0
 1190.12 335 981.407 141 744.407 141 c 0
 500.407 141 378.256 346 428.6 605 c 0
 482.638 883 693.959 1075 926.959 1075 c 0
714.307 -19 m 0
 1124.31 -19 1415.9 267 1481.79 606 c 0
 1548.66 950 1366.67 1233 956.671 1233 c 0
 549.671 1233 259.05 952 191.989 607 c 0
 125.511 265 302.307 -19 714.307 -19 c 0
955.172 1215 m 0
955.172 1215 m 0
EndSplineSet
EndChar

StartChar: Odieresis
Encoding: 214 214 75
Width: 1440
VWidth: 0
Flags: HW
LayerCount: 2
Fore
SplineSet
1116.32 1581 m 1
 1080.36 1396 l 1
 1267.36 1396 l 1
 1303.32 1581 l 1
 1116.32 1581 l 1
751.315 1581 m 1
 715.354 1396 l 1
 902.354 1396 l 1
 938.315 1581 l 1
 751.315 1581 l 1
927.959 1075 m 0
 1170.96 1075 1295.69 873 1243.79 606 c 0
 1191.12 335 982.407 141 745.407 141 c 0
 501.407 141 379.256 346 429.6 605 c 0
 483.638 883 694.959 1075 927.959 1075 c 0
715.307 -19 m 0
 1125.31 -19 1416.9 267 1482.79 606 c 0
 1549.66 950 1367.67 1233 957.671 1233 c 0
 550.671 1233 260.05 952 192.989 607 c 0
 126.511 265 303.307 -19 715.307 -19 c 0
956.172 1215 m 0
956.172 1215 m 0
EndSplineSet
EndChar

StartChar: Ograve
Encoding: 210 210 76
Width: 1440
VWidth: 0
Flags: HW
LayerCount: 2
Fore
SplineSet
1167.75 1326 m 1
 1104.23 1632 l 1
 846.229 1632 l 1
 1002.75 1326 l 1
 1167.75 1326 l 1
926.959 1075 m 0
 1169.96 1075 1294.69 873 1242.79 606 c 0
 1190.12 335 981.407 141 744.407 141 c 0
 500.407 141 378.256 346 428.6 605 c 0
 482.638 883 693.959 1075 926.959 1075 c 0
714.307 -19 m 0
 1124.31 -19 1415.9 267 1481.79 606 c 0
 1548.66 950 1366.67 1233 956.671 1233 c 0
 549.671 1233 259.05 952 191.989 607 c 0
 125.511 265 302.307 -19 714.307 -19 c 0
955.172 1215 m 0
955.172 1215 m 0
EndSplineSet
EndChar

StartChar: Ohungarumlaut
Encoding: 336 336 77
Width: 1440
VWidth: 0
Flags: HW
LayerCount: 2
Fore
SplineSet
1218.5 1335 m 1
 1493.95 1646 l 1
 1240.95 1646 l 1
 1060.5 1335 l 1
 1218.5 1335 l 1
898.498 1335 m 1
 1173.95 1646 l 1
 920.95 1646 l 1
 739.498 1335 l 1
 898.498 1335 l 1
927.959 1075 m 0
 1170.96 1075 1295.69 873 1243.79 606 c 0
 1191.12 335 982.407 141 745.407 141 c 0
 501.407 141 379.256 346 429.6 605 c 0
 483.638 883 694.959 1075 927.959 1075 c 0
715.307 -19 m 0
 1125.31 -19 1416.9 267 1482.79 606 c 0
 1549.66 950 1367.67 1233 957.671 1233 c 0
 550.671 1233 260.05 952 192.989 607 c 0
 126.511 265 303.307 -19 715.307 -19 c 0
956.172 1215 m 0
1065.89 1229 m 0
EndSplineSet
EndChar

StartChar: Omacron
Encoding: 332 332 78
Width: 1440
VWidth: 0
Flags: HW
LayerCount: 2
Fore
SplineSet
809.575 1428 m 1
 1184.58 1428 l 1
 1210.04 1559 l 1
 835.039 1559 l 1
 809.575 1428 l 1
926.959 1075 m 0
 1169.96 1075 1294.69 873 1242.79 606 c 0
 1190.12 335 981.407 141 744.407 141 c 0
 500.407 141 378.256 346 428.6 605 c 0
 482.638 883 693.959 1075 926.959 1075 c 0
714.307 -19 m 0
 1124.31 -19 1415.9 267 1481.79 606 c 0
 1548.66 950 1366.67 1233 956.671 1233 c 0
 549.671 1233 259.05 952 191.989 607 c 0
 125.511 265 302.307 -19 714.307 -19 c 0
955.172 1215 m 0
955.172 1215 m 0
EndSplineSet
EndChar

StartChar: Oslash
Encoding: 216 216 79
Width: 1439
VWidth: 0
Flags: HW
LayerCount: 2
Fore
SplineSet
716.307 -19 m 0
 1126.31 -19 1417.9 267 1483.79 606 c 0
 1526.56 826 1467.46 1021 1314.23 1133 c 1
 1407.17 1251 l 1
 1309.86 1306 l 1
 1215.73 1187 l 1
 1143.56 1217 1057.67 1233 958.671 1233 c 0
 551.671 1233 261.05 952 193.989 607 c 0
 151.42 388 206.71 194 357.939 82 c 1
 256.059 -46 l 1
 353.367 -101 l 1
 455.442 28 l 1
 528.611 -2 615.307 -19 716.307 -19 c 0
928.959 1075 m 0
 993.959 1075 1049.04 1060 1096.18 1035 c 1
 493.178 253 l 1
 427.506 337 402.998 463 430.6 605 c 0
 484.638 883 695.959 1075 928.959 1075 c 0
1244.79 606 m 0
 1192.12 335 983.407 141 746.407 141 c 0
 680.407 141 624.129 155 577.183 181 c 1
 1180.58 965 l 1
 1249.25 881 1273.37 753 1244.79 606 c 0
956.172 1215 m 0
EndSplineSet
EndChar

StartChar: Otilde
Encoding: 213 213 80
Width: 1440
VWidth: 0
Flags: HW
LayerCount: 2
Fore
SplineSet
795.275 1339 m 1
 808.856 1378 825.938 1399 860.938 1399 c 0
 929.938 1399 1002.53 1330 1103.53 1330 c 0
 1201.53 1330 1277.27 1411 1311.93 1543 c 1
 1205.93 1543 l 1
 1189.96 1502 1168.88 1481 1137.88 1481 c 0
 1066.88 1481 985.9 1548 891.9 1548 c 0
 810.9 1548 726.85 1486 687.275 1339 c 1
 795.275 1339 l 1
926.959 1075 m 0
 1169.96 1075 1294.69 873 1242.79 606 c 0
 1190.12 335 981.407 141 744.407 141 c 0
 500.407 141 378.256 346 428.6 605 c 0
 482.638 883 693.959 1075 926.959 1075 c 0
714.307 -19 m 0
 1124.31 -19 1415.9 267 1481.79 606 c 0
 1548.66 950 1366.67 1233 956.671 1233 c 0
 549.671 1233 259.05 952 191.989 607 c 0
 125.511 265 302.307 -19 714.307 -19 c 0
955.172 1215 m 0
955.172 1215 m 0
EndSplineSet
EndChar

StartChar: P
Encoding: 80 80 81
Width: 1261
VWidth: 0
Flags: HW
PickledData: "(dp1
S'com.typemytype.robofont.layerData'
p2
(dp3
s."
LayerCount: 2
Fore
SplineSet
151 0 m 1
 700 0 l 1
 727.407 141 l 1
 560.407 141 l 1
 625.525 476 l 1
 772.525 476 l 2
 1064.53 476 1288.24 562 1342.86 843 c 0
 1389.51 1083 1246.17 1215 936.172 1215 c 2
 392.172 1215 l 1
 364.959 1075 l 1
 522.959 1075 l 1
 341.407 141 l 1
 178.407 141 l 1
 151 0 l 1
741.959 1075 m 1
 936.959 1075 l 2
 1077.96 1075 1143.66 986 1115.86 843 c 0
 1088.65 703 1004.74 616 790.738 616 c 2
 652.738 616 l 1
 741.959 1075 l 1
EndSplineSet
EndChar

StartChar: Q
Encoding: 81 81 82
Width: 1538
VWidth: 0
Flags: HW
PickledData: "(dp1
S'com.typemytype.robofont.layerData'
p2
(dp3
s."
LayerCount: 2
Fore
SplineSet
1098.88 -263 m 0
 1167.88 -263 1229.21 -251 1279.29 -230 c 1
 1261.87 -83 l 1
 1245.7 -89 1194.37 -101 1131.37 -101 c 0
 1047.37 -101 942.449 -80 874.583 3 c 1
 1220.8 35 1473.87 308 1531.6 605 c 0
 1598.27 948 1419.67 1233 1006.67 1233 c 0
 589.671 1233 307.106 942 241.6 605 c 0
 184.452 311 319.189 73 603.36 7 c 1
 746.29 -194 939.878 -263 1098.88 -263 c 0
795.407 141 m 0
 551.407 141 428.479 342 479.6 605 c 0
 533.638 883 743.959 1075 975.959 1075 c 0
 1220.96 1075 1345.69 873 1293.99 607 c 0
 1240.15 330 1032.41 141 795.407 141 c 0
EndSplineSet
EndChar

StartChar: R
Encoding: 82 82 83
Width: 1400
VWidth: 0
Flags: HW
PickledData: "(dp1
S'com.typemytype.robofont.layerData'
p2
(dp3
s."
LayerCount: 2
Fore
SplineSet
156 0 m 1
 704 0 l 1
 731.407 141 l 1
 571.407 141 l 1
 652.27 557 l 1
 812.27 557 l 1
 999 0 l 1
 1323 0 l 1
 1350.41 141 l 1
 1179.41 141 l 1
 1022.93 581 l 1
 1214.88 627 1320.67 734 1352.17 896 c 0
 1396.09 1122 1236.17 1215 991.172 1215 c 2
 392.172 1215 l 1
 364.959 1075 l 1
 534.959 1075 l 1
 353.407 141 l 1
 183.407 141 l 1
 156 0 l 1
752.959 1075 m 1
 965.959 1075 l 2
 1098.96 1075 1151.83 992 1132.58 893 c 0
 1114.7 801 1047.46 702 879.455 702 c 2
 680.455 702 l 1
 752.959 1075 l 1
935.172 1215 m 0
699 0 m 0
EndSplineSet
EndChar

StartChar: Racute
Encoding: 340 340 84
Width: 1224
VWidth: 0
Flags: HW
LayerCount: 2
Fore
SplineSet
842.748 1326 m 1
 1118.23 1632 l 1
 860.229 1632 l 1
 676.748 1326 l 1
 842.748 1326 l 1
69 0 m 1
 617 0 l 1
 644.407 141 l 1
 484.407 141 l 1
 565.27 557 l 1
 725.27 557 l 1
 912 0 l 1
 1236 0 l 1
 1263.41 141 l 1
 1092.41 141 l 1
 935.935 581 l 1
 1127.88 627 1233.67 734 1265.17 896 c 0
 1309.09 1122 1149.17 1215 904.172 1215 c 2
 305.172 1215 l 1
 277.959 1075 l 1
 447.959 1075 l 1
 266.407 141 l 1
 96.4072 141 l 1
 69 0 l 1
665.959 1075 m 1
 878.959 1075 l 2
 1011.96 1075 1064.83 992 1045.58 893 c 0
 1027.7 801 960.455 702 792.455 702 c 2
 593.455 702 l 1
 665.959 1075 l 1
848.172 1215 m 0
612 0 m 0
846.172 1215 m 0
EndSplineSet
EndChar

StartChar: Rcaron
Encoding: 344 344 85
Width: 1224
VWidth: 0
Flags: HW
LayerCount: 2
Fore
SplineSet
650.763 1537 m 1
 762.418 1278 l 1
 958.418 1278 l 1
 1167.76 1537 l 1
 1063.76 1537 l 1
 881.828 1383 l 1
 757.763 1537 l 1
 650.763 1537 l 1
69 0 m 1
 617 0 l 1
 644.407 141 l 1
 484.407 141 l 1
 565.27 557 l 1
 725.27 557 l 1
 912 0 l 1
 1236 0 l 1
 1263.41 141 l 1
 1092.41 141 l 1
 935.935 581 l 1
 1127.88 627 1233.67 734 1265.17 896 c 0
 1309.09 1122 1149.17 1215 904.172 1215 c 2
 305.172 1215 l 1
 277.959 1075 l 1
 447.959 1075 l 1
 266.407 141 l 1
 96.4072 141 l 1
 69 0 l 1
665.959 1075 m 1
 878.959 1075 l 2
 1011.96 1075 1064.83 992 1045.58 893 c 0
 1027.7 801 960.455 702 792.455 702 c 2
 593.455 702 l 1
 665.959 1075 l 1
848.172 1215 m 0
612 0 m 0
846.172 1215 m 0
EndSplineSet
EndChar

StartChar: Rcommaaccent
Encoding: 342 342 86
Width: 1430
VWidth: 0
Flags: HW
LayerCount: 2
Fore
SplineSet
154 0 m 1
 702 0 l 1
 729.407 141 l 1
 569.407 141 l 1
 650.27 557 l 1
 810.27 557 l 1
 997 0 l 1
 1321 0 l 1
 1348.41 141 l 1
 1177.41 141 l 1
 1020.93 581 l 1
 1212.88 627 1318.67 734 1350.17 896 c 0
 1394.09 1122 1234.17 1215 989.172 1215 c 2
 390.172 1215 l 1
 362.959 1075 l 1
 532.959 1075 l 1
 351.407 141 l 1
 181.407 141 l 1
 154 0 l 1
750.959 1075 m 1
 963.959 1075 l 2
 1096.96 1075 1149.83 992 1130.58 893 c 0
 1112.7 801 1045.46 702 877.455 702 c 2
 678.455 702 l 1
 750.959 1075 l 1
933.172 1215 m 0
697 0 m 0
EndSplineSet
EndChar

StartChar: S
Encoding: 83 83 87
Width: 1170
VWidth: 0
Flags: HW
PickledData: "(dp1
S'com.typemytype.robofont.layerData'
p2
(dp3
s."
LayerCount: 2
Fore
SplineSet
635.307 -19 m 2
 523.307 -19 435.499 18 371.3 89 c 1
 353 0 l 1
 182 0 l 1
 261.113 407 l 1
 432.113 407 l 1
 410.73 297 l 1
 454.71 194 521.407 141 637.407 141 c 0
 763.407 141 861.375 218 881.396 321 c 0
 908.221 459 780.996 499 619.909 550 c 0
 451.211 603 306.179 680 349.331 902 c 0
 391.706 1120 574.671 1233 789.671 1233 c 0
 883.671 1233 964.256 1200 1018.21 1138 c 1
 1033.17 1215 l 1
 1202.17 1215 l 1
 1133.94 864 l 1
 964.944 864 l 1
 983.8 961 l 1
 939.378 1036 874.765 1074 779.765 1074 c 0
 652.765 1074 565.741 1007 549.607 924 c 0
 522.395 784 680.979 751 835.289 696 c 0
 989.598 641 1139.44 563 1094.53 332 c 0
 1051.77 112 845.307 -19 636.307 -19 c 2
 635.307 -19 l 2
822.172 1215 m 0
586 0 m 0
EndSplineSet
EndChar

StartChar: Sacute
Encoding: 346 346 88
Width: 998
VWidth: 0
Flags: HW
LayerCount: 2
Fore
SplineSet
549.307 -19 m 2
 437.307 -19 349.499 18 285.3 89 c 1
 267 0 l 1
 96 0 l 1
 175.113 407 l 1
 346.113 407 l 1
 324.73 297 l 1
 368.71 194 435.407 141 551.407 141 c 0
 677.407 141 775.375 218 795.396 321 c 0
 822.221 459 694.996 499 533.909 550 c 0
 365.211 603 220.179 680 263.331 902 c 0
 305.706 1120 488.671 1233 703.671 1233 c 0
 797.671 1233 878.256 1200 932.205 1138 c 1
 947.172 1215 l 1
 1116.17 1215 l 1
 1047.94 864 l 1
 878.944 864 l 1
 897.8 961 l 1
 853.378 1036 788.765 1074 693.765 1074 c 0
 566.765 1074 479.741 1007 463.607 924 c 0
 436.395 784 594.979 751 749.289 696 c 0
 903.598 641 1053.44 563 1008.53 332 c 0
 965.771 112 759.307 -19 550.307 -19 c 2
 549.307 -19 l 2
736.172 1215 m 0
500 0 m 0
835.498 1335 m 1
 1072.45 1592 l 1
 865.453 1592 l 1
 716.498 1335 l 1
 835.498 1335 l 1
856.863 1270 m 0
EndSplineSet
EndChar

StartChar: Scaron
Encoding: 352 352 89
Width: 998
VWidth: 0
Flags: HW
LayerCount: 2
Fore
SplineSet
538.763 1537 m 1
 650.418 1278 l 1
 846.418 1278 l 1
 1055.76 1537 l 1
 951.763 1537 l 1
 769.828 1383 l 1
 645.763 1537 l 1
 538.763 1537 l 1
734.172 1215 m 0
548.307 -19 m 2
 436.307 -19 348.499 18 284.3 89 c 1
 266 0 l 1
 95 0 l 1
 174.113 407 l 1
 345.113 407 l 1
 323.73 297 l 1
 367.71 194 434.407 141 550.407 141 c 0
 676.407 141 774.375 218 794.396 321 c 0
 821.221 459 693.996 499 532.909 550 c 0
 364.211 603 219.179 680 262.331 902 c 0
 304.706 1120 487.671 1233 702.671 1233 c 0
 796.671 1233 877.256 1200 931.205 1138 c 1
 946.172 1215 l 1
 1115.17 1215 l 1
 1046.94 864 l 1
 877.944 864 l 1
 896.8 961 l 1
 852.378 1036 787.765 1074 692.765 1074 c 0
 565.765 1074 478.741 1007 462.607 924 c 0
 435.395 784 593.979 751 748.289 696 c 0
 902.598 641 1052.44 563 1007.53 332 c 0
 964.771 112 758.307 -19 549.307 -19 c 2
 548.307 -19 l 2
735.172 1215 m 0
499 0 m 0
EndSplineSet
EndChar

StartChar: Scedilla
Encoding: 350 350 90
Width: 998
VWidth: 0
Flags: HW
LayerCount: 2
Fore
SplineSet
285.412 -358 m 1
 299.829 -361 341.635 -362 354.635 -362 c 0
 505.635 -362 584.853 -294 600.985 -211 c 0
 613.037 -149 580.007 -108 514.729 -94 c 0
 511.923 -93 509.117 -92 506.117 -92 c 1
 541.972 5 l 1
 469.972 5 l 1
 399.482 -157 l 1
 455.705 -161 483.817 -181 477.014 -216 c 0
 468.072 -262 415.156 -277 347.156 -277 c 0
 332.156 -277 317.351 -276 300.935 -273 c 1
 285.412 -358 l 1
497 0 m 0
547.307 -19 m 2
 435.307 -19 347.499 18 283.3 89 c 1
 265 0 l 1
 94 0 l 1
 173.113 407 l 1
 344.113 407 l 1
 322.73 297 l 1
 366.71 194 433.407 141 549.407 141 c 0
 675.407 141 773.375 218 793.396 321 c 0
 820.221 459 692.996 499 531.909 550 c 0
 363.211 603 218.179 680 261.331 902 c 0
 303.706 1120 486.671 1233 701.671 1233 c 0
 795.671 1233 876.256 1200 930.205 1138 c 1
 945.172 1215 l 1
 1114.17 1215 l 1
 1045.94 864 l 1
 876.944 864 l 1
 895.8 961 l 1
 851.378 1036 786.765 1074 691.765 1074 c 0
 564.765 1074 477.741 1007 461.607 924 c 0
 434.395 784 592.979 751 747.289 696 c 0
 901.598 641 1051.44 563 1006.53 332 c 0
 963.771 112 757.307 -19 548.307 -19 c 2
 547.307 -19 l 2
734.172 1215 m 0
498 0 m 0
EndSplineSet
EndChar

StartChar: Scommaaccent
Encoding: 536 536 91
Width: 1135
VWidth: 0
Flags: HW
LayerCount: 2
Fore
SplineSet
610.307 -19 m 2
 498.307 -19 410.499 18 346.3 89 c 1
 328 0 l 1
 157 0 l 1
 236.113 407 l 1
 407.113 407 l 1
 385.73 297 l 1
 429.71 194 496.407 141 612.407 141 c 0
 738.407 141 836.375 218 856.396 321 c 0
 883.221 459 755.996 499 594.909 550 c 0
 426.211 603 281.179 680 324.331 902 c 0
 366.706 1120 549.671 1233 764.671 1233 c 0
 858.671 1233 939.256 1200 993.205 1138 c 1
 1008.17 1215 l 1
 1177.17 1215 l 1
 1108.94 864 l 1
 939.944 864 l 1
 958.8 961 l 1
 914.378 1036 849.765 1074 754.765 1074 c 0
 627.765 1074 540.741 1007 524.607 924 c 0
 497.395 784 655.979 751 810.289 696 c 0
 964.598 641 1114.44 563 1069.53 332 c 0
 1026.77 112 820.307 -19 611.307 -19 c 2
 610.307 -19 l 2
797.172 1215 m 0
561 0 m 0
EndSplineSet
EndChar

StartChar: T
Encoding: 84 84 92
Width: 1252
VWidth: 0
Flags: HW
LayerCount: 2
Fore
SplineSet
343.172 1215 m 1
 263.282 804 l 1
 423.282 804 l 1
 475.959 1075 l 1
 726.959 1075 l 1
 545.407 141 l 1
 367.407 141 l 1
 340 0 l 1
 913 0 l 1
 940.407 141 l 1
 764.407 141 l 1
 945.959 1075 l 1
 1193.96 1075 l 1
 1141.28 804 l 1
 1301.28 804 l 1
 1381.17 1215 l 1
 343.172 1215 l 1
862.172 1215 m 0
626 0 m 0
744.184 608 m 0
EndSplineSet
EndChar

StartChar: Tcaron
Encoding: 356 356 93
Width: 1114
VWidth: 0
Flags: HW
LayerCount: 2
Fore
SplineSet
596.763 1537 m 1
 708.418 1278 l 1
 904.418 1278 l 1
 1113.76 1537 l 1
 1009.76 1537 l 1
 827.828 1383 l 1
 703.763 1537 l 1
 596.763 1537 l 1
273.172 1215 m 1
 193.282 804 l 1
 353.282 804 l 1
 405.959 1075 l 1
 656.959 1075 l 1
 475.407 141 l 1
 297.407 141 l 1
 270 0 l 1
 843 0 l 1
 870.407 141 l 1
 694.407 141 l 1
 875.959 1075 l 1
 1123.96 1075 l 1
 1071.28 804 l 1
 1231.28 804 l 1
 1311.17 1215 l 1
 273.172 1215 l 1
792.172 1215 m 0
792.172 1215 m 0
556 0 m 0
674.184 608 m 0
EndSplineSet
EndChar

StartChar: Tcommaaccent
Encoding: 65538 -1 94
Width: 1114
VWidth: 0
Flags: HW
LayerCount: 2
Fore
SplineSet
343.412 -358 m 1
 357.829 -361 399.635 -362 412.635 -362 c 0
 563.635 -362 642.853 -294 658.985 -211 c 0
 671.037 -149 638.007 -108 572.729 -94 c 0
 569.923 -93 567.117 -92 564.117 -92 c 1
 599.972 5 l 1
 527.972 5 l 1
 457.482 -157 l 1
 513.705 -161 541.817 -181 535.014 -216 c 0
 526.072 -262 473.156 -277 405.156 -277 c 0
 390.156 -277 375.351 -276 358.935 -273 c 1
 343.412 -358 l 1
272.172 1215 m 1
 192.282 804 l 1
 352.282 804 l 1
 404.959 1075 l 1
 655.959 1075 l 1
 474.407 141 l 1
 296.407 141 l 1
 269 0 l 1
 842 0 l 1
 869.407 141 l 1
 693.407 141 l 1
 874.959 1075 l 1
 1122.96 1075 l 1
 1070.28 804 l 1
 1230.28 804 l 1
 1310.17 1215 l 1
 272.172 1215 l 1
555 0 m 0
791.172 1215 m 0
555 0 m 0
673.184 608 m 0
EndSplineSet
EndChar

StartChar: Thorn
Encoding: 222 222 95
Width: 1124
VWidth: 0
Flags: HW
LayerCount: 2
Fore
SplineSet
647.959 1075 m 1
 827.959 1075 l 1
 855.172 1215 l 1
 298.172 1215 l 1
 270.959 1075 l 1
 428.959 1075 l 1
 247.407 141 l 1
 84.4072 141 l 1
 57 0 l 1
 606 0 l 1
 633.407 141 l 1
 466.407 141 l 1
 493.232 279 l 1
 640.232 279 l 2
 932.232 279 1154.98 360 1206.1 623 c 0
 1249.06 844 1103.77 966 793.771 966 c 2
 626.771 966 l 1
 647.959 1075 l 1
598.586 821 m 1
 752.586 821 l 2
 947.586 821 1004.56 754 979.293 624 c 0
 955.579 502 873.806 426 659.806 426 c 2
 521.806 426 l 1
 598.586 821 l 1
EndSplineSet
EndChar

StartChar: U
Encoding: 85 85 96
Width: 1428
VWidth: 0
Flags: HW
PickledData: "(dp1
S'com.typemytype.robofont.layerData'
p2
(dp3
s."
LayerCount: 2
Fore
SplineSet
1089.89 411 m 2
 1056.07 237 946.407 141 765.407 141 c 0
 592.407 141 522.263 238 554.918 406 c 2
 684.959 1075 l 1
 839.959 1075 l 1
 867.172 1215 l 1
 342.172 1215 l 1
 314.959 1075 l 1
 466.959 1075 l 1
 343.527 440 l 2
 292.988 180 360.307 -19 728.307 -19 c 0
 998.307 -19 1214.58 111 1274.64 420 c 2
 1401.96 1075 l 1
 1555.96 1075 l 1
 1583.17 1215 l 1
 1095.17 1215 l 1
 1067.96 1075 l 1
 1218.96 1075 l 1
 1089.89 411 l 2
984.172 1215 m 0
1243.94 10 m 0
EndSplineSet
EndChar

StartChar: Uacute
Encoding: 218 218 97
Width: 1236
VWidth: 0
Flags: HW
LayerCount: 2
Fore
SplineSet
865.748 1326 m 1
 1141.23 1632 l 1
 883.229 1632 l 1
 699.748 1326 l 1
 865.748 1326 l 1
959.891 411 m 2
 926.068 237 839.407 141 658.407 141 c 0
 485.407 141 435.263 238 467.918 406 c 2
 597.959 1075 l 1
 735.959 1075 l 1
 763.172 1215 l 1
 255.172 1215 l 1
 227.959 1075 l 1
 379.959 1075 l 1
 256.527 440 l 2
 205.988 180 253.307 -19 621.307 -19 c 0
 891.307 -19 1084.58 111 1144.64 420 c 2
 1271.96 1075 l 1
 1425.96 1075 l 1
 1453.17 1215 l 1
 980.172 1215 l 1
 952.959 1075 l 1
 1088.96 1075 l 1
 959.891 411 l 2
854.172 1215 m 0
1113.94 10 m 0
869.172 1215 m 0
EndSplineSet
EndChar

StartChar: Ubreve
Encoding: 364 364 98
Width: 1236
VWidth: 0
Flags: HW
LayerCount: 2
Fore
SplineSet
659.955 1574 m 1
 642.964 1430 731.498 1335 876.498 1335 c 0
 1024.5 1335 1146.16 1431 1187.96 1574 c 1
 1054.96 1574 l 1
 1030.18 1498 970.629 1454 899.629 1454 c 0
 823.629 1454 787.182 1498 788.955 1574 c 1
 659.955 1574 l 1
959.891 411 m 2
 926.068 237 839.407 141 658.407 141 c 0
 485.407 141 435.263 238 467.918 406 c 2
 597.959 1075 l 1
 735.959 1075 l 1
 763.172 1215 l 1
 255.172 1215 l 1
 227.959 1075 l 1
 379.959 1075 l 1
 256.527 440 l 2
 205.988 180 253.307 -19 621.307 -19 c 0
 891.307 -19 1084.58 111 1144.64 420 c 2
 1271.96 1075 l 1
 1425.96 1075 l 1
 1453.17 1215 l 1
 980.172 1215 l 1
 952.959 1075 l 1
 1088.96 1075 l 1
 959.891 411 l 2
854.172 1215 m 0
1113.94 10 m 0
855.922 1224 m 0
EndSplineSet
EndChar

StartChar: Ucircumflex
Encoding: 219 219 99
Width: 1236
VWidth: 0
Flags: HW
LayerCount: 2
Fore
SplineSet
786.554 1325 m 1
 936.538 1577 l 1
 988.554 1325 l 1
 1168.55 1325 l 1
 1092.5 1654 l 1
 809.505 1654 l 1
 611.554 1325 l 1
 786.554 1325 l 1
959.891 411 m 2
 926.068 237 839.407 141 658.407 141 c 0
 485.407 141 435.263 238 467.918 406 c 2
 597.959 1075 l 1
 735.959 1075 l 1
 763.172 1215 l 1
 255.172 1215 l 1
 227.959 1075 l 1
 379.959 1075 l 1
 256.527 440 l 2
 205.988 180 253.307 -19 621.307 -19 c 0
 891.307 -19 1084.58 111 1144.64 420 c 2
 1271.96 1075 l 1
 1425.96 1075 l 1
 1453.17 1215 l 1
 980.172 1215 l 1
 952.959 1075 l 1
 1088.96 1075 l 1
 959.891 411 l 2
854.172 1215 m 0
1113.94 10 m 0
868.172 1215 m 0
EndSplineSet
EndChar

StartChar: Udieresis
Encoding: 220 220 100
Width: 1236
VWidth: 0
Flags: HW
LayerCount: 2
Fore
SplineSet
1029.32 1581 m 1
 993.354 1396 l 1
 1180.36 1396 l 1
 1216.32 1581 l 1
 1029.32 1581 l 1
664.315 1581 m 1
 628.354 1396 l 1
 815.354 1396 l 1
 851.315 1581 l 1
 664.315 1581 l 1
959.891 411 m 2
 926.068 237 839.407 141 658.407 141 c 0
 485.407 141 435.263 238 467.918 406 c 2
 597.959 1075 l 1
 735.959 1075 l 1
 763.172 1215 l 1
 255.172 1215 l 1
 227.959 1075 l 1
 379.959 1075 l 1
 256.527 440 l 2
 205.988 180 253.307 -19 621.307 -19 c 0
 891.307 -19 1084.58 111 1144.64 420 c 2
 1271.96 1075 l 1
 1425.96 1075 l 1
 1453.17 1215 l 1
 980.172 1215 l 1
 952.959 1075 l 1
 1088.96 1075 l 1
 959.891 411 l 2
854.172 1215 m 0
1113.94 10 m 0
869.172 1215 m 0
EndSplineSet
EndChar

StartChar: Ugrave
Encoding: 217 217 101
Width: 1236
VWidth: 0
Flags: HW
LayerCount: 2
Fore
SplineSet
1065.75 1326 m 1
 1002.23 1632 l 1
 744.229 1632 l 1
 900.748 1326 l 1
 1065.75 1326 l 1
958.891 411 m 2
 925.068 237 838.407 141 657.407 141 c 0
 484.407 141 434.263 238 466.918 406 c 2
 596.959 1075 l 1
 734.959 1075 l 1
 762.172 1215 l 1
 254.172 1215 l 1
 226.959 1075 l 1
 378.959 1075 l 1
 255.527 440 l 2
 204.988 180 252.307 -19 620.307 -19 c 0
 890.307 -19 1083.58 111 1143.64 420 c 2
 1270.96 1075 l 1
 1424.96 1075 l 1
 1452.17 1215 l 1
 979.172 1215 l 1
 951.959 1075 l 1
 1087.96 1075 l 1
 958.891 411 l 2
853.172 1215 m 0
853.172 1215 m 0
1112.94 10 m 0
EndSplineSet
EndChar

StartChar: Uhungarumlaut
Encoding: 368 368 102
Width: 1236
VWidth: 0
Flags: HW
LayerCount: 2
Fore
SplineSet
1116.5 1335 m 1
 1391.95 1646 l 1
 1138.95 1646 l 1
 958.498 1335 l 1
 1116.5 1335 l 1
796.498 1335 m 1
 1071.95 1646 l 1
 818.95 1646 l 1
 637.498 1335 l 1
 796.498 1335 l 1
959.891 411 m 2
 926.068 237 839.407 141 658.407 141 c 0
 485.407 141 435.263 238 467.918 406 c 2
 597.959 1075 l 1
 735.959 1075 l 1
 763.172 1215 l 1
 255.172 1215 l 1
 227.959 1075 l 1
 379.959 1075 l 1
 256.527 440 l 2
 205.988 180 253.307 -19 621.307 -19 c 0
 891.307 -19 1084.58 111 1144.64 420 c 2
 1271.96 1075 l 1
 1425.96 1075 l 1
 1453.17 1215 l 1
 980.172 1215 l 1
 952.959 1075 l 1
 1088.96 1075 l 1
 959.891 411 l 2
854.172 1215 m 0
1113.94 10 m 0
963.894 1229 m 0
EndSplineSet
EndChar

StartChar: Umacron
Encoding: 362 362 103
Width: 1236
VWidth: 0
Flags: HW
LayerCount: 2
Fore
SplineSet
689.498 1335 m 1
 1064.5 1335 l 1
 1089.96 1466 l 1
 714.962 1466 l 1
 689.498 1335 l 1
959.891 411 m 2
 926.068 237 839.407 141 658.407 141 c 0
 485.407 141 435.263 238 467.918 406 c 2
 597.959 1075 l 1
 735.959 1075 l 1
 763.172 1215 l 1
 255.172 1215 l 1
 227.959 1075 l 1
 379.959 1075 l 1
 256.527 440 l 2
 205.988 180 253.307 -19 621.307 -19 c 0
 891.307 -19 1084.58 111 1144.64 420 c 2
 1271.96 1075 l 1
 1425.96 1075 l 1
 1453.17 1215 l 1
 980.172 1215 l 1
 952.959 1075 l 1
 1088.96 1075 l 1
 959.891 411 l 2
854.172 1215 m 0
1113.94 10 m 0
835.095 1122 m 0
EndSplineSet
EndChar

StartChar: Uogonek
Encoding: 370 370 104
Width: 1236
VWidth: 0
Flags: HW
LayerCount: 2
Fore
SplineSet
858 0 m 1
 795.033 -77 773.702 -125 763.595 -177 c 0
 743.379 -281 805.384 -353 909.384 -353 c 0
 956.384 -353 990.327 -343 1050.58 -316 c 1
 1070.6 -213 l 1
 1035.68 -228 1010.71 -233 979.709 -233 c 0
 914.709 -233 888.707 -197 902.508 -126 c 0
 910.866 -83 927.67 -48 972 0 c 1
 858 0 l 1
959.891 411 m 2
 926.068 237 839.407 141 658.407 141 c 0
 485.407 141 435.263 238 467.918 406 c 2
 597.959 1075 l 1
 735.959 1075 l 1
 763.172 1215 l 1
 255.172 1215 l 1
 227.959 1075 l 1
 379.959 1075 l 1
 256.527 440 l 2
 205.988 180 253.307 -19 621.307 -19 c 0
 891.307 -19 1084.58 111 1144.64 420 c 2
 1271.96 1075 l 1
 1425.96 1075 l 1
 1453.17 1215 l 1
 980.172 1215 l 1
 952.959 1075 l 1
 1088.96 1075 l 1
 959.891 411 l 2
1113.94 10 m 0
854.172 1215 m 0
1113.94 10 m 0
EndSplineSet
EndChar

StartChar: Uring
Encoding: 366 366 105
Width: 1236
VWidth: 0
Flags: HW
LayerCount: 2
Fore
SplineSet
806.542 1505 m 0
 816.65 1557 862.786 1604 928.786 1604 c 0
 994.786 1604 1023.65 1557 1013.54 1505 c 0
 1003.43 1453 956.299 1406 890.299 1406 c 0
 824.299 1406 796.435 1453 806.542 1505 c 0
727.932 1507 m 0
 710.437 1417 762.498 1335 876.498 1335 c 0
 990.498 1335 1075.44 1417 1092.93 1507 c 0
 1110.04 1595 1059.2 1673 942.198 1673 c 0
 826.198 1673 745.037 1595 727.932 1507 c 0
959.891 411 m 2
 926.068 237 839.407 141 658.407 141 c 0
 485.407 141 435.263 238 467.918 406 c 2
 597.959 1075 l 1
 735.959 1075 l 1
 763.172 1215 l 1
 255.172 1215 l 1
 227.959 1075 l 1
 379.959 1075 l 1
 256.527 440 l 2
 205.988 180 253.307 -19 621.307 -19 c 0
 891.307 -19 1084.58 111 1144.64 420 c 2
 1271.96 1075 l 1
 1425.96 1075 l 1
 1453.17 1215 l 1
 980.172 1215 l 1
 952.959 1075 l 1
 1088.96 1075 l 1
 959.891 411 l 2
854.172 1215 m 0
1113.94 10 m 0
865.418 1278 m 0
EndSplineSet
EndChar

StartChar: Utilde
Encoding: 360 360 106
Width: 1236
VWidth: 0
Flags: HW
LayerCount: 2
Fore
SplineSet
654.247 1344 m 1
 670.022 1384 691.299 1406 734.299 1406 c 0
 812.299 1406 890.498 1335 1002.5 1335 c 0
 1107.5 1335 1186.05 1415 1222.9 1548 c 1
 1144.9 1548 l 1
 1126.54 1505 1096.27 1483 1055.27 1483 c 0
 978.266 1483 892.873 1553 790.873 1553 c 0
 703.873 1553 615.821 1491 574.247 1344 c 1
 654.247 1344 l 1
959.891 411 m 2
 926.068 237 839.407 141 658.407 141 c 0
 485.407 141 435.263 238 467.918 406 c 2
 597.959 1075 l 1
 735.959 1075 l 1
 763.172 1215 l 1
 255.172 1215 l 1
 227.959 1075 l 1
 379.959 1075 l 1
 256.527 440 l 2
 205.988 180 253.307 -19 621.307 -19 c 0
 891.307 -19 1084.58 111 1144.64 420 c 2
 1271.96 1075 l 1
 1425.96 1075 l 1
 1453.17 1215 l 1
 980.172 1215 l 1
 952.959 1075 l 1
 1088.96 1075 l 1
 959.891 411 l 2
854.172 1215 m 0
1113.94 10 m 0
852.783 1213 m 0
EndSplineSet
EndChar

StartChar: V
Encoding: 86 86 107
Width: 1407
VWidth: 0
Flags: HW
PickledData: "(dp1
S'com.typemytype.robofont.layerData'
p2
(dp3
s."
LayerCount: 2
Fore
SplineSet
802 0 m 1
 1412.96 1075 l 1
 1562.96 1075 l 1
 1590.17 1215 l 1
 1108.17 1215 l 1
 1080.96 1075 l 1
 1224.96 1075 l 1
 769.874 236 l 1
 636.959 1075 l 1
 782.959 1075 l 1
 810.172 1215 l 1
 289.172 1215 l 1
 261.959 1075 l 1
 411.959 1075 l 1
 614 0 l 1
 802 0 l 1
EndSplineSet
EndChar

StartChar: W
Encoding: 87 87 108
Width: 1935
VWidth: 0
Flags: HW
PickledData: "(dp1
S'com.typemytype.robofont.layerData'
p2
(dp3
s."
LayerCount: 2
Fore
SplineSet
1423 0 m 1
 1962.96 1075 l 1
 2105.96 1075 l 1
 2133.17 1215 l 1
 1671.17 1215 l 1
 1643.96 1075 l 1
 1787.96 1075 l 1
 1397.82 282 l 1
 1314.96 1075 l 1
 1441.96 1075 l 1
 1469.17 1215 l 1
 965.172 1215 l 1
 937.959 1075 l 1
 1067.96 1075 l 1
 681.815 282 l 1
 597.959 1075 l 1
 740.959 1075 l 1
 768.172 1215 l 1
 274.172 1215 l 1
 246.959 1075 l 1
 391.959 1075 l 1
 522 0 l 1
 703 0 l 1
 1139.86 879 l 1
 1239 0 l 1
 1423 0 l 1
1204.17 1215 m 0
EndSplineSet
EndChar

StartChar: X
Encoding: 88 88 109
Width: 1434
VWidth: 0
Flags: HW
PickledData: "(dp1
S'com.typemytype.robofont.layerData'
p2
(dp3
s."
LayerCount: 2
Fore
SplineSet
349.172 1215 m 1
 321.959 1075 l 1
 483.959 1075 l 1
 713.544 615 l 1
 297.407 141 l 1
 127.407 141 l 1
 100 0 l 1
 607 0 l 1
 634.407 141 l 1
 492.407 141 l 1
 790.635 492 l 1
 953.407 141 l 1
 813.407 141 l 1
 786 0 l 1
 1334 0 l 1
 1361.41 141 l 1
 1192.41 141 l 1
 948.487 625 l 1
 1347.96 1075 l 1
 1509.96 1075 l 1
 1537.17 1215 l 1
 1046.17 1215 l 1
 1018.96 1075 l 1
 1154.96 1075 l 1
 874.202 747 l 1
 719.959 1075 l 1
 853.959 1075 l 1
 881.172 1215 l 1
 349.172 1215 l 1
EndSplineSet
EndChar

StartChar: Y
Encoding: 89 89 110
Width: 1337
VWidth: 0
Flags: HW
PickledData: "(dp1
S'com.typemytype.robofont.layerData'
p2
(dp3
s."
LayerCount: 2
Fore
SplineSet
408.959 1075 m 1
 670.715 549 l 1
 591.407 141 l 1
 424.407 141 l 1
 397 0 l 1
 953 0 l 1
 980.407 141 l 1
 809.407 141 l 1
 888.909 550 l 1
 1338.96 1075 l 1
 1497.96 1075 l 1
 1525.17 1215 l 1
 1031.17 1215 l 1
 1003.96 1075 l 1
 1145.96 1075 l 1
 827.345 686 l 1
 644.959 1075 l 1
 787.959 1075 l 1
 815.172 1215 l 1
 284.172 1215 l 1
 256.959 1075 l 1
 408.959 1075 l 1
905.172 1215 m 0
EndSplineSet
EndChar

StartChar: Yacute
Encoding: 221 221 111
Width: 1217
VWidth: 0
Flags: HW
LayerCount: 2
Fore
SplineSet
841.748 1326 m 1
 1117.23 1632 l 1
 859.229 1632 l 1
 675.748 1326 l 1
 841.748 1326 l 1
348.959 1075 m 1
 610.715 549 l 1
 531.407 141 l 1
 364.407 141 l 1
 337 0 l 1
 893 0 l 1
 920.407 141 l 1
 749.407 141 l 1
 828.909 550 l 1
 1278.96 1075 l 1
 1437.96 1075 l 1
 1465.17 1215 l 1
 971.172 1215 l 1
 943.959 1075 l 1
 1085.96 1075 l 1
 767.345 686 l 1
 584.959 1075 l 1
 727.959 1075 l 1
 755.172 1215 l 1
 224.172 1215 l 1
 196.959 1075 l 1
 348.959 1075 l 1
845.172 1215 m 0
845.172 1215 m 0
EndSplineSet
EndChar

StartChar: Ydieresis
Encoding: 376 376 112
Width: 1319
VWidth: 0
Flags: HW
LayerCount: 2
Fore
SplineSet
1276.32 1581 m 1
 1240.36 1396 l 1
 1427.36 1396 l 1
 1463.32 1581 l 1
 1276.32 1581 l 1
911.315 1581 m 1
 875.354 1396 l 1
 1062.36 1396 l 1
 1098.32 1581 l 1
 911.315 1581 l 1
386.959 1075 m 1
 648.715 549 l 1
 569.407 141 l 1
 402.407 141 l 1
 375 0 l 1
 931 0 l 1
 958.407 141 l 1
 787.407 141 l 1
 866.909 550 l 1
 1316.96 1075 l 1
 1475.96 1075 l 1
 1503.17 1215 l 1
 1009.17 1215 l 1
 981.959 1075 l 1
 1123.96 1075 l 1
 805.345 686 l 1
 622.959 1075 l 1
 765.959 1075 l 1
 793.172 1215 l 1
 262.172 1215 l 1
 234.959 1075 l 1
 386.959 1075 l 1
883.172 1215 m 0
1116.17 1215 m 0
883.172 1215 m 0
EndSplineSet
EndChar

StartChar: Z
Encoding: 90 90 113
Width: 1256
VWidth: 0
Flags: HW
PickledData: "(dp1
S'com.typemytype.robofont.layerData'
p2
(dp3
s."
LayerCount: 2
Fore
SplineSet
1306.12 1081 m 1
 1332.17 1215 l 1
 431.172 1215 l 1
 361.195 855 l 1
 520.195 855 l 1
 562.959 1075 l 1
 1035.96 1075 l 1
 192.352 151 l 1
 163 0 l 1
 1106 0 l 1
 1178.89 375 l 1
 1020.89 375 l 1
 975.407 141 l 1
 450.407 141 l 1
 1306.12 1081 l 1
864.172 1215 m 0
EndSplineSet
EndChar

StartChar: Zacute
Encoding: 377 377 114
Width: 1084
VWidth: 0
Flags: HW
LayerCount: 2
Fore
SplineSet
867.498 1335 m 1
 1104.45 1592 l 1
 897.453 1592 l 1
 748.498 1335 l 1
 867.498 1335 l 1
1220.12 1081 m 1
 1246.17 1215 l 1
 345.172 1215 l 1
 275.195 855 l 1
 434.195 855 l 1
 476.959 1075 l 1
 949.959 1075 l 1
 106.352 151 l 1
 77 0 l 1
 1020 0 l 1
 1092.89 375 l 1
 934.893 375 l 1
 889.407 141 l 1
 364.407 141 l 1
 1220.12 1081 l 1
778.172 1215 m 0
888.863 1270 m 0
EndSplineSet
EndChar

StartChar: Zcaron
Encoding: 381 381 115
Width: 1084
VWidth: 0
Flags: HW
LayerCount: 2
Fore
SplineSet
599.842 1594 m 1
 711.498 1335 l 1
 907.498 1335 l 1
 1116.84 1594 l 1
 1012.84 1594 l 1
 830.907 1440 l 1
 706.842 1594 l 1
 599.842 1594 l 1
1220.12 1081 m 1
 1246.17 1215 l 1
 345.172 1215 l 1
 275.195 855 l 1
 434.195 855 l 1
 476.959 1075 l 1
 949.959 1075 l 1
 106.352 151 l 1
 77 0 l 1
 1020 0 l 1
 1092.89 375 l 1
 934.893 375 l 1
 889.407 141 l 1
 364.407 141 l 1
 1220.12 1081 l 1
778.172 1215 m 0
795.252 1272 m 0
EndSplineSet
EndChar

StartChar: Zdotaccent
Encoding: 379 379 116
Width: 1084
VWidth: 0
Flags: HW
LayerCount: 2
Fore
SplineSet
750.458 1520 m 1
 714.498 1335 l 1
 901.498 1335 l 1
 937.458 1520 l 1
 750.458 1520 l 1
1220.12 1081 m 1
 1246.17 1215 l 1
 345.172 1215 l 1
 275.195 855 l 1
 434.195 855 l 1
 476.959 1075 l 1
 949.959 1075 l 1
 106.352 151 l 1
 77 0 l 1
 1020 0 l 1
 1092.89 375 l 1
 934.893 375 l 1
 889.407 141 l 1
 364.407 141 l 1
 1220.12 1081 l 1
778.172 1215 m 0
772.314 1154 m 0
EndSplineSet
EndChar

StartChar: a
Encoding: 97 97 117
Width: 1129
VWidth: 0
Flags: HW
LayerCount: 2
Fore
SplineSet
721.105 88 m 1
 713 0 l 1
 1038 0 l 1
 1065.41 141 l 1
 918.407 141 l 1
 1001.21 567 l 2
 1040.48 769 873.139 865 675.139 865 c 0
 554.139 865 421.142 829 317.729 760 c 1
 376.626 636 l 1
 478.316 691 574.565 718 649.565 718 c 0
 757.565 718 823.68 662 802.881 555 c 2
 789.274 485 l 1
 723.802 498 664.356 506 601.356 506 c 0
 389.356 506 215.973 432 177.291 233 c 0
 151.438 100 241.307 -19 418.307 -19 c 0
 518.307 -19 601.555 8 721.105 88 c 1
485.576 111 m 0
 395.576 111 351.656 168 365.457 239 c 0
 388.199 356 486.836 385 589.836 385 c 0
 654.836 385 716.31 372 766.532 368 c 1
 733.293 197 l 1
 654.407 141 564.576 111 485.576 111 c 0
718.029 849 m 0
945.943 10 m 0
EndSplineSet
EndChar

StartChar: aacute
Encoding: 225 225 118
Width: 1129
VWidth: 0
Flags: HW
LayerCount: 2
Fore
SplineSet
714.605 960 m 1
 990.086 1266 l 1
 732.086 1266 l 1
 548.605 960 l 1
 714.605 960 l 1
721.105 88 m 1
 713 0 l 1
 1038 0 l 1
 1065.41 141 l 1
 918.407 141 l 1
 1001.21 567 l 2
 1040.48 769 873.139 865 675.139 865 c 0
 554.139 865 421.142 829 317.729 760 c 1
 376.626 636 l 1
 478.316 691 574.565 718 649.565 718 c 0
 757.565 718 823.68 662 802.881 555 c 2
 789.274 485 l 1
 723.802 498 664.356 506 601.356 506 c 0
 389.356 506 215.973 432 177.291 233 c 0
 151.438 100 241.307 -19 418.307 -19 c 0
 518.307 -19 601.555 8 721.105 88 c 1
485.576 111 m 0
 395.576 111 351.656 168 365.457 239 c 0
 388.199 356 486.836 385 589.836 385 c 0
 654.836 385 716.31 372 766.532 368 c 1
 733.293 197 l 1
 654.407 141 564.576 111 485.576 111 c 0
718.029 849 m 0
718.029 849 m 0
945.943 10 m 0
EndSplineSet
EndChar

StartChar: abreve
Encoding: 259 259 119
Width: 1129
VWidth: 0
Flags: HW
LayerCount: 2
Fore
SplineSet
555.617 1207 m 1
 538.626 1063 627.16 968 772.16 968 c 0
 920.16 968 1041.82 1064 1083.62 1207 c 1
 950.617 1207 l 1
 925.844 1131 866.291 1087 795.291 1087 c 0
 719.291 1087 682.844 1131 684.617 1207 c 1
 555.617 1207 l 1
721.105 88 m 1
 713 0 l 1
 1038 0 l 1
 1065.41 141 l 1
 918.407 141 l 1
 1001.21 567 l 2
 1040.48 769 873.139 865 675.139 865 c 0
 554.139 865 421.142 829 317.729 760 c 1
 376.626 636 l 1
 478.316 691 574.565 718 649.565 718 c 0
 757.565 718 823.68 662 802.881 555 c 2
 789.274 485 l 1
 723.802 498 664.356 506 601.356 506 c 0
 389.356 506 215.973 432 177.291 233 c 0
 151.438 100 241.307 -19 418.307 -19 c 0
 518.307 -19 601.555 8 721.105 88 c 1
485.576 111 m 0
 395.576 111 351.656 168 365.457 239 c 0
 388.199 356 486.836 385 589.836 385 c 0
 654.836 385 716.31 372 766.532 368 c 1
 733.293 197 l 1
 654.407 141 564.576 111 485.576 111 c 0
718.029 849 m 0
945.943 10 m 0
751.584 857 m 0
EndSplineSet
EndChar

StartChar: acircumflex
Encoding: 226 226 120
Width: 1129
VWidth: 0
Flags: HW
LayerCount: 2
Fore
SplineSet
636.411 959 m 1
 786.395 1211 l 1
 838.411 959 l 1
 1018.41 959 l 1
 942.361 1288 l 1
 659.361 1288 l 1
 461.411 959 l 1
 636.411 959 l 1
721.105 88 m 1
 713 0 l 1
 1038 0 l 1
 1065.41 141 l 1
 918.407 141 l 1
 1001.21 567 l 2
 1040.48 769 873.139 865 675.139 865 c 0
 554.139 865 421.142 829 317.729 760 c 1
 376.626 636 l 1
 478.316 691 574.565 718 649.565 718 c 0
 757.565 718 823.68 662 802.881 555 c 2
 789.274 485 l 1
 723.802 498 664.356 506 601.356 506 c 0
 389.356 506 215.973 432 177.291 233 c 0
 151.438 100 241.307 -19 418.307 -19 c 0
 518.307 -19 601.555 8 721.105 88 c 1
485.576 111 m 0
 395.576 111 351.656 168 365.457 239 c 0
 388.199 356 486.836 385 589.836 385 c 0
 654.836 385 716.31 372 766.532 368 c 1
 733.293 197 l 1
 654.407 141 564.576 111 485.576 111 c 0
718.029 849 m 0
718.029 849 m 0
945.943 10 m 0
EndSplineSet
EndChar

StartChar: acute
Encoding: 180 180 121
Width: 579
VWidth: 0
Flags: HW
LayerCount: 2
Fore
SplineSet
454.605 960 m 1
 730.086 1266 l 1
 472.086 1266 l 1
 288.605 960 l 1
 454.605 960 l 1
458.029 849 m 0
EndSplineSet
EndChar

StartChar: acute.cap
Encoding: 65539 -1 122
Width: 344
VWidth: 0
Flags: HW
LayerCount: 2
Fore
SplineSet
326.664 914 m 1
 563.619 1171 l 1
 356.619 1171 l 1
 207.664 914 l 1
 326.664 914 l 1
348.029 849 m 0
EndSplineSet
EndChar

StartChar: adieresis
Encoding: 228 228 123
Width: 1129
VWidth: 0
Flags: HW
LayerCount: 2
Fore
SplineSet
878.172 1215 m 1
 842.212 1030 l 1
 1029.21 1030 l 1
 1065.17 1215 l 1
 878.172 1215 l 1
513.172 1215 m 1
 477.212 1030 l 1
 664.212 1030 l 1
 700.172 1215 l 1
 513.172 1215 l 1
721.105 88 m 1
 713 0 l 1
 1038 0 l 1
 1065.41 141 l 1
 918.407 141 l 1
 1001.21 567 l 2
 1040.48 769 873.139 865 675.139 865 c 0
 554.139 865 421.142 829 317.729 760 c 1
 376.626 636 l 1
 478.316 691 574.565 718 649.565 718 c 0
 757.565 718 823.68 662 802.881 555 c 2
 789.274 485 l 1
 723.802 498 664.356 506 601.356 506 c 0
 389.356 506 215.973 432 177.291 233 c 0
 151.438 100 241.307 -19 418.307 -19 c 0
 518.307 -19 601.555 8 721.105 88 c 1
485.576 111 m 0
 395.576 111 351.656 168 365.457 239 c 0
 388.199 356 486.836 385 589.836 385 c 0
 654.836 385 716.31 372 766.532 368 c 1
 733.293 197 l 1
 654.407 141 564.576 111 485.576 111 c 0
718.029 849 m 0
718.029 849 m 0
945.943 10 m 0
EndSplineSet
EndChar

StartChar: ae
Encoding: 230 230 124
Width: 1542
VWidth: 0
Flags: HW
LayerCount: 2
Fore
SplineSet
349.307 -19 m 0
 505.307 -19 647.831 30 766.188 109 c 1
 829.637 29 935.307 -19 1077.31 -19 c 0
 1240.31 -19 1379.58 39 1469.63 137 c 1
 1381.85 241 l 1
 1304.24 171 1201.66 132 1115.66 132 c 0
 950.658 132 889.263 238 907.447 383 c 1
 1553.45 383 l 1
 1606.32 655 1511.33 866 1250.33 866 c 0
 1126.33 866 1009.78 822 906.982 715 c 1
 859.53 831 786.333 866 629.333 866 c 0
 473.333 866 343.559 826 248.396 748 c 1
 327.626 636 l 1
 400.483 697 475.897 730 584.897 730 c 0
 688.897 730 758.373 681 736.991 571 c 2
 720.274 485 l 1
 654.802 498 595.356 506 532.356 506 c 0
 320.356 506 146.973 432 108.291 233 c 0
 82.4385 100 172.307 -19 349.307 -19 c 0
933.385 501 m 1
 979.237 634 1073.15 721 1211.15 721 c 0
 1337.15 721 1409.68 626 1385.38 501 c 1
 933.385 501 l 1
713.403 213 m 1
 633.684 163 522.576 111 416.576 111 c 0
 326.576 111 282.656 168 296.457 239 c 0
 319.199 356 417.836 385 520.836 385 c 0
 585.836 385 647.31 372 697.532 368 c 1
 699.561 363 l 1
 694.869 308 699.15 258 713.403 213 c 1
936.029 849 m 0
EndSplineSet
EndChar

StartChar: agrave
Encoding: 224 224 125
Width: 1129
VWidth: 0
Flags: HW
LayerCount: 2
Fore
SplineSet
930.605 960 m 1
 867.086 1266 l 1
 609.086 1266 l 1
 765.605 960 l 1
 930.605 960 l 1
721.105 88 m 1
 713 0 l 1
 1038 0 l 1
 1065.41 141 l 1
 918.407 141 l 1
 1001.21 567 l 2
 1040.48 769 873.139 865 675.139 865 c 0
 554.139 865 421.142 829 317.729 760 c 1
 376.626 636 l 1
 478.316 691 574.565 718 649.565 718 c 0
 757.565 718 823.68 662 802.881 555 c 2
 789.274 485 l 1
 723.802 498 664.356 506 601.356 506 c 0
 389.356 506 215.973 432 177.291 233 c 0
 151.438 100 241.307 -19 418.307 -19 c 0
 518.307 -19 601.555 8 721.105 88 c 1
485.576 111 m 0
 395.576 111 351.656 168 365.457 239 c 0
 388.199 356 486.836 385 589.836 385 c 0
 654.836 385 716.31 372 766.532 368 c 1
 733.293 197 l 1
 654.407 141 564.576 111 485.576 111 c 0
718.029 849 m 0
718.029 849 m 0
945.943 10 m 0
EndSplineSet
EndChar

StartChar: amacron
Encoding: 257 257 126
Width: 1129
VWidth: 0
Flags: HW
LayerCount: 2
Fore
SplineSet
585.16 968 m 1
 960.16 968 l 1
 985.624 1099 l 1
 610.624 1099 l 1
 585.16 968 l 1
721.105 88 m 1
 713 0 l 1
 1038 0 l 1
 1065.41 141 l 1
 918.407 141 l 1
 1001.21 567 l 2
 1040.48 769 873.139 865 675.139 865 c 0
 554.139 865 421.142 829 317.729 760 c 1
 376.626 636 l 1
 478.316 691 574.565 718 649.565 718 c 0
 757.565 718 823.68 662 802.881 555 c 2
 789.274 485 l 1
 723.802 498 664.356 506 601.356 506 c 0
 389.356 506 215.973 432 177.291 233 c 0
 151.438 100 241.307 -19 418.307 -19 c 0
 518.307 -19 601.555 8 721.105 88 c 1
485.576 111 m 0
 395.576 111 351.656 168 365.457 239 c 0
 388.199 356 486.836 385 589.836 385 c 0
 654.836 385 716.31 372 766.532 368 c 1
 733.293 197 l 1
 654.407 141 564.576 111 485.576 111 c 0
718.029 849 m 0
945.943 10 m 0
730.757 755 m 0
EndSplineSet
EndChar

StartChar: ampersand
Encoding: 38 38 127
Width: 1363
VWidth: 0
Flags: HW
LayerCount: 2
Fore
SplineSet
519.307 -19 m 0
 656.307 -19 785.637 29 917.298 125 c 1
 988 0 l 1
 1294 0 l 1
 1322.96 149 l 1
 1129.96 149 l 1
 1064.34 259 l 1
 1135.17 325 1197.11 407 1253.72 513 c 1
 1392.91 514 l 1
 1421.49 661 l 1
 1158.49 661 l 1
 1116.24 562 1062 463 986.226 387 c 1
 801.68 662 l 1
 995.036 741 1090.86 843 1116.91 977 c 0
 1145.09 1122 1036.67 1233 862.671 1233 c 0
 678.671 1233 518.512 1119 488.383 964 c 0
 471.666 878 497.31 799 551.621 708 c 1
 333.46 630 194.494 517 162.422 352 c 0
 121.213 140 272.307 -19 519.307 -19 c 0
735.422 779 m 1
 684.333 866 661.024 921 670.743 971 c 0
 685.711 1048 753.652 1094 834.652 1094 c 0
 913.652 1094 963.127 1045 947.966 967 c 0
 932.998 890 864.308 835 735.422 779 c 1
584.186 145 m 0
 433.186 145 343.012 247 365.561 363 c 0
 385.387 465 472.16 541 622.656 595 c 1
 843.4 249 l 1
 756.405 177 671.186 145 584.186 145 c 0
EndSplineSet
EndChar

StartChar: aogonek
Encoding: 261 261 128
Width: 979
VWidth: 0
Flags: HW
LayerCount: 2
Fore
SplineSet
627 0 m 1
 564.033 -77 542.702 -125 532.595 -177 c 0
 512.379 -281 574.384 -353 678.384 -353 c 0
 725.384 -353 759.327 -343 819.576 -316 c 1
 839.597 -213 l 1
 804.682 -228 779.709 -233 748.709 -233 c 0
 683.709 -233 657.707 -197 671.508 -126 c 0
 679.866 -83 696.67 -48 741 0 c 1
 627 0 l 1
658.105 88 m 1
 650 0 l 1
 975 0 l 1
 1002.41 141 l 1
 855.407 141 l 1
 938.214 567 l 2
 977.479 769 810.139 865 612.139 865 c 0
 491.139 865 358.142 829 254.729 760 c 1
 313.626 636 l 1
 415.316 691 511.565 718 586.565 718 c 0
 694.565 718 760.68 662 739.881 555 c 2
 726.274 485 l 1
 660.802 498 601.356 506 538.356 506 c 0
 326.356 506 152.973 432 114.291 233 c 0
 88.4385 100 178.307 -19 355.307 -19 c 0
 455.307 -19 538.555 8 658.105 88 c 1
422.576 111 m 0
 332.576 111 288.656 168 302.457 239 c 0
 325.199 356 423.836 385 526.836 385 c 0
 591.836 385 653.31 372 703.532 368 c 1
 670.293 197 l 1
 591.407 141 501.576 111 422.576 111 c 0
882.943 10 m 0
655.029 849 m 0
882.943 10 m 0
EndSplineSet
EndChar

StartChar: approxequal
Encoding: 8776 8776 129
Width: 1245
VWidth: 0
Flags: HW
LayerCount: 2
Fore
SplineSet
753.113 834 m 0
 867.811 781 910.673 770 987.673 770 c 0
 1087.67 770 1177.67 806 1256.86 879 c 1
 1287.38 1036 l 1
 1210.35 969 1111.86 915 1036.86 915 c 0
 978.858 915 937.385 928 846.743 971 c 0
 732.045 1024 688.989 1034 610.989 1034 c 0
 511.989 1034 422.991 998 342.996 926 c 1
 312.284 768 l 1
 388.696 837 488.804 889 562.804 889 c 0
 621.804 889 662.472 877 753.113 834 c 0
686.635 492 m 0
 801.333 439 844.194 428 921.194 428 c 0
 1021.19 428 1111.19 464 1190.38 537 c 1
 1220.9 694 l 1
 1143.88 627 1045.38 573 970.38 573 c 0
 912.38 573 870.907 586 780.266 629 c 0
 665.567 682 622.511 692 544.511 692 c 0
 445.511 692 356.514 656 276.519 584 c 1
 245.806 426 l 1
 322.219 495 422.326 547 496.326 547 c 0
 555.326 547 595.993 535 686.635 492 c 0
EndSplineSet
EndChar

StartChar: aring
Encoding: 229 229 130
Width: 1129
VWidth: 0
Flags: HW
LayerCount: 2
Fore
SplineSet
659.153 1076 m 0
 669.261 1128 715.396 1175 781.396 1175 c 0
 847.396 1175 876.261 1128 866.153 1076 c 0
 856.045 1024 808.909 977 742.909 977 c 0
 676.909 977 649.045 1024 659.153 1076 c 0
580.542 1078 m 0
 563.048 988 615.108 906 729.108 906 c 0
 843.108 906 928.048 988 945.542 1078 c 0
 962.647 1166 911.809 1244 794.809 1244 c 0
 678.809 1244 597.647 1166 580.542 1078 c 0
721.105 88 m 1
 713 0 l 1
 1038 0 l 1
 1065.41 141 l 1
 918.407 141 l 1
 1001.21 567 l 2
 1040.48 769 873.139 865 675.139 865 c 0
 554.139 865 421.142 829 317.729 760 c 1
 376.626 636 l 1
 478.316 691 574.565 718 649.565 718 c 0
 757.565 718 823.68 662 802.881 555 c 2
 789.274 485 l 1
 723.802 498 664.356 506 601.356 506 c 0
 389.356 506 215.973 432 177.291 233 c 0
 151.438 100 241.307 -19 418.307 -19 c 0
 518.307 -19 601.555 8 721.105 88 c 1
485.576 111 m 0
 395.576 111 351.656 168 365.457 239 c 0
 388.199 356 486.836 385 589.836 385 c 0
 654.836 385 716.31 372 766.532 368 c 1
 733.293 197 l 1
 654.407 141 564.576 111 485.576 111 c 0
718.029 849 m 0
718.029 849 m 0
945.943 10 m 0
EndSplineSet
EndChar

StartChar: asciicircum
Encoding: 94 94 131
Width: 933
VWidth: 0
Flags: HW
LayerCount: 2
Fore
SplineSet
793.671 1233 m 1
 619.671 1233 l 1
 191.685 590 l 1
 372.685 590 l 1
 675.959 1075 l 1
 788.685 590 l 1
 969.685 590 l 1
 793.671 1233 l 1
EndSplineSet
EndChar

StartChar: asciitilde
Encoding: 126 126 132
Width: 1220
VWidth: 0
Flags: HW
LayerCount: 2
Fore
SplineSet
250.052 489 m 1
 336.242 562 405.045 597 486.045 597 c 0
 639.045 597 763.609 461 929.609 461 c 0
 1025.61 461 1115.75 508 1199.3 588 c 1
 1200.09 731 l 1
 1122.46 666 1047.46 630 969.46 630 c 0
 832.46 630 706.146 757 533.146 757 c 0
 431.146 757 340.787 714 253.877 627 c 1
 250.052 489 l 1
EndSplineSet
EndChar

StartChar: asterisk
Encoding: 42 42 133
Width: 931
VWidth: 0
Flags: HW
LayerCount: 2
Fore
SplineSet
617.09 1194 m 1
 600.78 822 l 1
 294.825 992 l 1
 216.308 835 l 1
 565.673 770 l 1
 256.773 503 l 1
 372.113 407 l 1
 608.842 740 l 1
 717.113 407 l 1
 868.773 503 l 1
 664.673 770 l 1
 1039.31 835 l 1
 1022.83 992 l 1
 649.78 822 l 1
 778.09 1194 l 1
 617.09 1194 l 1
EndSplineSet
EndChar

StartChar: at
Encoding: 64 64 134
Width: 1481
VWidth: 0
Flags: HW
LayerCount: 2
Fore
SplineSet
1108.47 841 m 1
 1083 926 1018.19 963 938.188 963 c 0
 693.188 963 526.063 736 486.41 532 c 0
 446.368 326 556.403 213 694.403 213 c 0
 771.403 213 853.623 245 929.368 326 c 1
 924.04 242 958.403 213 1008.4 213 c 0
 1257.4 213 1459.86 452 1508.26 701 c 0
 1558.99 962 1437.67 1233 1027.67 1233 c 0
 587.671 1233 278.388 892 213.464 558 c 0
 152.234 243 311.171 -66 785.171 -66 c 0
 970.171 -66 1123.08 -15 1256.58 75 c 1
 1199.68 163 l 1
 1086.72 86 954.524 49 807.524 49 c 0
 451.524 49 293.983 252 353.075 556 c 0
 416.638 883 688.929 1116 999.929 1116 c 0
 1297.93 1116 1417.86 915 1376.07 700 c 0
 1329.8 462 1139.12 335 1073.12 335 c 0
 1052.12 335 1059.86 380 1097.75 472 c 2
 1292.08 947 l 1
 1149.08 947 l 1
 1108.47 841 l 1
1033.85 668 m 0
 1003.13 510 868.562 327 746.562 327 c 0
 638.562 327 606.223 423 627.021 530 c 0
 655.401 676 764.251 845 902.251 845 c 0
 1003.25 845 1054.84 776 1033.85 668 c 0
EndSplineSet
EndChar

StartChar: atilde
Encoding: 227 227 135
Width: 1129
VWidth: 0
Flags: HW
LayerCount: 2
Fore
SplineSet
558.132 973 m 1
 571.713 1012 588.795 1033 623.795 1033 c 0
 692.795 1033 765.383 964 866.383 964 c 0
 964.383 964 1040.13 1045 1074.79 1177 c 1
 968.785 1177 l 1
 952.816 1136 931.734 1115 900.734 1115 c 0
 829.734 1115 748.758 1182 654.758 1182 c 0
 573.758 1182 489.706 1120 450.132 973 c 1
 558.132 973 l 1
721.105 88 m 1
 713 0 l 1
 1038 0 l 1
 1065.41 141 l 1
 918.407 141 l 1
 1001.21 567 l 2
 1040.48 769 873.139 865 675.139 865 c 0
 554.139 865 421.142 829 317.729 760 c 1
 376.626 636 l 1
 478.316 691 574.565 718 649.565 718 c 0
 757.565 718 823.68 662 802.881 555 c 2
 789.274 485 l 1
 723.802 498 664.356 506 601.356 506 c 0
 389.356 506 215.973 432 177.291 233 c 0
 151.438 100 241.307 -19 418.307 -19 c 0
 518.307 -19 601.555 8 721.105 88 c 1
485.576 111 m 0
 395.576 111 351.656 168 365.457 239 c 0
 388.199 356 486.836 385 589.836 385 c 0
 654.836 385 716.31 372 766.532 368 c 1
 733.293 197 l 1
 654.407 141 564.576 111 485.576 111 c 0
718.029 849 m 0
718.029 849 m 0
945.943 10 m 0
EndSplineSet
EndChar

StartChar: b
Encoding: 98 98 136
Width: 1266
VWidth: 0
Flags: HW
PickledData: "(dp1
S'com.typemytype.robofont.layerData'
p2
(dp3
s."
LayerCount: 2
Fore
SplineSet
345.172 1215 m 1
 317.959 1075 l 1
 464.959 1075 l 1
 283.407 141 l 1
 159.407 141 l 1
 132 0 l 1
 453 0 l 1
 474.216 104 l 1
 523.471 23 624.307 -19 734.307 -19 c 0
 962.307 -19 1173.91 159 1227.17 433 c 0
 1274.6 677 1152.33 866 907.333 866 c 0
 789.333 866 701.336 830 600.785 750 c 1
 691.172 1215 l 1
 345.172 1215 l 1
1017.45 419 m 0
 985.178 253 880.63 137 721.63 137 c 0
 597.63 137 521.318 228 504.178 253 c 1
 569.102 587 l 1
 594.155 613 706.01 710 831.01 710 c 0
 990.01 710 1049.91 586 1017.45 419 c 0
EndSplineSet
EndChar

StartChar: backslash
Encoding: 92 92 137
Width: 773
VWidth: 0
Flags: HW
LayerCount: 2
Fore
SplineSet
427.922 1224 m 1
 256.922 1224 l 1
 579.307 -19 l 1
 750.307 -19 l 1
 427.922 1224 l 1
EndSplineSet
EndChar

StartChar: bar
Encoding: 124 124 138
Width: 506
VWidth: 0
Flags: HW
LayerCount: 2
Fore
SplineSet
126.211 -251 m 1
 286.211 -251 l 1
 573.505 1227 l 1
 413.505 1227 l 1
 126.211 -251 l 1
EndSplineSet
EndChar

StartChar: braceleft
Encoding: 123 123 139
Width: 656
VWidth: 0
Flags: HW
LayerCount: 2
Fore
SplineSet
133.219 495 m 1
 277.219 495 277.003 391 242.209 212 c 0
 195.169 -30 164.901 -196 429.901 -196 c 2
 510.901 -196 l 1
 536.754 -63 l 1
 352.754 -63 358.808 -37 401.183 181 c 0
 446.279 413 434.162 505 331.02 566 c 1
 476.432 635 509.509 728 566.852 1023 c 0
 595.813 1172 632.284 1195 781.284 1195 c 1
 807.137 1328 l 1
 725.137 1328 l 2
 458.137 1328 425.12 1153 378.08 911 c 0
 344.842 740 299.015 638 161.015 638 c 1
 133.219 495 l 1
EndSplineSet
EndChar

StartChar: braceright
Encoding: 125 125 140
Width: 657
VWidth: 0
Flags: HW
LayerCount: 2
Fore
SplineSet
744.015 638 m 1
 605.015 638 601.23 742 635.053 916 c 0
 681.703 1156 714.137 1328 449.137 1328 c 2
 366.137 1328 l 1
 340.284 1195 l 1
 490.284 1195 517.813 1172 488.852 1023 c 0
 431.509 728 428.432 635 547.02 566 c 1
 417.968 504 371.891 411 325.822 174 c 0
 284.613 -38 278.754 -63 95.7539 -63 c 1
 69.9014 -196 l 1
 151.901 -196 l 2
 416.901 -196 451.169 -30 498.209 212 c 0
 533.003 391 573.219 495 716.219 495 c 1
 744.015 638 l 1
EndSplineSet
EndChar

StartChar: bracketleft
Encoding: 91 91 141
Width: 688
VWidth: 0
Flags: HW
LayerCount: 2
Fore
SplineSet
421.475 1268 m 1
 156.534 -95 l 1
 564.534 -95 l 1
 593.496 54 l 1
 398.496 54 l 1
 605.512 1119 l 1
 800.512 1119 l 1
 829.475 1268 l 1
 421.475 1268 l 1
EndSplineSet
EndChar

StartChar: bracketright
Encoding: 93 93 142
Width: 687
VWidth: 0
Flags: HW
LayerCount: 2
Fore
SplineSet
351.475 1268 m 1
 322.512 1119 l 1
 518.512 1119 l 1
 311.496 54 l 1
 115.496 54 l 1
 86.5342 -95 l 1
 495.534 -95 l 1
 760.475 1268 l 1
 351.475 1268 l 1
EndSplineSet
EndChar

StartChar: breve
Encoding: 728 728 143
Width: 575
VWidth: 0
Flags: HW
LayerCount: 2
Fore
SplineSet
257.062 1199 m 1
 240.071 1055 328.605 960 473.605 960 c 0
 621.605 960 743.266 1056 785.062 1199 c 1
 652.062 1199 l 1
 627.289 1123 567.736 1079 496.736 1079 c 0
 420.736 1079 384.289 1123 386.062 1199 c 1
 257.062 1199 l 1
453.029 849 m 0
EndSplineSet
EndChar

StartChar: brokenbar
Encoding: 166 166 144
Width: 467
VWidth: 0
Flags: HW
LayerCount: 2
Fore
SplineSet
305.234 670 m 1
 427.234 670 l 1
 533.172 1215 l 1
 411.172 1215 l 1
 305.234 670 l 1
132.042 -221 m 1
 254.042 -221 l 1
 359.979 324 l 1
 237.979 324 l 1
 132.042 -221 l 1
EndSplineSet
EndChar

StartChar: bullet
Encoding: 8226 8226 145
Width: 559
VWidth: 0
Flags: HW
LayerCount: 2
Fore
SplineSet
426.562 754 m 0
 314.562 754 210.234 670 189.242 562 c 0
 168.443 455 239.532 368 351.532 368 c 0
 462.532 368 569.443 455 590.242 562 c 0
 611.234 670 537.562 754 426.562 754 c 0
EndSplineSet
EndChar

StartChar: c
Encoding: 99 99 146
Width: 1065
VWidth: 0
Flags: HW
PickledData: "(dp1
S'com.typemytype.robofont.layerData'
p2
(dp3
s."
LayerCount: 2
Fore
SplineSet
568.307 -19 m 0
 752.307 -19 896.302 53 1002.74 189 c 1
 886.26 274 l 1
 811.766 184 705.63 137 601.63 137 c 0
 443.63 137 375.789 251 410.194 428 c 0
 443.434 599 555.204 711 713.204 711 c 0
 839.204 711 888.82 637 895.993 535 c 1
 1052.99 535 l 1
 1114.03 849 l 1
 951.029 849 l 1
 936.479 769 l 1
 899.392 820 823.333 866 719.333 866 c 0
 467.333 866 251.624 672 203.223 423 c 0
 160.07 201 263.307 -19 568.307 -19 c 0
709.029 849 m 0
544 0 m 0
EndSplineSet
EndChar

StartChar: cacute
Encoding: 263 263 147
Width: 1097
VWidth: 0
Flags: HW
LayerCount: 2
Fore
SplineSet
568.307 -19 m 0
 752.307 -19 896.302 53 1002.74 189 c 1
 886.26 274 l 1
 811.766 184 705.63 137 601.63 137 c 0
 443.63 137 375.789 251 410.194 428 c 0
 443.434 599 555.204 711 713.204 711 c 0
 839.204 711 888.82 637 895.993 535 c 1
 1052.99 535 l 1
 1114.03 849 l 1
 951.029 849 l 1
 936.479 769 l 1
 899.392 820 823.333 866 719.333 866 c 0
 467.333 866 251.624 672 203.223 423 c 0
 160.07 201 263.307 -19 568.307 -19 c 0
814.16 968 m 1
 1089.64 1274 l 1
 831.641 1274 l 1
 648.16 968 l 1
 814.16 968 l 1
709.029 849 m 0
544 0 m 0
817.584 857 m 0
EndSplineSet
EndChar

StartChar: caron
Encoding: 711 711 148
Width: 586
VWidth: 0
Flags: HW
LayerCount: 2
Fore
SplineSet
261.619 1171 m 1
 373.274 912 l 1
 569.274 912 l 1
 778.619 1171 l 1
 674.619 1171 l 1
 492.685 1017 l 1
 368.619 1171 l 1
 261.619 1171 l 1
457.029 849 m 0
EndSplineSet
EndChar

StartChar: caron.cap
Encoding: 65540 -1 149
Width: 586
VWidth: 0
Flags: HW
LayerCount: 2
Fore
SplineSet
261.619 1171 m 1
 373.274 912 l 1
 569.274 912 l 1
 778.619 1171 l 1
 674.619 1171 l 1
 492.685 1017 l 1
 368.619 1171 l 1
 261.619 1171 l 1
457.029 849 m 0
EndSplineSet
EndChar

StartChar: ccaron
Encoding: 269 269 150
Width: 1097
VWidth: 0
Flags: HW
LayerCount: 2
Fore
SplineSet
513.619 1171 m 1
 625.274 912 l 1
 821.274 912 l 1
 1030.62 1171 l 1
 926.619 1171 l 1
 744.685 1017 l 1
 620.619 1171 l 1
 513.619 1171 l 1
568.307 -19 m 0
 752.307 -19 896.302 53 1002.74 189 c 1
 886.26 274 l 1
 811.766 184 705.63 137 601.63 137 c 0
 443.63 137 375.789 251 410.194 428 c 0
 443.434 599 555.204 711 713.204 711 c 0
 839.204 711 888.82 637 895.993 535 c 1
 1052.99 535 l 1
 1114.03 849 l 1
 951.029 849 l 1
 936.479 769 l 1
 899.392 820 823.333 866 719.333 866 c 0
 467.333 866 251.624 672 203.223 423 c 0
 160.07 201 263.307 -19 568.307 -19 c 0
709.029 849 m 0
709.029 849 m 0
544 0 m 0
EndSplineSet
EndChar

StartChar: ccedilla
Encoding: 231 231 151
Width: 958
VWidth: 0
Flags: HW
LayerCount: 2
Fore
SplineSet
265.412 -358 m 1
 279.829 -361 321.635 -362 334.635 -362 c 0
 485.635 -362 564.853 -294 580.985 -211 c 0
 593.037 -149 560.007 -108 494.729 -94 c 0
 491.923 -93 489.117 -92 486.117 -92 c 1
 521.972 5 l 1
 449.972 5 l 1
 379.482 -157 l 1
 435.705 -161 463.817 -181 457.014 -216 c 0
 448.072 -262 395.156 -277 327.156 -277 c 0
 312.156 -277 297.351 -276 280.935 -273 c 1
 265.412 -358 l 1
501.307 -19 m 0
 685.307 -19 829.302 53 935.738 189 c 1
 819.26 274 l 1
 744.766 184 638.63 137 534.63 137 c 0
 376.63 137 308.789 251 343.194 428 c 0
 376.434 599 488.204 711 646.204 711 c 0
 772.204 711 821.82 637 828.993 535 c 1
 985.993 535 l 1
 1047.03 849 l 1
 884.029 849 l 1
 869.479 769 l 1
 832.392 820 756.333 866 652.333 866 c 0
 400.333 866 184.624 672 136.223 423 c 0
 93.0703 201 196.307 -19 501.307 -19 c 0
477 0 m 0
642.029 849 m 0
477 0 m 0
EndSplineSet
EndChar

StartChar: ccircumflex
Encoding: 265 265 152
Width: 1097
VWidth: 0
Flags: HW
LayerCount: 2
Fore
SplineSet
628.16 968 m 1
 778.144 1220 l 1
 830.16 968 l 1
 1010.16 968 l 1
 934.111 1297 l 1
 651.111 1297 l 1
 453.16 968 l 1
 628.16 968 l 1
568.307 -19 m 0
 752.307 -19 896.302 53 1002.74 189 c 1
 886.26 274 l 1
 811.766 184 705.63 137 601.63 137 c 0
 443.63 137 375.789 251 410.194 428 c 0
 443.434 599 555.204 711 713.204 711 c 0
 839.204 711 888.82 637 895.993 535 c 1
 1052.99 535 l 1
 1114.03 849 l 1
 951.029 849 l 1
 936.479 769 l 1
 899.392 820 823.333 866 719.333 866 c 0
 467.333 866 251.624 672 203.223 423 c 0
 160.07 201 263.307 -19 568.307 -19 c 0
709.029 849 m 0
544 0 m 0
709.778 858 m 0
EndSplineSet
EndChar

StartChar: cdotaccent
Encoding: 267 267 153
Width: 1097
VWidth: 0
Flags: HW
LayerCount: 2
Fore
SplineSet
687.172 1215 m 1
 651.212 1030 l 1
 838.212 1030 l 1
 874.172 1215 l 1
 687.172 1215 l 1
568.307 -19 m 0
 752.307 -19 896.302 53 1002.74 189 c 1
 886.26 274 l 1
 811.766 184 705.63 137 601.63 137 c 0
 443.63 137 375.789 251 410.194 428 c 0
 443.434 599 555.204 711 713.204 711 c 0
 839.204 711 888.82 637 895.993 535 c 1
 1052.99 535 l 1
 1114.03 849 l 1
 951.029 849 l 1
 936.479 769 l 1
 899.392 820 823.333 866 719.333 866 c 0
 467.333 866 251.624 672 203.223 423 c 0
 160.07 201 263.307 -19 568.307 -19 c 0
709.029 849 m 0
709.029 849 m 0
544 0 m 0
EndSplineSet
EndChar

StartChar: cedilla
Encoding: 184 184 154
Width: 456
VWidth: 0
Flags: HW
LayerCount: 2
Fore
SplineSet
16.4121 -358 m 1
 30.8291 -361 72.6348 -362 85.6348 -362 c 0
 236.635 -362 315.853 -294 331.985 -211 c 0
 344.037 -149 311.007 -108 245.729 -94 c 0
 242.923 -93 240.117 -92 237.117 -92 c 1
 272.972 5 l 1
 200.972 5 l 1
 130.482 -157 l 1
 186.705 -161 214.817 -181 208.014 -216 c 0
 199.072 -262 146.156 -277 78.1562 -277 c 0
 63.1562 -277 48.3506 -276 31.9346 -273 c 1
 16.4121 -358 l 1
228 0 m 0
EndSplineSet
EndChar

StartChar: cent
Encoding: 162 162 155
Width: 969
VWidth: 0
Flags: HW
LayerCount: 2
Fore
SplineSet
506.307 -19 m 0
 690.307 -19 834.302 53 940.738 189 c 1
 824.26 274 l 1
 749.766 184 643.63 137 539.63 137 c 0
 511.63 137 487.213 140 464.574 147 c 1
 750.928 689 l 1
 804.291 660 829.405 604 833.993 535 c 1
 990.993 535 l 1
 1052.03 849 l 1
 889.029 849 l 1
 874.479 769 l 1
 860.978 787 842.477 805 819.392 820 c 1
 1021.84 1203 l 1
 947.505 1227 l 1
 750.612 852 l 1
 722.361 861 691.333 866 657.333 866 c 0
 405.333 866 189.624 672 141.223 423 c 0
 108.956 257 158.077 93 311.888 20 c 1
 137.354 -312 l 1
 210.883 -335 l 1
 384.028 -5 l 1
 420.278 -14 461.307 -19 506.307 -19 c 0
348.194 428 m 0
 381.434 599 493.204 711 651.204 711 c 0
 659.204 711 667.01 710 675.01 710 c 1
 398.766 184 l 1
 344.291 233 326.812 318 348.194 428 c 0
EndSplineSet
EndChar

StartChar: circumflex
Encoding: 710 710 156
Width: 618
VWidth: 0
Flags: HW
LayerCount: 2
Fore
SplineSet
392.411 959 m 1
 542.395 1211 l 1
 594.411 959 l 1
 774.411 959 l 1
 698.361 1288 l 1
 415.362 1288 l 1
 217.411 959 l 1
 392.411 959 l 1
474.029 849 m 0
EndSplineSet
EndChar

StartChar: circumflex.cap
Encoding: 65541 -1 157
Width: 602
VWidth: 0
Flags: HW
LayerCount: 2
Fore
SplineSet
380.165 896 m 1
 517.872 1126 l 1
 566.165 896 l 1
 714.165 896 l 1
 663.619 1171 l 1
 388.619 1171 l 1
 237.165 896 l 1
 380.165 896 l 1
466.029 849 m 0
EndSplineSet
EndChar

StartChar: colon
Encoding: 58 58 158
Width: 560
VWidth: 0
Flags: HW
LayerCount: 2
Fore
SplineSet
322.333 866 m 1
 274.71 621 l 1
 528.71 621 l 1
 576.333 866 l 1
 322.333 866 l 1
216.785 323 m 1
 169.551 80 l 1
 423.551 80 l 1
 470.785 323 l 1
 216.785 323 l 1
EndSplineSet
EndChar

StartChar: comma
Encoding: 44 44 159
Width: 522
VWidth: 0
Flags: HW
LayerCount: 2
Fore
SplineSet
199.874 236 m 1
 191.127 191 163.747 45 156.194 1 c 1
 284.194 1 l 1
 262.812 -109 218.648 -151 119.149 -169 c 1
 99.3232 -271 l 1
 295.518 -270 375.566 -172 413.082 21 c 0
 421.829 66 446.042 206 449.04 242 c 1
 392.04 242 249.846 241 199.874 236 c 1
EndSplineSet
EndChar

StartChar: commaaccent
Encoding: 65542 -1 160
Width: 352
VWidth: 0
Flags: HW
LayerCount: 2
Fore
SplineSet
22.0088 -144 m 1
 -24.8359 -385 l 1
 103.164 -385 l 1
 81.7822 -495 37.8125 -536 -61.8809 -555 c 1
 -81.708 -657 l 1
 114.681 -655 194.73 -557 232.051 -365 c 0
 240.798 -320 268.009 -144 268.009 -144 c 1
 22.0088 -144 l 1
174 0 m 0
EndSplineSet
EndChar

StartChar: copyright
Encoding: 169 169 161
Width: 1538
VWidth: 0
Flags: HW
LayerCount: 2
Fore
SplineSet
826.176 289 m 0
 962.176 289 1069.28 341 1146.72 441 c 1
 1060.16 505 l 1
 1005.94 437 928.529 404 851.529 404 c 0
 735.529 404 684.663 487 709.933 617 c 0
 734.425 743 816.363 825 933.363 825 c 0
 1026.36 825 1061.67 770 1068.29 696 c 1
 1183.29 696 l 1
 1228 926 l 1
 1108 926 l 1
 1097.72 868 l 1
 1070.91 905 1014.52 939 938.523 939 c 0
 752.523 939 593.921 797 558.35 614 c 0
 526.666 451 602.176 289 826.176 289 c 0
787.604 106 m 0
 462.604 106 350.811 354 399.211 603 c 0
 448.001 854 660.567 1109 982.567 1109 c 0
 1305.57 1109 1421 854 1372.21 603 c 0
 1323.81 354 1113.6 106 787.604 106 c 0
763.307 -19 m 0
 1195.31 -19 1471.95 293 1532.79 606 c 0
 1593.64 919 1436.67 1233 1006.67 1233 c 0
 577.671 1233 301.636 919 240.795 606 c 0
 179.953 293 332.307 -19 763.307 -19 c 0
EndSplineSet
EndChar

StartChar: currency
Encoding: 164 164 162
Width: 1010
VWidth: 0
Flags: HW
LayerCount: 2
Fore
SplineSet
457.477 805 m 0
 478.469 913 575.547 1006 699.547 1006 c 0
 821.547 1006 883.469 913 862.281 804 c 0
 840.9 694 743.628 600 620.628 600 c 0
 498.628 600 435.9 694 457.477 805 c 0
354.822 601 m 1
 256.884 519 l 1
 312.666 451 l 1
 417.576 538 l 1
 466.162 505 524.469 486 598.469 486 c 0
 671.469 486 737.968 504 800.771 539 c 1
 873.666 451 l 1
 955.884 519 l 1
 887.211 603 l 1
 945.097 659 985.12 726 1000.67 806 c 0
 1015.44 882 1004.47 949 967.353 1005 c 1
 1066.49 1088 l 1
 1010.9 1157 l 1
 905.793 1069 l 1
 857.596 1104 796.483 1124 722.483 1124 c 0
 648.483 1124 580.596 1104 519.182 1071 c 1
 449.898 1157 l 1
 367.485 1088 l 1
 431.741 1007 l 1
 372.855 951 334.832 884 319.671 806 c 0
 304.12 726 318.708 657 354.822 601 c 1
EndSplineSet
EndChar

StartChar: d
Encoding: 100 100 163
Width: 1233
VWidth: 0
Flags: HW
PickledData: "(dp1
S'com.typemytype.robofont.layerData'
p2
(dp3
s."
LayerCount: 2
Fore
SplineSet
875.172 1215 m 1
 847.959 1075 l 1
 1005.96 1075 l 1
 943.368 753 l 1
 874.142 829 802.333 866 687.333 866 c 0
 441.333 866 243.624 672 196.194 428 c 0
 139.63 137 301.307 -19 514.307 -19 c 0
 623.307 -19 722.305 17 814.049 98 c 1
 795 0 l 1
 1140 0 l 1
 1167.41 141 l 1
 1021.41 141 l 1
 1230.17 1215 l 1
 875.172 1215 l 1
399.445 419 m 0
 432.296 588 538.204 711 697.204 711 c 0
 821.204 711 892.155 613 910.296 588 c 1
 844.595 250 l 1
 815.93 226 711.63 137 587.63 137 c 0
 427.63 137 367.762 256 399.445 419 c 0
682.611 425 m 0
EndSplineSet
EndChar

StartChar: dagger
Encoding: 8224 8224 164
Width: 833
VWidth: 0
Flags: HW
LayerCount: 2
Fore
SplineSet
896.565 718 m 1
 934.469 913 l 1
 626.916 869 l 1
 762.06 1235 l 1
 550.06 1235 l 1
 538.916 869 l 1
 249.469 913 l 1
 211.565 718 l 1
 518.701 765 l 1
 404.963 576 l 1
 406.975 396 399.74 153 325.876 -227 c 1
 413.876 -227 l 1
 488.518 157 576.558 399 650.963 576 c 1
 606.701 765 l 1
 896.565 718 l 1
EndSplineSet
EndChar

StartChar: daggerdbl
Encoding: 8225 8225 165
Width: 784
VWidth: 0
Flags: HW
LayerCount: 2
Fore
SplineSet
209.003 818 m 1
 496.139 865 l 1
 438.745 508 l 1
 355.407 141 l 1
 86.7383 189 l 1
 48.834 -6 l 1
 355.192 37 l 1
 242.876 -227 l 1
 455.876 -227 l 1
 443.192 37 l 1
 732.834 -6 l 1
 770.738 189 l 1
 483.407 141 l 1
 541.356 506 l 1
 624.139 865 l 1
 893.003 818 l 1
 930.713 1012 l 1
 624.354 969 l 1
 739.671 1233 l 1
 526.671 1233 l 1
 536.354 969 l 1
 246.713 1012 l 1
 209.003 818 l 1
EndSplineSet
EndChar

StartChar: dcaron
Encoding: 271 271 166
Width: 1086
VWidth: 0
Flags: HW
LayerCount: 2
Fore
SplineSet
818.172 1215 m 1
 790.959 1075 l 1
 948.959 1075 l 1
 886.368 753 l 1
 817.142 829 745.333 866 630.333 866 c 0
 384.333 866 186.624 672 139.194 428 c 0
 82.6299 137 244.307 -19 457.307 -19 c 0
 566.307 -19 665.305 17 757.049 98 c 1
 738 0 l 1
 1083 0 l 1
 1110.41 141 l 1
 964.407 141 l 1
 1173.17 1215 l 1
 818.172 1215 l 1
342.445 419 m 0
 375.296 588 481.204 711 640.204 711 c 0
 764.204 711 835.155 613 853.296 588 c 1
 787.595 250 l 1
 758.93 226 654.63 137 530.63 137 c 0
 370.63 137 310.762 256 342.445 419 c 0
1492.01 1209 m 1
 1483.26 1164 1455.88 1018 1448.33 974 c 1
 1576.33 974 l 1
 1554.94 864 1510.78 822 1411.28 804 c 1
 1391.46 702 l 1
 1587.65 703 1667.7 801 1705.21 994 c 0
 1713.96 1039 1738.17 1179 1741.17 1215 c 1
 1684.17 1215 1541.98 1214 1492.01 1209 c 1
625.611 425 m 0
EndSplineSet
EndChar

StartChar: dcroat
Encoding: 273 273 167
Width: 1227
VWidth: 0
Flags: HW
LayerCount: 2
Fore
SplineSet
361.445 419 m 0
 394.296 588 509.204 711 668.204 711 c 0
 792.204 711 863.155 613 881.296 588 c 1
 815.595 250 l 1
 786.93 226 682.63 137 558.63 137 c 0
 398.63 137 329.762 256 361.445 419 c 0
846.172 1215 m 1
 818.959 1075 l 1
 976.959 1075 l 1
 965.879 1018 l 1
 728.879 1018 l 1
 710.219 922 l 1
 947.219 922 l 1
 914.368 753 l 1
 845.142 829 764.333 866 649.333 866 c 0
 403.333 866 205.624 672 158.194 428 c 0
 101.63 137 263.307 -19 476.307 -19 c 0
 585.307 -19 693.305 17 785.049 98 c 1
 766 0 l 1
 1111 0 l 1
 1138.41 141 l 1
 992.407 141 l 1
 1144.22 922 l 1
 1289.22 922 l 1
 1307.88 1018 l 1
 1162.88 1018 l 1
 1201.17 1215 l 1
 846.172 1215 l 1
EndSplineSet
EndChar

StartChar: degree
Encoding: 176 176 168
Width: 653
VWidth: 0
Flags: HW
LayerCount: 2
Fore
SplineSet
543.346 1113 m 0
 651.346 1113 692.823 1028 676.689 945 c 0
 659.39 856 583.033 777 478.033 777 c 0
 371.033 777 327.778 858 344.689 945 c 0
 361.601 1032 437.346 1113 543.346 1113 c 0
460.733 688 m 0
 627.733 688 747.643 811 773.495 944 c 0
 799.153 1076 726.062 1199 560.062 1199 c 0
 394.062 1199 273.153 1076 247.495 944 c 0
 221.643 811 293.733 688 460.733 688 c 0
EndSplineSet
EndChar

StartChar: dieresis
Encoding: 168 168 169
Width: 661
VWidth: 0
Flags: HW
LayerCount: 2
Fore
SplineSet
658.172 1215 m 1
 622.212 1030 l 1
 809.212 1030 l 1
 845.172 1215 l 1
 658.172 1215 l 1
293.172 1215 m 1
 257.212 1030 l 1
 444.212 1030 l 1
 480.172 1215 l 1
 293.172 1215 l 1
498.029 849 m 0
EndSplineSet
EndChar

StartChar: dieresis.cap
Encoding: 65543 -1 170
Width: 586
VWidth: 0
Flags: HW
LayerCount: 2
Fore
SplineSet
225.029 849 m 0
618.172 1215 m 1
 582.212 1030 l 1
 769.212 1030 l 1
 805.172 1215 l 1
 618.172 1215 l 1
253.172 1215 m 1
 217.212 1030 l 1
 404.212 1030 l 1
 440.172 1215 l 1
 253.172 1215 l 1
458.029 849 m 0
EndSplineSet
EndChar

StartChar: divide
Encoding: 247 247 171
Width: 895
VWidth: 0
Flags: HW
LayerCount: 2
Fore
SplineSet
965.219 495 m 1
 988.155 613 l 1
 145.155 613 l 1
 122.218 495 l 1
 965.219 495 l 1
426.979 324 m 1
 394.323 156 l 1
 561.323 156 l 1
 593.979 324 l 1
 426.979 324 l 1
548.272 948 m 1
 515.616 780 l 1
 682.616 780 l 1
 715.272 948 l 1
 548.272 948 l 1
EndSplineSet
EndChar

StartChar: dollar
Encoding: 36 36 172
Width: 1034
VWidth: 0
Flags: HW
LayerCount: 2
Fore
SplineSet
573.501 -18 m 1
 776.473 -13 974.742 117 1016.53 332 c 0
 1063.96 576 888.291 660 715.398 712 c 1
 783.626 1063 l 1
 845.905 1049 892.324 1010 915.633 955 c 1
 897.944 864 l 1
 1056.94 864 l 1
 1125.17 1215 l 1
 960.172 1215 l 1
 945.205 1138 l 1
 912.396 1175 861.646 1202 813.755 1218 c 1
 842.718 1367 l 1
 709.718 1367 l 1
 683.477 1232 l 1
 481.533 1222 312.762 1110 272.331 902 c 0
 228.207 675 386.017 602 550.326 547 c 1
 473.546 152 l 1
 407.822 174 364.152 222 333.73 297 c 1
 355.113 407 l 1
 184.113 407 l 1
 105 0 l 1
 277 0 l 1
 294.3 89 l 1
 334.553 44 383.527 13 443.417 -3 c 1
 417.953 -134 l 1
 550.953 -134 l 1
 573.501 -18 l 1
472.607 924 m 0
 486.603 996 551.294 1051 651.209 1066 c 1
 590.562 754 l 1
 510.172 788 454.919 833 472.607 924 c 0
804.979 324 m 0
 787.097 232 709.101 160 605.186 145 c 1
 675.356 506 l 1
 766.164 469 823.834 421 804.979 324 c 0
EndSplineSet
EndChar

StartChar: dotaccent
Encoding: 729 729 173
Width: 219
VWidth: 0
Flags: HW
LayerCount: 2
Fore
SplineSet
252.172 1215 m 1
 216.212 1030 l 1
 403.212 1030 l 1
 439.172 1215 l 1
 252.172 1215 l 1
274.029 849 m 0
EndSplineSet
EndChar

StartChar: dotaccentcmb.cap
Encoding: 65544 -1 174
Width: 534
VWidth: 0
Flags: HW
LayerCount: 2
Fore
SplineSet
411.172 1215 m 1
 375.212 1030 l 1
 562.212 1030 l 1
 598.172 1215 l 1
 411.172 1215 l 1
EndSplineSet
EndChar

StartChar: dotlessi
Encoding: 305 305 175
Width: 741
VWidth: 0
Flags: HW
LayerCount: 2
Fore
SplineSet
449.815 709 m 1
 339.213 140 l 1
 202.213 140 l 1
 175 0 l 1
 645 0 l 1
 672.213 140 l 1
 535.213 140 l 1
 673.029 849 l 1
 340.029 849 l 1
 312.815 709 l 1
 449.815 709 l 1
559.029 849 m 0
623.943 10 m 0
EndSplineSet
EndChar

StartChar: e
Encoding: 101 101 176
Width: 1129
VWidth: 0
Flags: HW
PickledData: "(dp1
S'com.typemytype.robofont.layerData'
p2
(dp3
s."
LayerCount: 2
Fore
SplineSet
402.447 383 m 1
 1088.45 383 l 1
 1141.32 655 1037.33 866 755.333 866 c 0
 487.333 866 253.179 680 202.64 420 c 0
 153.851 169 299.307 -19 592.307 -19 c 0
 765.307 -19 931.719 50 1008.08 129 c 1
 954.623 245 l 1
 834.295 161 724.658 132 630.658 132 c 0
 453.658 132 384.263 238 402.447 383 c 1
428.385 501 m 1
 476.237 634 576.148 721 726.148 721 c 0
 864.148 721 927.071 628 920.385 501 c 1
 428.385 501 l 1
732.029 849 m 0
567 0 m 0
970.943 10 m 0
EndSplineSet
EndChar

StartChar: eacute
Encoding: 233 233 177
Width: 1130
VWidth: 0
Flags: HW
LayerCount: 2
Fore
SplineSet
402.447 383 m 1
 1088.45 383 l 1
 1141.32 655 1037.33 866 755.333 866 c 0
 487.333 866 253.179 680 202.64 420 c 0
 153.851 169 299.307 -19 592.307 -19 c 0
 765.307 -19 931.719 50 1008.08 129 c 1
 954.623 245 l 1
 834.295 161 724.658 132 630.658 132 c 0
 453.658 132 384.263 238 402.447 383 c 1
428.385 501 m 1
 476.237 634 576.148 721 726.148 721 c 0
 864.148 721 927.071 628 920.385 501 c 1
 428.385 501 l 1
838.16 968 m 1
 1113.64 1274 l 1
 855.641 1274 l 1
 672.16 968 l 1
 838.16 968 l 1
732.029 849 m 0
567 0 m 0
970.943 10 m 0
841.584 857 m 0
EndSplineSet
EndChar

StartChar: ecaron
Encoding: 283 283 178
Width: 1130
VWidth: 0
Flags: HW
LayerCount: 2
Fore
SplineSet
402.447 383 m 1
 1088.45 383 l 1
 1141.32 655 1037.33 866 755.333 866 c 0
 487.333 866 253.179 680 202.64 420 c 0
 153.851 169 299.307 -19 592.307 -19 c 0
 765.307 -19 931.719 50 1008.08 129 c 1
 954.623 245 l 1
 834.295 161 724.658 132 630.658 132 c 0
 453.658 132 384.263 238 402.447 383 c 1
428.385 501 m 1
 476.237 634 576.148 721 726.148 721 c 0
 864.148 721 927.071 628 920.385 501 c 1
 428.385 501 l 1
547.505 1227 m 1
 659.16 968 l 1
 855.16 968 l 1
 1064.5 1227 l 1
 960.505 1227 l 1
 778.57 1073 l 1
 654.505 1227 l 1
 547.505 1227 l 1
732.029 849 m 0
567 0 m 0
970.943 10 m 0
742.914 905 m 0
EndSplineSet
EndChar

StartChar: ecircumflex
Encoding: 234 234 179
Width: 1130
VWidth: 0
Flags: HW
LayerCount: 2
Fore
SplineSet
402.447 383 m 1
 1088.45 383 l 1
 1141.32 655 1037.33 866 755.333 866 c 0
 487.333 866 253.179 680 202.64 420 c 0
 153.851 169 299.307 -19 592.307 -19 c 0
 765.307 -19 931.719 50 1008.08 129 c 1
 954.623 245 l 1
 834.295 161 724.658 132 630.658 132 c 0
 453.658 132 384.263 238 402.447 383 c 1
428.385 501 m 1
 476.237 634 576.148 721 726.148 721 c 0
 864.148 721 927.071 628 920.385 501 c 1
 428.385 501 l 1
652.16 968 m 1
 802.144 1220 l 1
 854.16 968 l 1
 1034.16 968 l 1
 958.111 1297 l 1
 675.111 1297 l 1
 477.16 968 l 1
 652.16 968 l 1
732.029 849 m 0
567 0 m 0
970.943 10 m 0
733.778 858 m 0
EndSplineSet
EndChar

StartChar: edieresis
Encoding: 235 235 180
Width: 1130
VWidth: 0
Flags: HW
LayerCount: 2
Fore
SplineSet
402.447 383 m 1
 1088.45 383 l 1
 1141.32 655 1037.33 866 755.333 866 c 0
 487.333 866 253.179 680 202.64 420 c 0
 153.851 169 299.307 -19 592.307 -19 c 0
 765.307 -19 931.719 50 1008.08 129 c 1
 954.623 245 l 1
 834.295 161 724.658 132 630.658 132 c 0
 453.658 132 384.263 238 402.447 383 c 1
428.385 501 m 1
 476.237 634 576.148 721 726.148 721 c 0
 864.148 721 927.071 628 920.385 501 c 1
 428.385 501 l 1
880.12 1153 m 1
 844.16 968 l 1
 1031.16 968 l 1
 1067.12 1153 l 1
 880.12 1153 l 1
515.12 1153 m 1
 479.16 968 l 1
 666.16 968 l 1
 702.12 1153 l 1
 515.12 1153 l 1
732.029 849 m 0
567 0 m 0
970.943 10 m 0
719.978 787 m 0
EndSplineSet
EndChar

StartChar: edotaccent
Encoding: 279 279 181
Width: 1130
VWidth: 0
Flags: HW
LayerCount: 2
Fore
SplineSet
710.172 1215 m 1
 674.212 1030 l 1
 861.212 1030 l 1
 897.172 1215 l 1
 710.172 1215 l 1
402.447 383 m 1
 1088.45 383 l 1
 1141.32 655 1037.33 866 755.333 866 c 0
 487.333 866 253.179 680 202.64 420 c 0
 153.851 169 299.307 -19 592.307 -19 c 0
 765.307 -19 931.719 50 1008.08 129 c 1
 954.623 245 l 1
 834.295 161 724.658 132 630.658 132 c 0
 453.658 132 384.263 238 402.447 383 c 1
428.385 501 m 1
 476.237 634 576.148 721 726.148 721 c 0
 864.148 721 927.071 628 920.385 501 c 1
 428.385 501 l 1
732.029 849 m 0
732.029 849 m 0
567 0 m 0
970.943 10 m 0
EndSplineSet
EndChar

StartChar: egrave
Encoding: 232 232 182
Width: 1130
VWidth: 0
Flags: HW
LayerCount: 2
Fore
SplineSet
838.16 968 m 1
 774.641 1274 l 1
 516.641 1274 l 1
 673.16 968 l 1
 838.16 968 l 1
402.447 383 m 1
 1088.45 383 l 1
 1141.32 655 1037.33 866 755.333 866 c 0
 487.333 866 253.179 680 202.64 420 c 0
 153.851 169 299.307 -19 592.307 -19 c 0
 765.307 -19 931.719 50 1008.08 129 c 1
 954.623 245 l 1
 834.295 161 724.658 132 630.658 132 c 0
 453.658 132 384.263 238 402.447 383 c 1
428.385 501 m 1
 476.237 634 576.148 721 726.148 721 c 0
 864.148 721 927.071 628 920.385 501 c 1
 428.385 501 l 1
732.029 849 m 0
567 0 m 0
970.943 10 m 0
625.584 857 m 0
EndSplineSet
EndChar

StartChar: eight
Encoding: 56 56 183
Width: 1109
VWidth: 0
Flags: HW
LayerCount: 2
Fore
SplineSet
1061.92 334 m 0
 1089.72 477 1034.91 586 888.237 634 c 1
 1041.87 699 1114.14 793 1138.25 917 c 0
 1175.18 1107 1043.67 1233 793.671 1233 c 0
 543.671 1233 362.984 1106 325.858 915 c 0
 301.949 792 340.289 696 466.849 632 c 1
 300.324 583 204.525 476 176.923 334 c 0
 138.241 135 255.307 -19 552.307 -19 c 0
 837.307 -19 1022.46 131 1061.92 334 c 0
650.853 560 m 1
 819.075 556 888.331 475 862.283 341 c 0
 838.181 217 727.27 130 581.27 130 c 0
 431.27 130 355.569 219 379.867 344 c 0
 404.941 473 501.881 555 650.853 560 c 1
764.902 1085 m 0
 908.902 1085 967.936 1008 946.554 898 c 0
 924.395 784 831.01 710 699.261 701 c 1
 558.815 709 490.2 783 512.554 898 c 0
 534.907 1013 626.902 1085 764.902 1085 c 0
EndSplineSet
EndChar

StartChar: ellipsis
Encoding: 8230 8230 184
Width: 1603
VWidth: 0
Flags: HW
LayerCount: 2
Fore
SplineSet
228.429 244 m 1
 216.07 201 184.496 54 175.166 6 c 1
 223.389 2 366.806 -1 420.806 -1 c 1
 432.97 41 465.738 189 475.263 238 c 1
 427.846 241 282.429 244 228.429 244 c 1
728.429 244 m 1
 716.07 201 684.496 54 675.166 6 c 1
 723.389 2 866.806 -1 920.806 -1 c 1
 933.97 41 965.738 189 975.263 238 c 1
 927.846 241 782.429 244 728.429 244 c 1
1228.43 244 m 1
 1216.07 201 1184.5 54 1175.17 6 c 1
 1223.39 2 1366.81 -1 1421.81 -1 c 1
 1433.97 41 1465.74 189 1475.26 238 c 1
 1427.85 241 1283.43 244 1228.43 244 c 1
EndSplineSet
EndChar

StartChar: emacron
Encoding: 275 275 185
Width: 1130
VWidth: 0
Flags: HW
LayerCount: 2
Fore
SplineSet
586.432 1062 m 1
 961.432 1062 l 1
 986.896 1193 l 1
 611.896 1193 l 1
 586.432 1062 l 1
402.447 383 m 1
 1088.45 383 l 1
 1141.32 655 1037.33 866 755.333 866 c 0
 487.333 866 253.179 680 202.64 420 c 0
 153.851 169 299.307 -19 592.307 -19 c 0
 765.307 -19 931.719 50 1008.08 129 c 1
 954.623 245 l 1
 834.295 161 724.658 132 630.658 132 c 0
 453.658 132 384.263 238 402.447 383 c 1
428.385 501 m 1
 476.237 634 576.148 721 726.148 721 c 0
 864.148 721 927.071 628 920.385 501 c 1
 428.385 501 l 1
732.029 849 m 0
732.029 849 m 0
567 0 m 0
970.943 10 m 0
EndSplineSet
EndChar

StartChar: emdash
Encoding: 8212 8212 186
Width: 2045
VWidth: 0
Flags: HW
LayerCount: 2
Fore
SplineSet
236.618 317 m 1
 212.516 193 l 1
 1907.52 193 l 1
 1931.62 317 l 1
 236.618 317 l 1
EndSplineSet
EndChar

StartChar: endash
Encoding: 8211 8211 187
Width: 1222
VWidth: 0
Flags: HW
LayerCount: 2
Fore
SplineSet
236.618 317 m 1
 212.516 193 l 1
 1085.52 193 l 1
 1109.62 317 l 1
 236.618 317 l 1
EndSplineSet
EndChar

StartChar: eogonek
Encoding: 281 281 188
Width: 1004
VWidth: 0
Flags: HW
LayerCount: 2
Fore
SplineSet
650 0 m 1
 587.033 -77 565.702 -125 555.595 -177 c 0
 535.379 -281 597.384 -353 701.384 -353 c 0
 748.384 -353 782.327 -343 842.576 -316 c 1
 862.597 -213 l 1
 827.682 -228 802.709 -233 771.709 -233 c 0
 706.709 -233 680.707 -197 694.508 -126 c 0
 702.866 -83 719.67 -48 764 0 c 1
 650 0 l 1
337.447 383 m 1
 1023.45 383 l 1
 1076.32 655 972.333 866 690.333 866 c 0
 422.333 866 188.179 680 137.64 420 c 0
 88.8506 169 234.307 -19 527.307 -19 c 0
 700.307 -19 866.719 50 943.075 129 c 1
 889.623 245 l 1
 769.295 161 659.658 132 565.658 132 c 0
 388.658 132 319.263 238 337.447 383 c 1
363.385 501 m 1
 411.237 634 511.148 721 661.148 721 c 0
 799.148 721 862.071 628 855.385 501 c 1
 363.385 501 l 1
905.943 10 m 0
667.029 849 m 0
502 0 m 0
905.943 10 m 0
EndSplineSet
EndChar

StartChar: equal
Encoding: 61 61 189
Width: 1209
VWidth: 0
Flags: HW
LayerCount: 2
Fore
SplineSet
1210.92 797 m 1
 308.921 797 l 1
 279.764 647 l 1
 1181.76 647 l 1
 1210.92 797 l 1
1133.17 397 m 1
 231.169 397 l 1
 202.206 248 l 1
 1104.21 248 l 1
 1133.17 397 l 1
EndSplineSet
EndChar

StartChar: eth
Encoding: 240 240 190
Width: 1006
VWidth: 0
Flags: HW
LayerCount: 2
Fore
SplineSet
595.6 605 m 0
 664.6 605 763.991 571 816.802 498 c 1
 755.899 267 669.853 133 507.853 133 c 0
 368.853 133 317.068 237 344.864 380 c 0
 370.717 513 464.6 605 595.6 605 c 0
709.834 848 m 1
 867.609 888 l 1
 874.947 828 870.368 753 852.874 663 c 1
 796.092 731 701.701 765 591.701 765 c 0
 380.701 765 205.35 614 163.169 397 c 0
 114.574 147 228.307 -19 472.307 -19 c 0
 765.307 -19 954.71 194 1032.85 596 c 0
 1058.12 726 1063.28 840 1047.55 934 c 1
 1192.74 971 l 1
 1181.07 1091 l 1
 1014.71 1048 l 1
 961.842 1167 856.671 1233 695.671 1233 c 0
 594.671 1233 468.312 1190 399.371 1144 c 1
 441.268 1020 l 1
 527.043 1060 604.125 1081 668.125 1081 c 0
 740.125 1081 796.071 1055 830.574 1001 c 1
 698.16 968 l 1
 709.834 848 l 1
EndSplineSet
EndChar

StartChar: exclam
Encoding: 33 33 191
Width: 502
VWidth: 0
Flags: HW
LayerCount: 2
Fore
SplineSet
391.502 409 m 1
 533.108 906 l 1
 594.533 1222 l 1
 391.533 1222 l 1
 330.108 906 l 1
 282.502 409 l 1
 391.502 409 l 1
133 0 m 1
 357 0 l 1
 424.04 242 l 1
 180.04 242 l 1
 133 0 l 1
EndSplineSet
EndChar

StartChar: exclamdown
Encoding: 161 161 192
Width: 534
VWidth: 0
Flags: HW
LayerCount: 2
Fore
SplineSet
342.854 987 m 1
 586.854 987 l 1
 613.894 1229 l 1
 389.894 1229 l 1
 342.854 987 l 1
380.392 820 m 1
 234.785 323 l 1
 173.36 7 l 1
 376.36 7 l 1
 437.785 323 l 1
 489.392 820 l 1
 380.392 820 l 1
EndSplineSet
EndChar

StartChar: f
Encoding: 102 102 193
Width: 831
VWidth: 0
Flags: HW
LayerCount: 2
Fore
SplineSet
100 0 m 1
 582 0 l 1
 609.407 141 l 1
 451.407 141 l 1
 561.815 709 l 1
 716.815 709 l 1
 744.029 849 l 1
 589.029 849 l 1
 608.272 948 l 2
 628.877 1054 668.041 1096 726.041 1096 c 0
 791.041 1096 797.517 1047 795.299 979 c 1
 956.073 1019 l 1
 978.729 1187 863.671 1233 745.671 1233 c 0
 549.671 1233 443.512 1119 410.855 951 c 2
 391.029 849 l 1
 261.029 849 l 1
 233.815 709 l 1
 363.815 709 l 1
 253.407 141 l 1
 127.407 141 l 1
 100 0 l 1
EndSplineSet
EndChar

StartChar: ff
Encoding: 65545 -1 194
Width: 1183
VWidth: 0
Flags: HW
LayerCount: 2
Fore
SplineSet
662 0 m 1
 1123 0 l 1
 1150.41 141 l 1
 992.407 141 l 1
 1102.82 709 l 1
 1306.82 709 l 1
 1334.03 849 l 1
 1130.03 849 l 1
 1149.27 948 l 2
 1169.88 1054 1199.04 1096 1257.04 1096 c 0
 1292.04 1096 1322.57 1073 1310.13 1009 c 1
 1465.13 1009 l 1
 1500.12 1189 1394.67 1233 1276.67 1233 c 0
 1080.67 1233 984.512 1119 951.855 951 c 2
 932.029 849 l 1
 552.029 849 l 1
 571.272 948 l 2
 591.877 1054 621.041 1096 679.041 1096 c 0
 714.041 1096 744.57 1073 732.13 1009 c 1
 887.13 1009 l 1
 922.118 1189 816.671 1233 698.671 1233 c 0
 502.671 1233 406.512 1119 373.855 951 c 2
 354.029 849 l 1
 224.029 849 l 1
 196.815 709 l 1
 326.815 709 l 1
 216.407 141 l 1
 90.4072 141 l 1
 63 0 l 1
 545 0 l 1
 572.407 141 l 1
 414.407 141 l 1
 524.815 709 l 1
 904.815 709 l 1
 794.407 141 l 1
 689.407 141 l 1
 662 0 l 1
EndSplineSet
EndChar

StartChar: ffi
Encoding: 65546 -1 195
Width: 1741
VWidth: 0
Flags: HW
LayerCount: 2
Fore
SplineSet
1709.5 1227 m 0
 1646.5 1227 1587.17 1179 1575.51 1119 c 0
 1563.65 1058 1604.52 1011 1667.52 1011 c 0
 1732.52 1011 1791.65 1058 1803.51 1119 c 0
 1815.17 1179 1774.5 1227 1709.5 1227 c 0
1511.82 709 m 1
 1401.41 141 l 1
 1274.41 141 l 1
 1247 0 l 1
 1707 0 l 1
 1734.41 141 l 1
 1597.41 141 l 1
 1735.03 849 l 1
 1136.03 849 l 1
 1155.27 948 l 2
 1175.88 1054 1205.04 1096 1263.04 1096 c 0
 1298.04 1096 1328.57 1073 1316.13 1009 c 1
 1471.13 1009 l 1
 1506.12 1189 1400.67 1233 1282.67 1233 c 0
 1086.67 1233 990.512 1119 957.855 951 c 2
 938.029 849 l 1
 552.029 849 l 1
 571.272 948 l 2
 591.877 1054 621.041 1096 679.041 1096 c 0
 714.041 1096 744.57 1073 732.13 1009 c 1
 887.13 1009 l 1
 922.118 1189 816.671 1233 698.671 1233 c 0
 502.671 1233 406.512 1119 373.855 951 c 2
 354.029 849 l 1
 224.029 849 l 1
 196.815 709 l 1
 326.815 709 l 1
 216.407 141 l 1
 90.4072 141 l 1
 63 0 l 1
 524 0 l 1
 551.407 141 l 1
 414.407 141 l 1
 524.815 709 l 1
 910.815 709 l 1
 800.407 141 l 1
 674.407 141 l 1
 647 0 l 1
 1129 0 l 1
 1156.41 141 l 1
 998.407 141 l 1
 1108.82 709 l 1
 1511.82 709 l 1
EndSplineSet
EndChar

StartChar: ffl
Encoding: 65547 -1 196
Width: 1712
VWidth: 0
Flags: HW
LayerCount: 2
Fore
SplineSet
969.296 1015 m 1
 962.408 995 956.326 974 951.855 951 c 2
 932.029 849 l 1
 552.029 849 l 1
 571.272 948 l 2
 594.015 1065 681.207 1102 769.207 1102 c 0
 870.207 1102 970.488 1052 969.296 1015 c 1
1674 0 m 1
 1701.41 141 l 1
 1566.41 141 l 1
 1775.17 1215 l 1
 1653.95 1219 1522.45 1237 1401.45 1237 c 0
 1272.45 1237 1154.75 1218 1068.95 1147 c 1
 1012.75 1218 893.615 1243 787.615 1243 c 0
 602.615 1243 412.926 1152 373.855 951 c 2
 354.029 849 l 1
 224.029 849 l 1
 196.815 709 l 1
 326.815 709 l 1
 216.407 141 l 1
 90.4072 141 l 1
 63 0 l 1
 545 0 l 1
 572.407 141 l 1
 414.407 141 l 1
 524.815 709 l 1
 904.815 709 l 1
 794.407 141 l 1
 671.407 141 l 1
 644 0 l 1
 1123 0 l 1
 1150.41 141 l 1
 992.407 141 l 1
 1102.82 709 l 1
 1257.82 709 l 1
 1285.03 849 l 1
 1130.03 849 l 1
 1149.27 948 l 2
 1173.38 1072 1245.4 1103 1333.4 1103 c 0
 1401.4 1103 1481.26 1092 1554.88 1090 c 1
 1370.41 141 l 1
 1246.41 141 l 1
 1219 0 l 1
 1674 0 l 1
EndSplineSet
EndChar

StartChar: five
Encoding: 53 53 197
Width: 1054
VWidth: 0
Flags: HW
LayerCount: 2
Fore
SplineSet
275.204 284 m 1
 144.822 174 l 1
 219.524 49 342.307 -19 520.307 -19 c 1
 824.695 -17 978.405 177 1019.23 387 c 0
 1065.88 627 942.338 794 704.338 794 c 0
 603.338 794 519.701 765 438.095 695 c 1
 452.757 755 505.49 1016 521.959 1075 c 1
 907.959 1075 l 1
 885.411 959 l 1
 1041.41 959 l 1
 1091.17 1215 l 1
 402.172 1215 l 1
 280.879 591 l 1
 383.799 534 l 1
 466.211 603 563.237 634 641.237 634 c 0
 769.237 634 847.298 552 813.67 379 c 0
 786.068 237 687.075 129 534.075 129 c 0
 418.075 129 328.822 174 275.204 284 c 1
EndSplineSet
EndChar

StartChar: fj
Encoding: 65548 -1 198
Width: 1210
VWidth: 0
Flags: HW
LayerCount: 2
Fore
SplineSet
63 0 m 1
 545 0 l 1
 572.407 141 l 1
 414.407 141 l 1
 524.815 709 l 1
 972.815 709 l 1
 832.473 -13 l 2
 808.953 -134 769.846 -186 665.846 -186 c 2
 569.846 -186 l 1
 539.521 -342 l 1
 635.521 -342 l 2
 939.521 -342 997.234 -184 1042.14 47 c 2
 1198.03 849 l 1
 552.029 849 l 1
 571.272 948 l 2
 591.877 1054 621.041 1096 679.041 1096 c 0
 714.041 1096 744.57 1073 732.13 1009 c 1
 887.13 1009 l 1
 922.118 1189 816.671 1233 698.671 1233 c 0
 502.671 1233 406.512 1119 373.855 951 c 2
 354.029 849 l 1
 224.029 849 l 1
 196.815 709 l 1
 326.815 709 l 1
 216.407 141 l 1
 90.4072 141 l 1
 63 0 l 1
1167.5 1227 m 0
 1102.5 1227 1044.17 1179 1032.51 1119 c 0
 1020.65 1058 1060.52 1011 1125.52 1011 c 0
 1188.52 1011 1249.65 1058 1261.51 1119 c 0
 1273.17 1179 1230.5 1227 1167.5 1227 c 0
EndSplineSet
EndChar

StartChar: florin
Encoding: 402 402 199
Width: 1142
VWidth: 0
Flags: HW
LayerCount: 2
Fore
SplineSet
1043.04 669 m 1
 1086.2 783 l 1
 876.2 783 l 1
 940.272 948 l 1
 989.542 1078 1021.59 1140 1073.59 1140 c 0
 1118.59 1140 1128.96 1075 1108.35 969 c 1
 1253.35 969 1307.63 1027 1322.21 1102 c 0
 1336.59 1176 1268.67 1233 1099.67 1233 c 0
 890.671 1233 764.678 1125 690.135 937 c 2
 629.2 783 l 1
 468.2 783 l 1
 426.04 669 l 1
 587.04 669 l 1
 343.192 37 l 2
 262.761 -171 214.377 -245 132.377 -245 c 0
 92.377 -245 42.9033 -232 16.8477 -222 c 1
 -28.1738 -325 l 1
 6.49414 -337 64.5498 -347 116.55 -347 c 0
 319.55 -347 471.655 -259 586.998 36 c 2
 834.04 669 l 1
 1043.04 669 l 1
EndSplineSet
EndChar

StartChar: four
Encoding: 52 52 201
Width: 973
VWidth: 0
Flags: HW
LayerCount: 2
Fore
SplineSet
99.9229 334 m 1
 590.923 334 l 1
 553.407 141 l 1
 398.407 141 l 1
 371 0 l 1
 842 0 l 1
 869.407 141 l 1
 734.407 141 l 1
 771.923 334 l 1
 947.923 334 l 1
 974.358 470 l 1
 798.358 470 l 1
 943.172 1215 l 1
 765.172 1215 l 1
 131.802 498 l 1
 99.9229 334 l 1
285.358 470 m 1
 715.909 977 l 1
 617.358 470 l 1
 285.358 470 l 1
EndSplineSet
EndChar

StartChar: fraction
Encoding: 8260 8260 202
Width: 708
VWidth: 0
Flags: HW
LayerCount: 2
Fore
SplineSet
12.834 -6 m 1
 115.196 -35 l 1
 931.561 1217 l 1
 830.198 1246 l 1
 12.834 -6 l 1
EndSplineSet
EndChar

StartChar: g
Encoding: 103 103 203
Width: 1232
VWidth: 0
Flags: HW
LayerCount: 2
Fore
SplineSet
508.358 -384 m 0
 802.358 -384 963.372 -173 993.695 -17 c 2
 1134.82 709 l 1
 1269.82 709 l 1
 1297.03 849 l 1
 964.029 849 l 1
 944.785 750 l 1
 876.142 829 807.333 866 696.333 866 c 0
 448.333 866 250.429 671 202.611 425 c 0
 151.295 161 298.667 -12 527.667 -12 c 0
 635.667 -12 739.054 26 817.3 89 c 1
 794.946 -26 l 2
 778.618 -110 709.07 -226 516.07 -226 c 0
 444.07 -226 356.18 -210 247.761 -171 c 1
 182.937 -309 l 1
 305.635 -362 414.358 -384 508.358 -384 c 0
591.991 144 m 0
 431.991 144 374.539 260 405.445 419 c 0
 438.296 588 543.204 711 704.204 711 c 0
 827.204 711 897.35 614 913.685 590 c 1
 848.178 253 l 1
 820.902 231 714.991 144 591.991 144 c 0
771.029 849 m 0
EndSplineSet
EndChar

StartChar: gbreve
Encoding: 287 287 204
Width: 1232
VWidth: 0
Flags: HW
LayerCount: 2
Fore
SplineSet
508.358 -384 m 0
 414.358 -384 305.635 -362 182.937 -309 c 1
 247.761 -171 l 1
 356.18 -210 444.07 -226 516.07 -226 c 0
 709.07 -226 778.618 -110 794.946 -26 c 2
 817.3 89 l 1
 739.054 26 635.667 -12 527.667 -12 c 0
 298.667 -12 151.295 161 202.611 425 c 0
 250.429 671 448.333 866 696.333 866 c 0
 807.333 866 876.142 829 944.785 750 c 1
 964.029 849 l 1
 1297.03 849 l 1
 1269.82 709 l 1
 1134.82 709 l 1
 993.695 -17 l 2
 963.372 -173 802.358 -384 508.358 -384 c 0
591.991 144 m 0
 714.991 144 820.902 231 848.178 253 c 1
 913.685 590 l 1
 897.35 614 827.204 711 704.204 711 c 0
 543.204 711 438.296 588 405.445 419 c 0
 374.539 260 431.991 144 591.991 144 c 0
575.062 1199 m 1
 558.071 1055 646.605 960 791.605 960 c 0
 939.605 960 1061.27 1056 1103.06 1199 c 1
 970.062 1199 l 1
 945.289 1123 885.736 1079 814.736 1079 c 0
 738.736 1079 702.289 1123 704.062 1199 c 1
 575.062 1199 l 1
771.029 849 m 0
771.029 849 m 0
EndSplineSet
EndChar

StartChar: gcedilla
Encoding: 291 291 205
Width: 1232
VWidth: 0
Flags: HW
LayerCount: 2
Fore
SplineSet
508.358 -384 m 0
 802.358 -384 963.372 -173 993.695 -17 c 2
 1134.82 709 l 1
 1269.82 709 l 1
 1297.03 849 l 1
 964.029 849 l 1
 944.785 750 l 1
 876.142 829 807.333 866 696.333 866 c 0
 448.333 866 250.429 671 202.611 425 c 0
 151.295 161 298.667 -12 527.667 -12 c 0
 635.667 -12 739.054 26 817.3 89 c 1
 794.946 -26 l 2
 778.618 -110 709.07 -226 516.07 -226 c 0
 444.07 -226 356.18 -210 247.761 -171 c 1
 182.937 -309 l 1
 305.635 -362 414.358 -384 508.358 -384 c 0
591.991 144 m 0
 431.991 144 374.539 260 405.445 419 c 0
 438.296 588 543.204 711 704.204 711 c 0
 827.204 711 897.35 614 913.685 590 c 1
 848.178 253 l 1
 820.902 231 714.991 144 591.991 144 c 0
771.029 849 m 0
EndSplineSet
EndChar

StartChar: gcircumflex
Encoding: 285 285 206
Width: 1232
VWidth: 0
Flags: HW
LayerCount: 2
Fore
SplineSet
508.358 -384 m 0
 414.358 -384 305.635 -362 182.937 -309 c 1
 247.761 -171 l 1
 356.18 -210 444.07 -226 516.07 -226 c 0
 709.07 -226 778.618 -110 794.946 -26 c 2
 817.3 89 l 1
 739.054 26 635.667 -12 527.667 -12 c 0
 298.667 -12 151.295 161 202.611 425 c 0
 250.429 671 448.333 866 696.333 866 c 0
 807.333 866 876.142 829 944.785 750 c 1
 964.029 849 l 1
 1297.03 849 l 1
 1269.82 709 l 1
 1134.82 709 l 1
 993.695 -17 l 2
 963.372 -173 802.358 -384 508.358 -384 c 0
591.991 144 m 0
 714.991 144 820.902 231 848.178 253 c 1
 913.685 590 l 1
 897.35 614 827.204 711 704.204 711 c 0
 543.204 711 438.296 588 405.445 419 c 0
 374.539 260 431.991 144 591.991 144 c 0
689.411 959 m 1
 839.395 1211 l 1
 891.411 959 l 1
 1071.41 959 l 1
 995.361 1288 l 1
 712.361 1288 l 1
 514.411 959 l 1
 689.411 959 l 1
771.029 849 m 0
771.029 849 m 0
EndSplineSet
EndChar

StartChar: gdotaccent
Encoding: 289 289 207
Width: 1232
VWidth: 0
Flags: HW
LayerCount: 2
Fore
SplineSet
756.12 1153 m 1
 720.16 968 l 1
 907.16 968 l 1
 943.12 1153 l 1
 756.12 1153 l 1
508.358 -384 m 0
 414.358 -384 305.635 -362 182.937 -309 c 1
 247.761 -171 l 1
 356.18 -210 444.07 -226 516.07 -226 c 0
 709.07 -226 778.618 -110 794.946 -26 c 2
 817.3 89 l 1
 739.054 26 635.667 -12 527.667 -12 c 0
 298.667 -12 151.295 161 202.611 425 c 0
 250.429 671 448.333 866 696.333 866 c 0
 807.333 866 876.142 829 944.785 750 c 1
 964.029 849 l 1
 1297.03 849 l 1
 1269.82 709 l 1
 1134.82 709 l 1
 993.695 -17 l 2
 963.372 -173 802.358 -384 508.358 -384 c 0
591.991 144 m 0
 714.991 144 820.902 231 848.178 253 c 1
 913.685 590 l 1
 897.35 614 827.204 711 704.204 711 c 0
 543.204 711 438.296 588 405.445 419 c 0
 374.539 260 431.991 144 591.991 144 c 0
771.029 849 m 0
777.978 787 m 0
EndSplineSet
EndChar

StartChar: germandbls
Encoding: 223 223 208
Width: 1143
VWidth: 0
Flags: HW
LayerCount: 2
Fore
SplineSet
436.407 141 m 1
 569.947 828 l 2
 606.102 1014 697.736 1079 823.736 1079 c 0
 926.736 1079 978.102 1014 959.83 920 c 0
 940.197 819 866.12 726 719.12 726 c 1
 691.907 586 l 1
 918.907 586 977.635 492 953.532 368 c 0
 920.293 197 789.407 141 643.407 141 c 1
 616 0 l 1
 966 0 1127.13 155 1168.53 368 c 0
 1199.24 526 1115.63 636 940.79 678 c 1
 1070.12 726 1141.23 814 1163.97 931 c 0
 1198.76 1110 1070.67 1233 853.671 1233 c 0
 572.671 1233 406.319 1082 356.169 824 c 2
 223.407 141 l 1
 70.4072 141 l 1
 43 0 l 1
 525 0 l 1
 552.407 141 l 1
 436.407 141 l 1
EndSplineSet
EndChar

StartChar: grave
Encoding: 96 96 209
Width: 407
VWidth: 0
Flags: HW
LayerCount: 2
Fore
SplineSet
573.605 960 m 1
 510.086 1266 l 1
 252.086 1266 l 1
 408.605 960 l 1
 573.605 960 l 1
361.029 849 m 0
EndSplineSet
EndChar

StartChar: grave.cap
Encoding: 65550 -1 210
Width: 344
VWidth: 0
Flags: HW
LayerCount: 2
Fore
SplineSet
491.664 914 m 1
 442.619 1171 l 1
 235.619 1171 l 1
 372.664 914 l 1
 491.664 914 l 1
326.029 849 m 0
EndSplineSet
EndChar

StartChar: greater
Encoding: 62 62 211
Width: 1079
VWidth: 0
Flags: HW
LayerCount: 2
Fore
SplineSet
1173.02 530 m 1
 1199.46 666 l 1
 366.069 1091 l 1
 334.385 928 l 1
 995.434 599 l 1
 206.288 269 l 1
 174.41 105 l 1
 1173.02 530 l 1
EndSplineSet
EndChar

StartChar: greaterequal
Encoding: 8805 8805 212
Width: 1035
VWidth: 0
Flags: HW
LayerCount: 2
Fore
SplineSet
1141.12 690 m 1
 1157.45 774 l 1
 371.559 1253 l 1
 340.264 1092 l 1
 930.092 731 l 1
 200.893 375 l 1
 169.403 213 l 1
 1141.12 690 l 1
1035.19 145 m 1
 156.186 145 l 1
 128 0 l 1
 1007 0 l 1
 1035.19 145 l 1
EndSplineSet
EndChar

StartChar: guillemotleft
Encoding: 171 171 213
Width: 1109
VWidth: 0
Flags: HW
LayerCount: 2
Fore
SplineSet
606.298 552 m 1
 839.797 143 l 1
 983.797 143 l 1
 856.492 553 l 1
 1143.19 963 l 1
 999.188 963 l 1
 606.298 552 l 1
188.298 552 m 1
 421.797 143 l 1
 565.797 143 l 1
 438.492 553 l 1
 725.188 963 l 1
 581.188 963 l 1
 188.298 552 l 1
EndSplineSet
EndChar

StartChar: guillemotright
Encoding: 187 187 214
Width: 1109
VWidth: 0
Flags: HW
LayerCount: 2
Fore
SplineSet
484.188 963 m 1
 340.188 963 l 1
 467.492 553 l 1
 180.797 143 l 1
 324.797 143 l 1
 717.687 554 l 1
 484.188 963 l 1
902.188 963 m 1
 758.188 963 l 1
 885.492 553 l 1
 598.797 143 l 1
 742.797 143 l 1
 1135.69 554 l 1
 902.188 963 l 1
EndSplineSet
EndChar

StartChar: guilsinglleft
Encoding: 8249 8249 215
Width: 619
VWidth: 0
Flags: HW
LayerCount: 2
Fore
SplineSet
134.298 552 m 1
 367.797 143 l 1
 511.797 143 l 1
 384.492 553 l 1
 671.188 963 l 1
 527.188 963 l 1
 134.298 552 l 1
EndSplineSet
EndChar

StartChar: guilsinglright
Encoding: 8250 8250 216
Width: 619
VWidth: 0
Flags: HW
LayerCount: 2
Fore
SplineSet
466.188 963 m 1
 322.188 963 l 1
 449.492 553 l 1
 162.797 143 l 1
 306.797 143 l 1
 699.687 554 l 1
 466.188 963 l 1
EndSplineSet
EndChar

StartChar: h
Encoding: 104 104 217
Width: 1224
VWidth: 0
Flags: HW
PickledData: "(dp1
S'com.typemytype.robofont.layerData'
p2
(dp3
S'back'
p4
(dp5
S'name'
p6
S'h'
sS'lib'
p7
(dp8
sS'unicodes'
p9
(tsS'width'
p10
I1224
sS'contours'
p11
((dp12
S'points'
p13
((dp14
S'segmentType'
p15
S'line'
p16
sS'x'
I260
sS'smooth'
p17
I00
sS'y'
I709
s(dp18
g15
S'line'
p19
sS'x'
I260
sg17
I00
sS'y'
I141
s(dp20
g15
S'line'
p21
sS'x'
I116
sg17
I00
sS'y'
I141
s(dp22
g15
S'line'
p23
sS'x'
I116
sg17
I00
sS'y'
I0
s(dp24
g15
S'line'
p25
sS'x'
I579
sg17
I00
sS'y'
I0
s(dp26
g15
S'line'
p27
sS'x'
I579
sg17
I00
sS'y'
I141
s(dp28
g15
S'line'
p29
sS'x'
I458
sg17
I00
sS'y'
I141
s(dp30
g15
S'line'
p31
sS'x'
I458
sg17
I00
sS'y'
I593
s(dp32
S'y'
I661
sS'x'
I524
sg17
I00
s(dp33
S'y'
I711
sS'x'
I611
sg17
I00
s(dp34
g15
S'curve'
p35
sS'x'
I696
sg17
I01
sS'y'
I711
s(dp36
S'y'
I711
sS'x'
I778
sg17
I00
s(dp37
S'y'
I649
sS'x'
I827
sg17
I00
s(dp38
g15
S'curve'
p39
sS'x'
I827
sg17
I01
sS'y'
I535
s(dp40
g15
S'line'
p41
sS'x'
I827
sg17
I00
sS'y'
I141
s(dp42
g15
S'line'
p43
sS'x'
I713
sg17
I00
sS'y'
I141
s(dp44
g15
S'line'
p45
sS'x'
I713
sg17
I00
sS'y'
I0
s(dp46
g15
S'line'
p47
sS'x'
I1165
sg17
I00
sS'y'
I0
s(dp48
g15
S'line'
p49
sS'x'
I1165
sg17
I00
sS'y'
I141
s(dp50
g15
S'line'
p51
sS'x'
I1023
sg17
I00
sS'y'
I141
s(dp52
g15
S'line'
p53
sS'x'
I1023
sg17
I01
sS'y'
I586
s(dp54
S'y'
I770
sS'x'
I1023
sg17
I00
s(dp55
S'y'
I866
sS'x'
I894
sg17
I00
s(dp56
g15
S'curve'
p57
sS'x'
I750
sg17
I01
sS'y'
I866
s(dp58
S'y'
I866
sS'x'
I653
sg17
I00
s(dp59
S'y'
I824
sS'x'
I557
sg17
I00
s(dp60
g15
S'curve'
p61
sS'x'
I458
sg17
I00
sS'y'
I745
s(dp62
S'y'
I759
sS'x'
I457
sg17
I00
s(dp63
S'y'
I828
sS'x'
I456
sg17
I00
s(dp64
g15
S'curve'
p65
sS'x'
I456
sg17
I00
sS'y'
I849
s(dp66
g15
S'line'
p67
sS'x'
I112
sg17
I00
sS'y'
I849
s(dp68
g15
S'line'
p69
sS'x'
I112
sg17
I00
sS'y'
I709
stp70
stp71
sS'components'
p72
(tsS'anchors'
p73
(tsss."
LayerCount: 2
Fore
SplineSet
468.959 1075 m 1
 287.407 141 l 1
 136.407 141 l 1
 109 0 l 1
 581 0 l 1
 608.407 141 l 1
 485.407 141 l 1
 573.851 596 l 1
 658.263 665 757.204 711 826.204 711 c 0
 924.204 711 951.181 644 933.492 553 c 2
 853.407 141 l 1
 748.407 141 l 1
 721 0 l 1
 1152 0 l 1
 1179.41 141 l 1
 1050.41 141 l 1
 1137.88 591 l 2
 1171.51 764 1088.33 866 914.333 866 c 0
 814.333 866 707.975 823 603.202 747 c 1
 694.172 1215 l 1
 347.172 1215 l 1
 319.959 1075 l 1
 468.959 1075 l 1
784.029 849 m 0
701.611 425 m 0
EndSplineSet
EndChar

StartChar: hbar
Encoding: 295 295 218
Width: 1238
VWidth: 0
Flags: HW
LayerCount: 2
Fore
SplineSet
482.274 912 m 1
 332.407 141 l 1
 181.407 141 l 1
 154 0 l 1
 626 0 l 1
 653.407 141 l 1
 528.407 141 l 1
 623.654 631 l 1
 715.956 684 802.204 711 871.204 711 c 0
 969.204 711 985.181 644 967.492 553 c 2
 887.407 141 l 1
 793.407 141 l 1
 766 0 l 1
 1186 0 l 1
 1213.41 141 l 1
 1082.41 141 l 1
 1169.88 591 l 2
 1203.51 764 1133.33 866 959.333 866 c 0
 859.333 866 764.696 837 650.479 769 c 1
 678.274 912 l 1
 900.274 912 l 1
 916.797 997 l 1
 694.797 997 l 1
 737.172 1215 l 1
 392.172 1215 l 1
 364.959 1075 l 1
 513.959 1075 l 1
 498.797 997 l 1
 374.797 997 l 1
 358.274 912 l 1
 482.274 912 l 1
EndSplineSet
EndChar

StartChar: hcircumflex
Encoding: 293 293 219
Width: 1238
VWidth: 0
Flags: HW
LayerCount: 2
Fore
SplineSet
513.959 1075 m 1
 332.407 141 l 1
 181.407 141 l 1
 154 0 l 1
 626 0 l 1
 653.407 141 l 1
 528.407 141 l 1
 623.654 631 l 1
 715.956 684 802.204 711 871.204 711 c 0
 969.204 711 985.181 644 967.492 553 c 2
 887.407 141 l 1
 793.407 141 l 1
 766 0 l 1
 1186 0 l 1
 1213.41 141 l 1
 1082.41 141 l 1
 1169.88 591 l 2
 1203.51 764 1133.33 866 959.333 866 c 0
 859.333 866 764.696 837 650.479 769 c 1
 737.172 1215 l 1
 392.172 1215 l 1
 364.959 1075 l 1
 513.959 1075 l 1
747.411 959 m 1
 897.395 1211 l 1
 949.411 959 l 1
 1129.41 959 l 1
 1053.36 1288 l 1
 770.361 1288 l 1
 572.411 959 l 1
 747.411 959 l 1
829.029 849 m 0
829.029 849 m 0
746.611 425 m 0
EndSplineSet
EndChar

StartChar: hungarumlaut
Encoding: 733 733 220
Width: 757
VWidth: 0
Flags: HW
LayerCount: 2
Fore
SplineSet
702.633 955 m 1
 978.086 1266 l 1
 725.086 1266 l 1
 544.633 955 l 1
 702.633 955 l 1
382.633 955 m 1
 658.086 1266 l 1
 405.086 1266 l 1
 223.633 955 l 1
 382.633 955 l 1
550.029 849 m 0
EndSplineSet
EndChar

StartChar: hyphen
Encoding: 45 45 221
Width: 782
VWidth: 0
Flags: HW
LayerCount: 2
Fore
SplineSet
727.356 506 m 1
 252.356 506 l 1
 223.394 357 l 1
 698.394 357 l 1
 727.356 506 l 1
EndSplineSet
EndChar

StartChar: i
Encoding: 105 105 222
Width: 645
VWidth: 0
Flags: HW
LayerCount: 2
Fore
SplineSet
568.505 1227 m 0
 505.505 1227 446.175 1179 434.512 1119 c 0
 422.654 1058 463.519 1011 526.519 1011 c 0
 591.519 1011 650.654 1058 662.512 1119 c 0
 674.175 1179 633.505 1227 568.505 1227 c 0
370.815 709 m 1
 260.407 141 l 1
 115.407 141 l 1
 88 0 l 1
 566 0 l 1
 593.407 141 l 1
 456.407 141 l 1
 594.029 849 l 1
 253.029 849 l 1
 225.815 709 l 1
 370.815 709 l 1
EndSplineSet
EndChar

StartChar: iacute
Encoding: 237 237 223
Width: 701
VWidth: 0
Flags: HW
LayerCount: 2
Fore
SplineSet
362.815 709 m 1
 252.213 140 l 1
 115.213 140 l 1
 88 0 l 1
 558 0 l 1
 585.213 140 l 1
 448.213 140 l 1
 586.029 849 l 1
 253.029 849 l 1
 225.815 709 l 1
 362.815 709 l 1
594.16 968 m 1
 869.641 1274 l 1
 611.641 1274 l 1
 428.16 968 l 1
 594.16 968 l 1
472.029 849 m 0
536.943 10 m 0
597.584 857 m 0
EndSplineSet
EndChar

StartChar: ibreve
Encoding: 301 301 224
Width: 695
VWidth: 0
Flags: HW
LayerCount: 2
Fore
SplineSet
391.815 709 m 1
 281.213 140 l 1
 144.213 140 l 1
 117 0 l 1
 587 0 l 1
 614.213 140 l 1
 477.213 140 l 1
 615.029 849 l 1
 282.029 849 l 1
 254.815 709 l 1
 391.815 709 l 1
322.617 1207 m 1
 305.626 1063 394.16 968 539.16 968 c 0
 687.16 968 808.82 1064 850.617 1207 c 1
 717.617 1207 l 1
 692.844 1131 633.291 1087 562.291 1087 c 0
 486.291 1087 449.844 1131 451.617 1207 c 1
 322.617 1207 l 1
501.029 849 m 0
565.943 10 m 0
518.584 857 m 0
EndSplineSet
EndChar

StartChar: icircumflex
Encoding: 238 238 225
Width: 724
VWidth: 0
Flags: HW
LayerCount: 2
Fore
SplineSet
406.815 709 m 1
 296.213 140 l 1
 159.213 140 l 1
 132 0 l 1
 602 0 l 1
 629.213 140 l 1
 492.213 140 l 1
 630.029 849 l 1
 297.029 849 l 1
 269.815 709 l 1
 406.815 709 l 1
451.16 968 m 1
 601.144 1220 l 1
 653.16 968 l 1
 833.16 968 l 1
 757.111 1297 l 1
 474.111 1297 l 1
 276.16 968 l 1
 451.16 968 l 1
516.029 849 m 0
580.943 10 m 0
532.778 858 m 0
EndSplineSet
EndChar

StartChar: idieresis
Encoding: 239 239 226
Width: 719
VWidth: 0
Flags: HW
LayerCount: 2
Fore
SplineSet
403.815 709 m 1
 293.213 140 l 1
 156.213 140 l 1
 129 0 l 1
 599 0 l 1
 626.213 140 l 1
 489.213 140 l 1
 627.029 849 l 1
 294.029 849 l 1
 266.815 709 l 1
 403.815 709 l 1
677.12 1153 m 1
 641.16 968 l 1
 828.16 968 l 1
 864.12 1153 l 1
 677.12 1153 l 1
312.12 1153 m 1
 276.16 968 l 1
 463.16 968 l 1
 499.12 1153 l 1
 312.12 1153 l 1
513.029 849 m 0
577.943 10 m 0
516.978 787 m 0
EndSplineSet
EndChar

StartChar: igrave
Encoding: 236 236 227
Width: 701
VWidth: 0
Flags: HW
LayerCount: 2
Fore
SplineSet
657.16 968 m 1
 593.641 1274 l 1
 335.641 1274 l 1
 492.16 968 l 1
 657.16 968 l 1
426.815 709 m 1
 316.213 140 l 1
 179.213 140 l 1
 152 0 l 1
 622 0 l 1
 649.213 140 l 1
 512.213 140 l 1
 650.029 849 l 1
 317.029 849 l 1
 289.815 709 l 1
 426.815 709 l 1
536.029 849 m 0
600.943 10 m 0
444.584 857 m 0
EndSplineSet
EndChar

StartChar: ij
Encoding: 307 307 228
Width: 1071
VWidth: 0
Flags: HW
LayerCount: 2
Fore
SplineSet
936.407 141 m 1
 1074.03 849 l 1
 733.029 849 l 1
 705.815 709 l 1
 850.815 709 l 1
 740.407 141 l 1
 595.407 141 l 1
 568 0 l 1
 1046 0 l 1
 1073.41 141 l 1
 936.407 141 l 1
1048.5 1227 m 0
 985.505 1227 926.175 1179 914.512 1119 c 0
 902.654 1058 943.519 1011 1006.52 1011 c 0
 1071.52 1011 1130.65 1058 1142.51 1119 c 0
 1154.17 1179 1113.5 1227 1048.5 1227 c 0
529.505 1227 m 0
 464.505 1227 406.175 1179 394.512 1119 c 0
 382.654 1058 422.519 1011 487.519 1011 c 0
 550.519 1011 611.654 1058 623.512 1119 c 0
 635.175 1179 592.505 1227 529.505 1227 c 0
334.815 709 m 1
 194.473 -13 l 2
 170.953 -134 131.846 -186 27.8457 -186 c 2
 -68.1543 -186 l 1
 -98.4785 -342 l 1
 -2.47852 -342 l 2
 301.521 -342 359.234 -184 404.136 47 c 2
 560.029 849 l 1
 195.029 849 l 1
 167.815 709 l 1
 334.815 709 l 1
EndSplineSet
EndChar

StartChar: imacron
Encoding: 299 299 229
Width: 637
VWidth: 0
Flags: HW
LayerCount: 2
Fore
SplineSet
326.432 1062 m 1
 701.432 1062 l 1
 726.896 1193 l 1
 351.896 1193 l 1
 326.432 1062 l 1
362.815 709 m 1
 252.213 140 l 1
 115.213 140 l 1
 88 0 l 1
 558 0 l 1
 585.213 140 l 1
 448.213 140 l 1
 586.029 849 l 1
 253.029 849 l 1
 225.815 709 l 1
 362.815 709 l 1
472.029 849 m 0
472.029 849 m 0
536.943 10 m 0
EndSplineSet
EndChar

StartChar: infinity
Encoding: 8734 8734 230
Width: 1599
VWidth: 0
Flags: HW
LayerCount: 2
Fore
SplineSet
1566.07 592 m 0
 1611.95 828 1514.08 983 1327.08 983 c 0
 1190.08 983 1071.72 904 956.813 745 c 1
 900.83 920 784.242 989 660.242 989 c 0
 466.242 989 305.809 817 263.239 598 c 0
 216.588 358 320.236 207 508.236 207 c 0
 629.236 207 758.37 290 873.666 451 c 1
 938.26 274 1046.07 201 1173.07 201 c 0
 1362.07 201 1524.67 379 1566.07 592 c 0
1290.45 846 m 0
 1406.45 846 1462.87 735 1435.46 594 c 0
 1408.05 453 1310.7 338 1193.7 338 c 0
 1088.7 338 1031.22 423 993.073 592 c 1
 1105.51 764 1193.45 846 1290.45 846 c 0
538.867 344 m 0
 407.867 344 369.609 461 395.851 596 c 0
 423.258 737 519.612 852 633.612 852 c 0
 738.612 852 798.09 767 836.239 598 c 1
 726.611 425 630.867 344 538.867 344 c 0
EndSplineSet
EndChar

StartChar: integral
Encoding: 8747 8747 231
Width: 953
VWidth: 0
Flags: HW
LayerCount: 2
Fore
SplineSet
201.355 -348 m 0
 535.355 -348 619.328 84 690.276 449 c 0
 721.572 610 732.586 821 752.802 925 c 0
 785.458 1093 826.177 1143 877.177 1143 c 0
 925.177 1143 944.68 1089 924.854 987 c 1
 1057.85 987 1109.13 1045 1121.18 1107 c 0
 1135.56 1181 1073.67 1233 932.671 1233 c 0
 596.671 1233 509.142 829 450.244 526 c 0
 421.864 380 411.937 118 381.419 -39 c 0
 347.985 -211 301.85 -258 257.85 -258 c 0
 209.85 -258 180.625 -218 204.534 -95 c 1
 70.5342 -95 20.6484 -151 8.98535 -211 c 0
 -5.59277 -286 47.3555 -348 201.355 -348 c 0
EndSplineSet
EndChar

StartChar: iogonek
Encoding: 303 303 232
Width: 561
VWidth: 0
Flags: HW
LayerCount: 2
Fore
SplineSet
247.333 12 m 1
 184.365 -65 163.035 -113 152.928 -165 c 0
 132.712 -269 194.717 -341 298.717 -341 c 0
 345.717 -341 379.66 -331 439.908 -304 c 1
 459.93 -201 l 1
 425.014 -216 400.042 -221 369.042 -221 c 0
 304.042 -221 278.04 -185 291.841 -114 c 0
 300.199 -71 317.002 -36 361.333 12 c 1
 247.333 12 l 1
538.505 1227 m 0
 475.505 1227 416.175 1179 404.512 1119 c 0
 392.654 1058 433.519 1011 496.519 1011 c 0
 561.519 1011 620.654 1058 632.512 1119 c 0
 644.175 1179 603.505 1227 538.505 1227 c 0
340.815 709 m 1
 230.407 141 l 1
 85.4072 141 l 1
 58 0 l 1
 536 0 l 1
 563.407 141 l 1
 426.407 141 l 1
 564.029 849 l 1
 223.029 849 l 1
 195.815 709 l 1
 340.815 709 l 1
503.276 22 m 0
EndSplineSet
EndChar

StartChar: itilde
Encoding: 297 297 233
Width: 752
VWidth: 0
Flags: HW
LayerCount: 2
Fore
SplineSet
385.132 973 m 1
 398.713 1012 415.795 1033 450.795 1033 c 0
 519.795 1033 592.383 964 693.383 964 c 0
 791.383 964 867.127 1045 901.785 1177 c 1
 795.785 1177 l 1
 779.816 1136 758.734 1115 727.734 1115 c 0
 656.734 1115 575.758 1182 481.758 1182 c 0
 400.758 1182 316.706 1120 277.132 973 c 1
 385.132 973 l 1
435.815 709 m 1
 325.213 140 l 1
 188.213 140 l 1
 161 0 l 1
 631 0 l 1
 658.213 140 l 1
 521.213 140 l 1
 659.029 849 l 1
 326.029 849 l 1
 298.815 709 l 1
 435.815 709 l 1
545.029 849 m 0
545.029 849 m 0
609.943 10 m 0
EndSplineSet
EndChar

StartChar: j
Encoding: 106 106 234
Width: 599
VWidth: 0
Flags: HW
LayerCount: 2
Fore
SplineSet
252.473 -13 m 2
 228.953 -134 189.846 -186 85.8457 -186 c 2
 -10.1543 -186 l 1
 -40.4785 -342 l 1
 55.5215 -342 l 2
 359.521 -342 417.234 -184 462.136 47 c 2
 618.029 849 l 1
 253.029 849 l 1
 225.815 709 l 1
 392.815 709 l 1
 252.473 -13 l 2
587.505 1227 m 0
 522.505 1227 464.175 1179 452.512 1119 c 0
 440.654 1058 480.519 1011 545.519 1011 c 0
 608.519 1011 669.654 1058 681.512 1119 c 0
 693.175 1179 650.505 1227 587.505 1227 c 0
EndSplineSet
EndChar

StartChar: jcircumflex
Encoding: 309 309 235
Width: 750
VWidth: 0
Flags: HW
LayerCount: 2
Fore
SplineSet
252.473 -13 m 2
 228.953 -134 189.846 -186 85.8457 -186 c 2
 -10.1543 -186 l 1
 -40.4785 -342 l 1
 55.5215 -342 l 2
 359.521 -342 417.234 -184 462.136 47 c 2
 618.029 849 l 1
 253.029 849 l 1
 225.815 709 l 1
 392.815 709 l 1
 252.473 -13 l 2
419.411 959 m 1
 569.395 1211 l 1
 621.411 959 l 1
 801.411 959 l 1
 725.361 1288 l 1
 442.362 1288 l 1
 244.411 959 l 1
 419.411 959 l 1
501.029 849 m 0
501.029 849 m 0
EndSplineSet
EndChar

StartChar: k
Encoding: 107 107 236
Width: 1266
VWidth: 0
Flags: HW
PickledData: "(dp1
S'com.typemytype.robofont.layerData'
p2
(dp3
s."
LayerCount: 2
Fore
SplineSet
469.959 1075 m 1
 288.407 141 l 1
 137.407 141 l 1
 110 0 l 1
 566 0 l 1
 593.407 141 l 1
 483.407 141 l 1
 539.194 428 l 1
 794.407 141 l 1
 710.407 141 l 1
 683 0 l 1
 1128 0 l 1
 1155.41 141 l 1
 1016.41 141 l 1
 749.527 440 l 1
 1114.82 709 l 1
 1253.82 709 l 1
 1281.03 849 l 1
 795.029 849 l 1
 767.815 709 l 1
 912.815 709 l 1
 543.276 449 l 1
 692.172 1215 l 1
 345.172 1215 l 1
 317.959 1075 l 1
 469.959 1075 l 1
608 0 m 0
EndSplineSet
EndChar

StartChar: kcommaaccent
Encoding: 311 311 237
Width: 1216
VWidth: 0
Flags: HW
LayerCount: 2
Fore
SplineSet
514.959 1075 m 1
 333.407 141 l 1
 182.407 141 l 1
 155 0 l 1
 611 0 l 1
 638.407 141 l 1
 528.407 141 l 1
 584.194 428 l 1
 839.407 141 l 1
 755.407 141 l 1
 728 0 l 1
 1173 0 l 1
 1200.41 141 l 1
 1061.41 141 l 1
 794.527 440 l 1
 1159.82 709 l 1
 1298.82 709 l 1
 1326.03 849 l 1
 840.029 849 l 1
 812.815 709 l 1
 957.815 709 l 1
 588.276 449 l 1
 737.172 1215 l 1
 390.172 1215 l 1
 362.959 1075 l 1
 514.959 1075 l 1
653 0 m 0
EndSplineSet
EndChar

StartChar: kgreenlandic
Encoding: 312 312 238
Width: 1088
VWidth: 0
Flags: HW
LayerCount: 2
Fore
SplineSet
323.815 709 m 1
 213.407 141 l 1
 62.4072 141 l 1
 35 0 l 1
 491 0 l 1
 518.407 141 l 1
 408.407 141 l 1
 462.251 418 l 1
 722.407 141 l 1
 635.407 141 l 1
 608 0 l 1
 1053 0 l 1
 1080.41 141 l 1
 944.407 141 l 1
 672.584 430 l 1
 1041.82 709 l 1
 1178.82 709 l 1
 1206.03 849 l 1
 720.029 849 l 1
 692.815 709 l 1
 825.815 709 l 1
 466.333 439 l 1
 546.029 849 l 1
 199.029 849 l 1
 171.815 709 l 1
 323.815 709 l 1
EndSplineSet
EndChar

StartChar: l
Encoding: 108 108 239
Width: 684
VWidth: 0
Flags: HW
PickledData: "(dp1
S'com.typemytype.robofont.layerData'
p2
(dp3
s."
LayerCount: 2
Fore
SplineSet
472.959 1075 m 1
 291.407 141 l 1
 136.407 141 l 1
 109 0 l 1
 605 0 l 1
 632.407 141 l 1
 487.407 141 l 1
 696.172 1215 l 1
 351.172 1215 l 1
 323.959 1075 l 1
 472.959 1075 l 1
512.029 849 m 0
347 0 m 0
767.029 849 m 0
EndSplineSet
EndChar

StartChar: lacute
Encoding: 314 314 240
Width: 707
VWidth: 0
Flags: HW
LayerCount: 2
Fore
SplineSet
495.959 1075 m 1
 314.407 141 l 1
 159.407 141 l 1
 132 0 l 1
 628 0 l 1
 655.407 141 l 1
 510.407 141 l 1
 719.172 1215 l 1
 374.172 1215 l 1
 346.959 1075 l 1
 495.959 1075 l 1
531.605 960 m 1
 807.086 1266 l 1
 549.086 1266 l 1
 365.605 960 l 1
 531.605 960 l 1
535.029 849 m 0
535.029 849 m 0
370 0 m 0
790.029 849 m 0
EndSplineSet
EndChar

StartChar: lcaron
Encoding: 318 318 241
Width: 550
VWidth: 0
Flags: HW
LayerCount: 2
Fore
SplineSet
400.959 1075 m 1
 219.407 141 l 1
 64.4072 141 l 1
 37 0 l 1
 533 0 l 1
 560.407 141 l 1
 415.407 141 l 1
 624.172 1215 l 1
 279.172 1215 l 1
 251.959 1075 l 1
 400.959 1075 l 1
908.006 1209 m 1
 899.259 1164 871.879 1018 864.326 974 c 1
 992.326 974 l 1
 970.944 864 926.78 822 827.281 804 c 1
 807.455 702 l 1
 1003.65 703 1083.7 801 1121.21 994 c 0
 1129.96 1039 1154.17 1179 1157.17 1215 c 1
 1100.17 1215 957.978 1214 908.006 1209 c 1
440.029 849 m 0
275 0 m 0
695.029 849 m 0
EndSplineSet
EndChar

StartChar: lcommaaccent
Encoding: 316 316 242
Width: 707
VWidth: 0
Flags: HW
LayerCount: 2
Fore
SplineSet
495.959 1075 m 1
 314.407 141 l 1
 159.407 141 l 1
 132 0 l 1
 628 0 l 1
 655.407 141 l 1
 510.407 141 l 1
 719.172 1215 l 1
 374.172 1215 l 1
 346.959 1075 l 1
 495.959 1075 l 1
535.029 849 m 0
370 0 m 0
790.029 849 m 0
EndSplineSet
EndChar

StartChar: ldot
Encoding: 320 320 243
Width: 550
VWidth: 0
Flags: HW
LayerCount: 2
Fore
SplineSet
769.708 657 m 1
 728.693 446 l 1
 955.693 446 l 1
 996.708 657 l 1
 769.708 657 l 1
400.959 1075 m 1
 219.407 141 l 1
 64.4072 141 l 1
 37 0 l 1
 533 0 l 1
 560.407 141 l 1
 415.407 141 l 1
 624.172 1215 l 1
 279.172 1215 l 1
 251.959 1075 l 1
 400.959 1075 l 1
440.029 849 m 0
275 0 m 0
695.029 849 m 0
EndSplineSet
EndChar

StartChar: less
Encoding: 60 60 244
Width: 1077
VWidth: 0
Flags: HW
LayerCount: 2
Fore
SplineSet
946.41 105 m 1
 978.288 269 l 1
 316.434 599 l 1
 1106.38 928 l 1
 1138.07 1091 l 1
 138.457 666 l 1
 112.021 530 l 1
 946.41 105 l 1
EndSplineSet
EndChar

StartChar: lessequal
Encoding: 8804 8804 245
Width: 1034
VWidth: 0
Flags: HW
LayerCount: 2
Fore
SplineSet
948.403 213 m 1
 979.893 375 l 1
 389.092 731 l 1
 1119.26 1092 l 1
 1150.56 1253 l 1
 178.45 774 l 1
 162.122 690 l 1
 948.403 213 l 1
28 0 m 1
 907 0 l 1
 935.186 145 l 1
 56.1855 145 l 1
 28 0 l 1
EndSplineSet
EndChar

StartChar: logicalnot
Encoding: 172 172 246
Width: 1122
VWidth: 0
Flags: HW
LayerCount: 2
Fore
SplineSet
178.75 863 m 1
 151.343 722 l 1
 971.343 722 l 1
 894.951 329 l 1
 1011.95 329 l 1
 1115.75 863 l 1
 178.75 863 l 1
EndSplineSet
EndChar

StartChar: lozenge
Encoding: 9674 9674 247
Width: 1136
VWidth: 0
Flags: HW
LayerCount: 2
Fore
SplineSet
1216.09 731 m 1
 899.184 1462 l 1
 805.184 1462 l 1
 203.703 729 l 1
 521 0 l 1
 615 0 l 1
 1216.09 731 l 1
1042.09 731 m 1
 604.988 180 l 1
 378.092 731 l 1
 817.641 1274 l 1
 1042.09 731 l 1
EndSplineSet
EndChar

StartChar: lslash
Encoding: 322 322 248
Width: 556
VWidth: 0
Flags: HW
LayerCount: 2
Fore
SplineSet
395.959 1075 m 1
 308.487 625 l 1
 180.546 579 l 1
 155.471 450 l 1
 283.023 494 l 1
 214.407 141 l 1
 63.4072 141 l 1
 36 0 l 1
 518 0 l 1
 545.407 141 l 1
 410.407 141 l 1
 493.214 567 l 1
 622.961 612 l 1
 649.396 748 l 1
 519.261 701 l 1
 619.172 1215 l 1
 274.172 1215 l 1
 246.959 1075 l 1
 395.959 1075 l 1
EndSplineSet
EndChar

StartChar: m
Encoding: 109 109 249
Width: 1816
VWidth: 0
Flags: HW
PickledData: "(dp1
S'com.typemytype.robofont.layerData'
p2
(dp3
s."
LayerCount: 2
Fore
SplineSet
433.815 709 m 1
 323.407 141 l 1
 166.407 141 l 1
 139 0 l 1
 619 0 l 1
 646.407 141 l 1
 520.407 141 l 1
 608.268 593 l 1
 709.651 667 783.204 711 864.204 711 c 0
 962.204 711 982.348 650 957.661 523 c 2
 883.407 141 l 1
 774.407 141 l 1
 747 0 l 1
 1179 0 l 1
 1206.41 141 l 1
 1081.41 141 l 1
 1168.3 588 l 1
 1239.35 650 1341.2 711 1425.2 711 c 0
 1526.2 711 1542.79 642 1520.63 528 c 2
 1444.63 137 l 1
 1328.63 137 l 1
 1302 0 l 1
 1744 0 l 1
 1770.63 137 l 1
 1639.63 137 l 1
 1728.66 595 l 2
 1760.92 761 1685.33 866 1516.33 866 c 0
 1402.33 866 1300.81 817 1165.12 726 c 1
 1136.61 816 1066.33 866 952.333 866 c 0
 850.333 866 746.197 819 637.425 743 c 1
 637.425 743 648.837 812 656.029 849 c 1
 309.029 849 l 1
 281.815 709 l 1
 433.815 709 l 1
EndSplineSet
EndChar

StartChar: macron
Encoding: 175 175 250
Width: 390
VWidth: 0
Flags: HW
LayerCount: 2
Fore
SplineSet
213.432 1062 m 1
 588.432 1062 l 1
 613.896 1193 l 1
 238.896 1193 l 1
 213.432 1062 l 1
359.029 849 m 0
EndSplineSet
EndChar

StartChar: minus
Encoding: 8722 8722 251
Width: 930
VWidth: 0
Flags: HW
LayerCount: 2
Fore
SplineSet
223.75 863 m 1
 196.343 722 l 1
 1016.34 722 l 1
 1043.75 863 l 1
 223.75 863 l 1
EndSplineSet
EndChar

StartChar: multiply
Encoding: 215 215 252
Width: 929
VWidth: 0
Flags: HW
LayerCount: 2
Fore
SplineSet
277.258 737 m 1
 479.246 490 l 1
 175.846 241 l 1
 242.906 159 l 1
 545.308 408 l 1
 748.684 163 l 1
 850.206 248 l 1
 647.829 493 l 1
 951.425 743 l 1
 885.559 826 l 1
 580.963 576 l 1
 378.78 822 l 1
 277.258 737 l 1
EndSplineSet
EndChar

StartChar: n
Encoding: 110 110 253
Width: 1264
VWidth: 0
Flags: HW
PickledData: "(dp1
S'com.typemytype.robofont.layerData'
p2
(dp3
s."
LayerCount: 2
Fore
SplineSet
424.815 709 m 1
 314.407 141 l 1
 170.407 141 l 1
 143 0 l 1
 606 0 l 1
 633.407 141 l 1
 512.407 141 l 1
 600.268 593 l 1
 679.485 661 776.204 711 861.204 711 c 0
 943.204 711 980.152 649 957.993 535 c 2
 881.407 141 l 1
 767.407 141 l 1
 740 0 l 1
 1192 0 l 1
 1219.41 141 l 1
 1077.41 141 l 1
 1163.91 586 l 2
 1199.67 770 1089.33 866 945.333 866 c 0
 848.333 866 744.169 824 629.813 745 c 1
 631.535 759 643.947 828 648.029 849 c 1
 304.029 849 l 1
 276.815 709 l 1
 424.815 709 l 1
797.029 849 m 0
632 0 m 0
EndSplineSet
EndChar

StartChar: nacute
Encoding: 324 324 254
Width: 1329
VWidth: 0
Flags: HW
LayerCount: 2
Fore
SplineSet
446.815 709 m 1
 336.407 141 l 1
 192.407 141 l 1
 165 0 l 1
 628 0 l 1
 655.407 141 l 1
 534.407 141 l 1
 622.268 593 l 1
 701.485 661 798.204 711 883.204 711 c 0
 965.204 711 1002.15 649 979.993 535 c 2
 903.407 141 l 1
 789.407 141 l 1
 762 0 l 1
 1214 0 l 1
 1241.41 141 l 1
 1099.41 141 l 1
 1185.91 586 l 2
 1221.67 770 1111.33 866 967.333 866 c 0
 870.333 866 766.169 824 651.813 745 c 1
 653.535 759 665.947 828 670.029 849 c 1
 326.029 849 l 1
 298.815 709 l 1
 446.815 709 l 1
945.16 968 m 1
 1220.64 1274 l 1
 962.641 1274 l 1
 779.16 968 l 1
 945.16 968 l 1
819.029 849 m 0
654 0 m 0
948.584 857 m 0
EndSplineSet
EndChar

StartChar: ncaron
Encoding: 328 328 256
Width: 1329
VWidth: 0
Flags: HW
LayerCount: 2
Fore
SplineSet
446.815 709 m 1
 336.407 141 l 1
 192.407 141 l 1
 165 0 l 1
 628 0 l 1
 655.407 141 l 1
 534.407 141 l 1
 622.268 593 l 1
 701.485 661 798.204 711 883.204 711 c 0
 965.204 711 1002.15 649 979.993 535 c 2
 903.407 141 l 1
 789.407 141 l 1
 762 0 l 1
 1214 0 l 1
 1241.41 141 l 1
 1099.41 141 l 1
 1185.91 586 l 2
 1221.67 770 1111.33 866 967.333 866 c 0
 870.333 866 766.169 824 651.813 745 c 1
 653.535 759 665.947 828 670.029 849 c 1
 326.029 849 l 1
 298.815 709 l 1
 446.815 709 l 1
623.619 1171 m 1
 735.274 912 l 1
 931.274 912 l 1
 1140.62 1171 l 1
 1036.62 1171 l 1
 854.685 1017 l 1
 730.619 1171 l 1
 623.619 1171 l 1
819.029 849 m 0
819.029 849 m 0
654 0 m 0
EndSplineSet
EndChar

StartChar: ncommaaccent
Encoding: 326 326 257
Width: 1329
VWidth: 0
Flags: HW
LayerCount: 2
Fore
SplineSet
446.815 709 m 1
 336.407 141 l 1
 192.407 141 l 1
 165 0 l 1
 628 0 l 1
 655.407 141 l 1
 534.407 141 l 1
 622.268 593 l 1
 701.485 661 798.204 711 883.204 711 c 0
 965.204 711 1002.15 649 979.993 535 c 2
 903.407 141 l 1
 789.407 141 l 1
 762 0 l 1
 1214 0 l 1
 1241.41 141 l 1
 1099.41 141 l 1
 1185.91 586 l 2
 1221.67 770 1111.33 866 967.333 866 c 0
 870.333 866 766.169 824 651.813 745 c 1
 653.535 759 665.947 828 670.029 849 c 1
 326.029 849 l 1
 298.815 709 l 1
 446.815 709 l 1
819.029 849 m 0
654 0 m 0
EndSplineSet
EndChar

StartChar: nine
Encoding: 57 57 258
Width: 988
VWidth: 0
Flags: HW
LayerCount: 2
Fore
SplineSet
418.919 833 m 0
 446.715 976 550.125 1081 685.125 1081 c 0
 847.125 1081 893.16 968 867.696 837 c 0
 838.345 686 713.017 602 581.017 602 c 0
 448.017 602 392.289 696 418.919 833 c 0
451.531 -59 m 1
 864.361 434 l 1
 1001.49 589 1056.51 728 1079.06 844 c 0
 1124.35 1077 969.671 1233 720.671 1233 c 0
 461.671 1233 278.626 1063 230.809 817 c 0
 188.628 600 317.888 447 497.888 447 c 0
 578.888 447 679.747 472 742.3 516 c 1
 330.524 49 l 1
 451.531 -59 l 1
EndSplineSet
EndChar

StartChar: notequal
Encoding: 8800 8800 259
Width: 1145
VWidth: 0
Flags: HW
LayerCount: 2
Fore
SplineSet
323.574 1001 m 1
 295.778 858 l 1
 698.778 858 l 1
 582.405 604 l 1
 246.405 604 l 1
 218.609 461 l 1
 517.609 461 l 1
 423.595 250 l 1
 568.595 250 l 1
 662.609 461 l 1
 1105.61 461 l 1
 1133.41 604 l 1
 727.405 604 l 1
 842.778 858 l 1
 1182.78 858 l 1
 1210.57 1001 l 1
 907.574 1001 l 1
 1003.59 1212 l 1
 860.589 1212 l 1
 763.574 1001 l 1
 323.574 1001 l 1
EndSplineSet
EndChar

StartChar: ntilde
Encoding: 241 241 260
Width: 1329
VWidth: 0
Flags: HW
LayerCount: 2
Fore
SplineSet
678.909 977 m 1
 692.49 1016 709.572 1037 744.572 1037 c 0
 813.572 1037 886.16 968 987.16 968 c 0
 1085.16 968 1160.91 1049 1195.56 1181 c 1
 1089.56 1181 l 1
 1073.59 1140 1052.51 1119 1021.51 1119 c 0
 950.512 1119 869.535 1186 775.535 1186 c 0
 694.535 1186 610.483 1124 570.909 977 c 1
 678.909 977 l 1
446.815 709 m 1
 336.407 141 l 1
 192.407 141 l 1
 165 0 l 1
 628 0 l 1
 655.407 141 l 1
 534.407 141 l 1
 622.268 593 l 1
 701.485 661 798.204 711 883.204 711 c 0
 965.204 711 1002.15 649 979.993 535 c 2
 903.407 141 l 1
 789.407 141 l 1
 762 0 l 1
 1214 0 l 1
 1241.41 141 l 1
 1099.41 141 l 1
 1185.91 586 l 2
 1221.67 770 1111.33 866 967.333 866 c 0
 870.333 866 766.169 824 651.813 745 c 1
 653.535 759 665.947 828 670.029 849 c 1
 326.029 849 l 1
 298.815 709 l 1
 446.815 709 l 1
819.029 849 m 0
654 0 m 0
838.807 853 m 0
EndSplineSet
EndChar

StartChar: numbersign
Encoding: 35 35 261
Width: 1226
VWidth: 0
Flags: HW
LayerCount: 2
Fore
SplineSet
264.582 893 m 1
 238.34 758 l 1
 469.34 758 l 1
 367.358 470 l 1
 169.358 470 l 1
 143.312 336 l 1
 313.312 336 l 1
 189.861 -11 l 1
 337.861 -11 l 1
 463.312 336 l 1
 788.312 336 l 1
 663.861 -11 l 1
 812.861 -11 l 1
 938.312 336 l 1
 1204.31 336 l 1
 1230.36 470 l 1
 991.358 470 l 1
 1093.34 758 l 1
 1298.34 758 l 1
 1324.58 893 l 1
 1145.58 893 l 1
 1272.84 1239 l 1
 1121.84 1239 l 1
 995.582 893 l 1
 673.582 893 l 1
 798.837 1239 l 1
 648.837 1239 l 1
 523.582 893 l 1
 264.582 893 l 1
618.34 758 m 1
 942.34 758 l 1
 840.358 470 l 1
 516.358 470 l 1
 618.34 758 l 1
EndSplineSet
EndChar

StartChar: o
Encoding: 111 111 262
Width: 1150
VWidth: 0
Flags: HW
PickledData: "(dp1
S'com.typemytype.robofont.layerData'
p2
(dp3
s."
LayerCount: 2
Fore
SplineSet
902.417 424 m 0
 869.373 254 752.63 137 600.63 137 c 0
 448.63 137 377.373 254 410.223 423 c 0
 443.268 593 558.204 711 711.204 711 c 0
 865.204 711 935.268 593 902.417 424 c 0
1109.42 424 m 0
 1159.18 680 1012.33 866 743.333 866 c 0
 479.333 866 255.762 683 205.417 424 c 0
 155.851 169 299.307 -19 569.307 -19 c 0
 843.307 -19 1060.43 172 1109.42 424 c 0
740.029 849 m 0
EndSplineSet
EndChar

StartChar: oacute
Encoding: 243 243 263
Width: 1150
VWidth: 0
Flags: HW
LayerCount: 2
Fore
SplineSet
902.417 424 m 0
 869.373 254 752.63 137 600.63 137 c 0
 448.63 137 377.373 254 410.223 423 c 0
 443.268 593 558.204 711 711.204 711 c 0
 865.204 711 935.268 593 902.417 424 c 0
1109.42 424 m 0
 1159.18 680 1012.33 866 743.333 866 c 0
 479.333 866 255.762 683 205.417 424 c 0
 155.851 169 299.307 -19 569.307 -19 c 0
 843.307 -19 1060.43 172 1109.42 424 c 0
846.16 968 m 1
 1121.64 1274 l 1
 863.641 1274 l 1
 680.16 968 l 1
 846.16 968 l 1
740.029 849 m 0
849.584 857 m 0
EndSplineSet
EndChar

StartChar: obreve
Encoding: 335 335 264
Width: 1150
VWidth: 0
Flags: HW
LayerCount: 2
Fore
SplineSet
902.417 424 m 0
 869.373 254 752.63 137 600.63 137 c 0
 448.63 137 377.373 254 410.223 423 c 0
 443.268 593 558.204 711 711.204 711 c 0
 865.204 711 935.268 593 902.417 424 c 0
1109.42 424 m 0
 1159.18 680 1012.33 866 743.333 866 c 0
 479.333 866 255.762 683 205.417 424 c 0
 155.851 169 299.307 -19 569.307 -19 c 0
 843.307 -19 1060.43 172 1109.42 424 c 0
544.062 1199 m 1
 527.071 1055 615.605 960 760.605 960 c 0
 908.605 960 1030.27 1056 1072.06 1199 c 1
 939.062 1199 l 1
 914.289 1123 854.736 1079 783.736 1079 c 0
 707.736 1079 671.289 1123 673.062 1199 c 1
 544.062 1199 l 1
740.029 849 m 0
740.029 849 m 0
EndSplineSet
EndChar

StartChar: ocircumflex
Encoding: 244 244 265
Width: 1150
VWidth: 0
Flags: HW
LayerCount: 2
Fore
SplineSet
902.417 424 m 0
 869.373 254 752.63 137 600.63 137 c 0
 448.63 137 377.373 254 410.223 423 c 0
 443.268 593 558.204 711 711.204 711 c 0
 865.204 711 935.268 593 902.417 424 c 0
1109.42 424 m 0
 1159.18 680 1012.33 866 743.333 866 c 0
 479.333 866 255.762 683 205.417 424 c 0
 155.851 169 299.307 -19 569.307 -19 c 0
 843.307 -19 1060.43 172 1109.42 424 c 0
659.16 968 m 1
 809.144 1220 l 1
 861.16 968 l 1
 1041.16 968 l 1
 965.111 1297 l 1
 682.111 1297 l 1
 484.16 968 l 1
 659.16 968 l 1
740.029 849 m 0
740.778 858 m 0
EndSplineSet
EndChar

StartChar: odieresis
Encoding: 246 246 266
Width: 1150
VWidth: 0
Flags: HW
LayerCount: 2
Fore
SplineSet
902.417 424 m 0
 869.373 254 752.63 137 600.63 137 c 0
 448.63 137 377.373 254 410.223 423 c 0
 443.268 593 558.204 711 711.204 711 c 0
 865.204 711 935.268 593 902.417 424 c 0
1109.42 424 m 0
 1159.18 680 1012.33 866 743.333 866 c 0
 479.333 866 255.762 683 205.417 424 c 0
 155.851 169 299.307 -19 569.307 -19 c 0
 843.307 -19 1060.43 172 1109.42 424 c 0
888.12 1153 m 1
 852.16 968 l 1
 1039.16 968 l 1
 1075.12 1153 l 1
 888.12 1153 l 1
523.12 1153 m 1
 487.16 968 l 1
 674.16 968 l 1
 710.12 1153 l 1
 523.12 1153 l 1
740.029 849 m 0
727.978 787 m 0
EndSplineSet
EndChar

StartChar: oe
Encoding: 339 339 267
Width: 1715
VWidth: 0
Flags: HW
LayerCount: 2
Fore
SplineSet
1040.45 383 m 1
 1726.45 383 l 1
 1779.32 655 1675.33 866 1393.33 866 c 0
 1245.33 866 1106.7 801 1002.29 696 c 1
 943.698 801 833.333 866 683.333 866 c 0
 419.333 866 195.762 683 145.417 424 c 0
 95.8506 169 239.307 -19 509.307 -19 c 0
 660.307 -19 793.941 46 892.963 149 c 1
 954.747 45 1069.31 -19 1230.31 -19 c 0
 1403.31 -19 1548.58 39 1642.63 137 c 1
 1554.85 241 l 1
 1471.24 171 1362.66 132 1268.66 132 c 0
 1091.66 132 1022.26 238 1040.45 383 c 1
842.417 424 m 0
 809.373 254 692.63 137 540.63 137 c 0
 388.63 137 317.373 254 350.223 423 c 0
 383.268 593 498.204 711 651.204 711 c 0
 805.204 711 875.268 593 842.417 424 c 0
1066.38 501 m 1
 1114.24 634 1214.15 721 1364.15 721 c 0
 1502.15 721 1565.07 628 1558.38 501 c 1
 1066.38 501 l 1
1023.03 849 m 0
EndSplineSet
EndChar

StartChar: ogonek
Encoding: 731 731 268
Width: 487
VWidth: 0
Flags: HW
LayerCount: 2
Fore
SplineSet
184 0 m 1
 121.033 -77 99.7021 -125 89.5947 -177 c 0
 69.3789 -281 131.384 -353 235.384 -353 c 0
 282.384 -353 316.327 -343 376.576 -316 c 1
 396.597 -213 l 1
 361.682 -228 336.709 -233 305.709 -233 c 0
 240.709 -233 214.707 -197 228.508 -126 c 0
 236.866 -83 253.67 -48 298 0 c 1
 184 0 l 1
439.943 10 m 0
EndSplineSet
EndChar

StartChar: ograve
Encoding: 242 242 269
Width: 1150
VWidth: 0
Flags: HW
LayerCount: 2
Fore
SplineSet
845.16 968 m 1
 680.16 968 l 1
 523.641 1274 l 1
 781.641 1274 l 1
 845.16 968 l 1
1109.42 424 m 0
 1159.18 680 1012.33 866 743.333 866 c 0
 479.333 866 255.762 683 205.417 424 c 0
 155.851 169 299.307 -19 569.307 -19 c 0
 843.307 -19 1060.43 172 1109.42 424 c 0
902.417 424 m 0
 935.268 593 865.204 711 711.204 711 c 0
 558.204 711 443.268 593 410.223 423 c 0
 377.373 254 448.63 137 600.63 137 c 0
 752.63 137 869.373 254 902.417 424 c 0
740.029 849 m 0
632.584 857 m 0
EndSplineSet
EndChar

StartChar: ohungarumlaut
Encoding: 337 337 270
Width: 1016
VWidth: 0
Flags: HW
LayerCount: 2
Fore
SplineSet
835.417 424 m 0
 802.373 254 685.63 137 533.63 137 c 0
 381.63 137 310.373 254 343.223 423 c 0
 376.268 593 491.204 711 644.204 711 c 0
 798.204 711 868.268 593 835.417 424 c 0
1042.42 424 m 0
 1092.18 680 945.333 866 676.333 866 c 0
 412.333 866 188.762 683 138.417 424 c 0
 88.8506 169 232.307 -19 502.307 -19 c 0
 776.307 -19 993.434 172 1042.42 424 c 0
935.16 968 m 1
 1210.61 1279 l 1
 957.612 1279 l 1
 777.16 968 l 1
 935.16 968 l 1
615.16 968 m 1
 890.612 1279 l 1
 637.612 1279 l 1
 456.16 968 l 1
 615.16 968 l 1
673.029 849 m 0
782.556 862 m 0
EndSplineSet
EndChar

StartChar: omacron
Encoding: 333 333 271
Width: 1150
VWidth: 0
Flags: HW
LayerCount: 2
Fore
SplineSet
902.417 424 m 0
 869.373 254 752.63 137 600.63 137 c 0
 448.63 137 377.373 254 410.223 423 c 0
 443.268 593 558.204 711 711.204 711 c 0
 865.204 711 935.268 593 902.417 424 c 0
1109.42 424 m 0
 1159.18 680 1012.33 866 743.333 866 c 0
 479.333 866 255.762 683 205.417 424 c 0
 155.851 169 299.307 -19 569.307 -19 c 0
 843.307 -19 1060.43 172 1109.42 424 c 0
594.432 1062 m 1
 969.432 1062 l 1
 994.896 1193 l 1
 619.896 1193 l 1
 594.432 1062 l 1
740.029 849 m 0
740.029 849 m 0
EndSplineSet
EndChar

StartChar: one
Encoding: 49 49 272
Width: 722
VWidth: 0
Flags: HW
LayerCount: 2
Fore
SplineSet
518.407 141 m 1
 727.172 1215 l 1
 346.172 1215 l 1
 318.959 1075 l 1
 503.959 1075 l 1
 322.407 141 l 1
 149.407 141 l 1
 122 0 l 1
 654 0 l 1
 681.407 141 l 1
 518.407 141 l 1
EndSplineSet
EndChar

StartChar: onehalf
Encoding: 189 189 273
Width: 1546
VWidth: 0
Flags: HW
LayerCount: 2
Fore
SplineSet
1426.84 349 m 1
 1480.29 624 l 1
 1373.29 624 l 1
 1340.44 455 l 1
 1009.44 455 l 1
 1122.84 704 1503.04 741 1552.8 997 c 0
 1575.54 1114 1514.67 1233 1316.67 1233 c 0
 1135.67 1233 1024.04 1132 982.247 917 c 1
 1105.25 917 l 1
 1135.43 1062 1186.87 1126 1297.87 1126 c 0
 1380.87 1126 1418.35 1077 1403.38 1000 c 0
 1383.94 900 1260.53 831 1166.51 764 c 0
 1030.65 667 889.298 552 849.839 349 c 1
 1426.84 349 l 1
488 0 m 1
 610.002 -36 l 1
 1426.37 1216 l 1
 1305.36 1252 l 1
 488 0 l 1
461.666 451 m 1
 610.172 1215 l 1
 340.172 1215 l 1
 320.151 1112 l 1
 451.151 1112 l 1
 322.666 451 l 1
 199.666 451 l 1
 179.645 348 l 1
 557.645 348 l 1
 577.666 451 l 1
 461.666 451 l 1
EndSplineSet
EndChar

StartChar: onequarter
Encoding: 188 188 274
Width: 1273
VWidth: 0
Flags: HW
LayerCount: 2
Fore
SplineSet
577.666 451 m 1
 461.666 451 l 1
 610.172 1215 l 1
 340.172 1215 l 1
 320.151 1112 l 1
 451.151 1112 l 1
 322.666 451 l 1
 199.666 451 l 1
 179.645 348 l 1
 557.645 348 l 1
 577.666 451 l 1
706.561 363 m 1
 683.04 242 l 1
 1039.04 242 l 1
 1012.8 107 l 1
 894.799 107 l 1
 874 0 l 1
 1213 0 l 1
 1233.8 107 l 1
 1138.8 107 l 1
 1165.04 242 l 1
 1289.04 242 l 1
 1309.06 345 l 1
 1185.06 345 l 1
 1286.14 865 l 1
 1149.14 865 l 1
 706.561 363 l 1
1059.06 345 m 1
 826.062 345 l 1
 1125.93 689 l 1
 1059.06 345 l 1
1305.36 1252 m 1
 488 0 l 1
 610.002 -36 l 1
 1426.37 1216 l 1
 1305.36 1252 l 1
EndSplineSet
EndChar

StartChar: ordfeminine
Encoding: 170 170 275
Width: 796
VWidth: 0
Flags: HW
LayerCount: 2
Fore
SplineSet
647.312 763 m 1
 594.537 723 529.066 700 474.066 700 c 0
 407.066 700 375.453 738 385.172 788 c 0
 399.556 862 463.415 887 534.415 887 c 0
 582.415 887 629.5 872 665.39 856 c 1
 647.312 763 l 1
842.565 718 m 1
 744.565 718 l 1
 802.296 1015 l 2
 825.232 1133 752.09 1194 615.09 1194 c 0
 508.09 1194 422.481 1160 360.458 1093 c 1
 438.933 1044 l 1
 476.097 1086 525.567 1109 585.567 1109 c 0
 664.567 1109 707.765 1074 694.158 1004 c 2
 680.551 934 l 1
 635.05 952 587.188 963 540.188 963 c 0
 413.188 963 304.497 908 280.978 787 c 0
 263.289 696 327.71 621 441.71 621 c 0
 509.71 621 573.181 644 643.9 694 c 1
 631.849 632 l 1
 825.849 632 l 1
 842.565 718 l 1
EndSplineSet
EndChar

StartChar: ordmasculine
Encoding: 186 186 276
Width: 813
VWidth: 0
Flags: HW
LayerCount: 2
Fore
SplineSet
759.551 934 m 0
 740.891 838 652.701 765 555.701 765 c 0
 456.701 765 396.891 838 415.551 934 c 0
 434.212 1030 522.013 1101 621.013 1101 c 0
 718.013 1101 778.212 1030 759.551 934 c 0
872.551 934 m 0
 902.097 1086 802.867 1198 639.867 1198 c 0
 476.867 1198 333.097 1086 303.551 934 c 0
 274.2 783 374.234 670 537.234 670 c 0
 700.234 670 843.2 783 872.551 934 c 0
EndSplineSet
EndChar

StartChar: oslash
Encoding: 248 248 277
Width: 967
VWidth: 0
Flags: HW
LayerCount: 2
Fore
SplineSet
705.596 677 m 1
 346.656 168 l 1
 293.958 221 276.286 305 295.141 402 c 0
 327.02 566 453.511 692 617.511 692 c 0
 649.511 692 678.539 687 705.596 677 c 1
784.099 623 m 1
 829.991 571 846.829 493 829.141 402 c 0
 796.874 236 669.576 111 504.576 111 c 0
 476.576 111 451.159 114 429.325 120 c 1
 784.099 623 l 1
989.141 402 m 0
 1017.91 550 975.79 678 876.368 753 c 1
 967.638 883 l 1
 881.996 926 l 1
 792.31 799 l 1
 750.614 816 701.169 824 645.169 824 c 0
 384.169 824 181.043 633 136.141 402 c 0
 106.789 251 149.548 116 255.97 41 c 1
 168.866 -83 l 1
 254.508 -126 l 1
 342.806 -1 l 1
 383.473 -13 428.112 -20 479.112 -20 c 0
 740.112 -20 944.239 171 989.141 402 c 0
649.029 849 m 0
EndSplineSet
EndChar

StartChar: otilde
Encoding: 245 245 278
Width: 1150
VWidth: 0
Flags: HW
LayerCount: 2
Fore
SplineSet
579.909 977 m 1
 593.49 1016 610.572 1037 645.572 1037 c 0
 714.572 1037 787.16 968 888.16 968 c 0
 986.16 968 1061.91 1049 1096.56 1181 c 1
 990.563 1181 l 1
 974.594 1140 953.512 1119 922.512 1119 c 0
 851.512 1119 770.535 1186 676.535 1186 c 0
 595.535 1186 511.483 1124 471.909 977 c 1
 579.909 977 l 1
902.417 424 m 0
 869.373 254 752.63 137 600.63 137 c 0
 448.63 137 377.373 254 410.223 423 c 0
 443.268 593 558.204 711 711.204 711 c 0
 865.204 711 935.268 593 902.417 424 c 0
1109.42 424 m 0
 1159.18 680 1012.33 866 743.333 866 c 0
 479.333 866 255.762 683 205.417 424 c 0
 155.851 169 299.307 -19 569.307 -19 c 0
 843.307 -19 1060.43 172 1109.42 424 c 0
740.029 849 m 0
739.807 853 m 0
EndSplineSet
EndChar

StartChar: p
Encoding: 112 112 279
Width: 1186
VWidth: 0
Flags: HW
PickledData: "(dp1
S'com.typemytype.robofont.layerData'
p2
(dp3
s."
LayerCount: 2
Fore
SplineSet
491.854 -330 m 1
 521.012 -180 l 1
 353.012 -180 l 1
 406.077 93 l 1
 463.693 19 553.307 -19 661.307 -19 c 0
 888.307 -19 1100.91 159 1153.2 428 c 0
 1201.01 674 1080.33 866 834.333 866 c 0
 722.333 866 631.753 827 533.008 746 c 1
 550.029 849 l 1
 210.029 849 l 1
 182.815 709 l 1
 329.815 709 l 1
 157.012 -180 l 1
 10.0117 -180 l 1
 -19.1455 -330 l 1
 491.854 -330 l 1
948.445 419 m 0
 916.762 256 810.63 137 650.63 137 c 0
 526.63 137 456.152 222 435.623 245 c 1
 502.685 590 l 1
 528.35 614 635.204 711 761.204 711 c 0
 920.204 711 980.907 586 948.445 419 c 0
EndSplineSet
EndChar

StartChar: paragraph
Encoding: 182 182 280
Width: 1096
VWidth: 0
Flags: HW
LayerCount: 2
Fore
SplineSet
678.384 -353 m 1
 813.384 -353 l 1
 1085.91 1049 l 1
 1223.91 1049 l 1
 1250.54 1186 l 1
 681.535 1186 l 2
 413.535 1186 248.851 1023 210.559 826 c 0
 172.654 631 269.691 482 486.97 468 c 0
 491.775 467 496.97 468 501.97 468 c 1
 342.384 -353 l 1
 477.384 -353 l 1
 749.905 1049 l 1
 950.905 1049 l 1
 678.384 -353 l 1
EndSplineSet
EndChar

StartChar: parenleft
Encoding: 40 40 281
Width: 644
VWidth: 0
Flags: HW
LayerCount: 2
Fore
SplineSet
146.663 487 m 0
 79.2129 140 239.199 -71 479.288 -158 c 1
 508.501 -18 l 1
 343.469 59 261.876 200 317.663 487 c 0
 372.673 770 507.469 913 704.631 991 c 1
 729.649 1130 l 1
 455.35 1041 213.919 833 146.663 487 c 0
EndSplineSet
EndChar

StartChar: parenright
Encoding: 41 41 282
Width: 645
VWidth: 0
Flags: HW
LayerCount: 2
Fore
SplineSet
687.663 487 m 0
 754.725 832 594.35 1041 353.649 1130 c 1
 325.631 991 l 1
 492.469 913 571.673 770 516.663 487 c 0
 460.876 200 324.469 59 129.501 -18 c 1
 103.288 -158 l 1
 378.199 -71 620.213 140 687.663 487 c 0
EndSplineSet
EndChar

StartChar: partialdiff
Encoding: 8706 8706 283
Width: 1006
VWidth: 0
Flags: HW
LayerCount: 2
Fore
SplineSet
511.883 92 m 0
 431.883 92 398.712 158 419.316 264 c 0
 447.502 409 571.902 658 746.902 658 c 0
 826.902 658 854.296 588 858.745 508 c 1
 784.37 290 628.883 92 511.883 92 c 0
806.678 1125 m 0
 938.678 1125 975.021 957 929.926 725 c 0
 926.232 706 917.234 670 908.958 648 c 1
 900.958 648 l 1
 876.343 722 816.924 761 708.924 761 c 0
 383.924 761 199.638 456 164.649 276 c 0
 134.909 123 180.307 -19 397.307 -19 c 0
 754.307 -19 970.028 422 1027.95 720 c 0
 1090.54 1042 995.671 1233 735.671 1233 c 0
 570.671 1233 462.481 1160 442.071 1055 c 0
 429.631 991 467.356 933 600.356 933 c 1
 617.073 1019 694.678 1125 806.678 1125 c 0
EndSplineSet
EndChar

StartChar: percent
Encoding: 37 37 284
Width: 1742
VWidth: 0
Flags: HW
LayerCount: 2
Fore
SplineSet
335 0 m 1
 407.114 -56 l 1
 1605.31 1190 l 1
 1537.39 1247 l 1
 335 0 l 1
673.441 918 m 0
 646.422 779 590.815 709 523.815 709 c 0
 456.815 709 424.673 770 454.219 922 c 0
 482.793 1069 538.649 1130 603.649 1130 c 0
 671.649 1130 703.182 1071 673.441 918 c 0
841.83 920 m 0
 883.622 1135 788.004 1245 627.004 1245 c 0
 467.004 1245 328.622 1135 286.83 920 c 0
 245.038 705 340.656 595 500.656 595 c 0
 661.656 595 800.038 705 841.83 920 c 0
1534.12 299 m 0
 1506.91 159 1452.3 89 1384.3 89 c 0
 1316.3 89 1285.16 150 1314.7 302 c 0
 1343.28 449 1398.94 509 1463.94 509 c 0
 1531.94 509 1563.47 450 1534.12 299 c 0
1703.12 299 m 0
 1745.11 515 1648.49 625 1487.49 625 c 0
 1326.49 625 1189.49 517 1147.12 299 c 0
 1105.13 83 1200.14 -25 1361.14 -25 c 0
 1522.14 -25 1661.33 84 1703.12 299 c 0
EndSplineSet
EndChar

StartChar: period
Encoding: 46 46 285
Width: 553
VWidth: 0
Flags: HW
LayerCount: 2
Fore
SplineSet
200.263 238 m 1
 154 0 l 1
 401 0 l 1
 447.263 238 l 1
 200.263 238 l 1
EndSplineSet
EndChar

StartChar: periodcentered
Encoding: 183 183 286
Width: 574
VWidth: 0
Flags: HW
LayerCount: 2
Fore
SplineSet
302.708 657 m 1
 261.693 446 l 1
 488.693 446 l 1
 529.708 657 l 1
 302.708 657 l 1
EndSplineSet
EndChar

StartChar: pi
Encoding: 960 960 287
Width: 1247
VWidth: 0
Flags: HW
LayerCount: 2
Fore
SplineSet
1219.38 645 m 1
 1259.03 849 l 1
 551.029 849 l 2
 370.029 849 267.01 710 234.938 545 c 1
 327.938 545 l 1
 348.211 603 386.375 645 447.375 645 c 2
 520.375 645 l 1
 403.953 293 l 1
 347.881 128 240.939 82 173.939 82 c 1
 158 0 l 1
 264 0 l 2
 422 0 490.967 77 530.429 244 c 1
 628.375 645 l 1
 893.375 645 l 1
 835.469 486 769.621 281 748.822 174 c 0
 722.192 37 781.473 -13 895.473 -13 c 0
 954.473 -13 1007.97 5 1038.83 30 c 1
 1057.88 128 l 1
 1035.33 120 1003.77 112 972.771 112 c 0
 924.771 112 893.407 141 909.93 226 c 0
 925.869 308 967.023 494 1009.38 645 c 1
 1219.38 645 l 1
EndSplineSet
EndChar

StartChar: plus
Encoding: 43 43 288
Width: 1035
VWidth: 0
Flags: HW
LayerCount: 2
Fore
SplineSet
803.237 1061 m 1
 644.237 1061 l 1
 565.125 654 l 1
 147.125 654 l 1
 118.162 505 l 1
 536.162 505 l 1
 456.854 97 l 1
 615.854 97 l 1
 695.162 505 l 1
 1114.16 505 l 1
 1143.12 654 l 1
 724.125 654 l 1
 803.237 1061 l 1
EndSplineSet
EndChar

StartChar: plusminus
Encoding: 177 177 289
Width: 980
VWidth: 0
Flags: HW
LayerCount: 2
Fore
SplineSet
930 0 m 1
 958.186 145 l 1
 79.1855 145 l 1
 51 0 l 1
 930 0 l 1
790.619 1171 m 1
 643.619 1171 l 1
 572.477 805 l 1
 207.477 805 l 1
 179.097 659 l 1
 544.097 659 l 1
 472.953 293 l 1
 619.953 293 l 1
 691.097 659 l 1
 1058.1 659 l 1
 1086.48 805 l 1
 719.477 805 l 1
 790.619 1171 l 1
EndSplineSet
EndChar

StartChar: product
Encoding: 8719 8719 290
Width: 1222
VWidth: 0
Flags: HW
LayerCount: 2
Fore
SplineSet
657 0 m 1
 1089 0 l 1
 1102.02 67 l 1
 1049.02 67 l 2
 1015.02 67 990.578 75 1000.6 142 c 1
 1180.6 1068 l 2
 1194.4 1139 1225.34 1149 1259.34 1149 c 2
 1312.34 1149 l 1
 1325.17 1215 l 1
 371.172 1215 l 1
 358.343 1149 l 1
 410.343 1149 l 2
 443.343 1149 470.399 1139 459.376 1072 c 1
 279.769 148 l 2
 265.967 77 237.023 67 200.023 67 c 2
 148.023 67 l 1
 135 0 l 1
 566 0 l 1
 579.023 67 l 1
 526.023 67 l 2
 490.023 67 463.967 77 477.769 148 c 2
 670.399 1139 l 1
 996.399 1139 l 1
 803.769 148 l 2
 789.967 77 760.023 67 724.023 67 c 2
 670.023 67 l 1
 657 0 l 1
EndSplineSet
EndChar

StartChar: q
Encoding: 113 113 291
Width: 1227
VWidth: 0
Flags: HW
PickledData: "(dp1
S'com.typemytype.robofont.layerData'
p2
(dp3
s."
LayerCount: 2
Fore
SplineSet
1080.85 -330 m 1
 1109.82 -181 l 1
 962.817 -181 l 1
 1135.82 709 l 1
 1282.82 709 l 1
 1310.03 849 l 1
 967.029 849 l 1
 945.008 746 l 1
 881.753 827 812.333 866 703.333 866 c 0
 450.333 866 254.013 674 206.389 429 c 0
 153.712 158 303.307 -19 531.307 -19 c 0
 640.307 -19 731.693 19 818.271 94 c 1
 764.817 -181 l 1
 598.817 -181 l 1
 569.854 -330 l 1
 1080.85 -330 l 1
407.445 419 m 0
 439.907 586 540.204 711 707.204 711 c 0
 828.204 711 898.155 613 914.102 587 c 1
 849.178 253 l 1
 821.318 228 713.63 137 590.63 137 c 0
 431.63 137 375.762 256 407.445 419 c 0
EndSplineSet
EndChar

StartChar: question
Encoding: 63 63 292
Width: 851
VWidth: 0
Flags: HW
LayerCount: 2
Fore
SplineSet
406.804 889 m 1
 432.656 1022 514.43 1098 649.43 1098 c 0
 748.43 1098 814.24 1025 792.664 914 c 0
 749.705 693 472.504 800 383.089 340 c 1
 522.089 340 l 1
 616.76 719 910.822 601 971.664 914 c 0
 1009.37 1108 874.671 1233 673.671 1233 c 0
 483.671 1233 283.371 1144 233.804 889 c 1
 406.804 889 l 1
334.625 209 m 1
 294 0 l 1
 489 0 l 1
 529.625 209 l 1
 334.625 209 l 1
EndSplineSet
EndChar

StartChar: questiondown
Encoding: 191 191 293
Width: 867
VWidth: 0
Flags: HW
LayerCount: 2
Fore
SplineSet
684.675 307 m 1
 658.822 174 577.049 98 442.049 98 c 0
 343.049 98 277.239 171 298.815 282 c 0
 341.773 503 618.975 396 708.39 856 c 1
 569.39 856 l 1
 474.72 477 180.656 595 119.815 282 c 0
 82.1055 88 216.808 -37 417.808 -37 c 0
 607.808 -37 808.107 52 857.675 307 c 1
 684.675 307 l 1
561.854 987 m 1
 756.854 987 l 1
 797.479 1196 l 1
 602.479 1196 l 1
 561.854 987 l 1
EndSplineSet
EndChar

StartChar: quotedbl
Encoding: 34 34 294
Width: 808
VWidth: 0
Flags: HW
LayerCount: 2
Fore
SplineSet
913.533 1222 m 1
 697.533 1222 l 1
 657.146 757 l 1
 778.146 757 l 1
 913.533 1222 l 1
584.533 1222 m 1
 368.533 1222 l 1
 328.146 757 l 1
 450.146 757 l 1
 584.533 1222 l 1
EndSplineSet
EndChar

StartChar: quotedblbase
Encoding: 8222 8222 295
Width: 898
VWidth: 0
Flags: HW
LayerCount: 2
Fore
SplineSet
216.459 203 m 1
 174.667 -12 l 1
 268.667 -12 l 1
 249.173 -102 219.147 -133 145.426 -147 c 1
 126.571 -244 l 1
 280.96 -242 349.482 -157 378.251 -9 c 2
 419.459 203 l 1
 216.459 203 l 1
576.459 203 m 1
 534.667 -12 l 1
 628.667 -12 l 1
 609.173 -102 579.147 -133 505.426 -147 c 1
 486.571 -244 l 1
 640.96 -242 709.482 -157 738.251 -9 c 2
 779.459 203 l 1
 576.459 203 l 1
EndSplineSet
EndChar

StartChar: quotedblleft
Encoding: 8220 8220 296
Width: 844
VWidth: 0
Flags: HW
LayerCount: 2
Fore
SplineSet
819.978 787 m 1
 861.964 1003 l 1
 769.964 1003 l 1
 788.264 1092 820.095 1122 893.011 1137 c 1
 911.671 1233 l 1
 757.477 1232 688.148 1148 659.38 1000 c 2
 617.978 787 l 1
 819.978 787 l 1
514.978 787 m 1
 556.964 1003 l 1
 463.964 1003 l 1
 482.264 1092 514.095 1122 587.011 1137 c 1
 605.671 1233 l 1
 451.477 1232 382.148 1148 353.38 1000 c 2
 311.978 787 l 1
 514.978 787 l 1
EndSplineSet
EndChar

StartChar: quotedblright
Encoding: 8221 8221 297
Width: 836
VWidth: 0
Flags: HW
LayerCount: 2
Fore
SplineSet
414.172 1215 m 1
 372.38 1000 l 1
 467.38 1000 l 1
 446.886 910 416.86 879 343.139 865 c 1
 324.284 768 l 1
 478.673 770 547.195 855 575.964 1003 c 2
 617.172 1215 l 1
 414.172 1215 l 1
713.172 1215 m 1
 671.38 1000 l 1
 766.38 1000 l 1
 745.886 910 715.86 879 642.139 865 c 1
 623.284 768 l 1
 777.673 770 846.195 855 874.964 1003 c 2
 916.172 1215 l 1
 713.172 1215 l 1
EndSplineSet
EndChar

StartChar: quoteleft
Encoding: 8216 8216 298
Width: 511
VWidth: 0
Flags: HW
LayerCount: 2
Fore
SplineSet
490.978 787 m 1
 532.964 1003 l 1
 439.964 1003 l 1
 458.264 1092 490.095 1122 563.011 1137 c 1
 581.671 1233 l 1
 427.477 1232 358.148 1148 329.38 1000 c 2
 287.978 787 l 1
 490.978 787 l 1
EndSplineSet
EndChar

StartChar: quoteright
Encoding: 8217 8217 299
Width: 511
VWidth: 0
Flags: HW
LayerCount: 2
Fore
SplineSet
414.172 1215 m 1
 372.38 1000 l 1
 467.38 1000 l 1
 446.886 910 416.86 879 343.139 865 c 1
 324.284 768 l 1
 478.673 770 547.195 855 575.964 1003 c 2
 617.172 1215 l 1
 414.172 1215 l 1
EndSplineSet
EndChar

StartChar: quotesinglbase
Encoding: 8218 8218 300
Width: 508
VWidth: 0
Flags: HW
LayerCount: 2
Fore
SplineSet
214.459 203 m 1
 172.667 -12 l 1
 267.667 -12 l 1
 247.173 -102 217.147 -133 143.426 -147 c 1
 124.571 -244 l 1
 278.96 -242 347.482 -157 376.251 -9 c 2
 417.459 203 l 1
 214.459 203 l 1
EndSplineSet
EndChar

StartChar: quotesingle
Encoding: 39 39 301
Width: 479
VWidth: 0
Flags: HW
LayerCount: 2
Fore
SplineSet
584.533 1222 m 1
 368.533 1222 l 1
 327.146 757 l 1
 449.146 757 l 1
 584.533 1222 l 1
EndSplineSet
EndChar

StartChar: r
Encoding: 114 114 302
Width: 932
VWidth: 0
Flags: HW
PickledData: "(dp1
S'com.typemytype.robofont.layerData'
p2
(dp3
s."
LayerCount: 2
Fore
SplineSet
527.407 141 m 1
 573.67 379 l 2
 611.769 575 702.956 684 909.956 684 c 0
 924.956 684 967.762 683 968.567 682 c 1
 1002.2 855 l 1
 989.39 856 968.195 855 945.195 855 c 0
 803.195 855 703.031 813 602.708 657 c 1
 640.029 849 l 1
 304.029 849 l 1
 276.815 709 l 1
 441.815 709 l 1
 331.407 141 l 1
 166.407 141 l 1
 139 0 l 1
 680 0 l 1
 707.407 141 l 1
 527.407 141 l 1
632.029 849 m 0
467 0 m 0
EndSplineSet
EndChar

StartChar: racute
Encoding: 341 341 303
Width: 977
VWidth: 0
Flags: HW
LayerCount: 2
Fore
SplineSet
556.407 141 m 1
 602.67 379 l 2
 640.769 575 731.956 684 938.956 684 c 0
 953.956 684 996.762 683 997.567 682 c 1
 1031.2 855 l 1
 1018.39 856 997.195 855 974.195 855 c 0
 832.195 855 732.031 813 631.708 657 c 1
 669.029 849 l 1
 333.029 849 l 1
 305.815 709 l 1
 470.815 709 l 1
 360.407 141 l 1
 195.407 141 l 1
 168 0 l 1
 709 0 l 1
 736.407 141 l 1
 556.407 141 l 1
657.605 960 m 1
 933.086 1266 l 1
 675.086 1266 l 1
 491.605 960 l 1
 657.605 960 l 1
661.029 849 m 0
661.029 849 m 0
496 0 m 0
EndSplineSet
EndChar

StartChar: radical
Encoding: 8730 8730 304
Width: 1172
VWidth: 0
Flags: HW
LayerCount: 2
Fore
SplineSet
595.278 -14 m 1
 1435.2 1673 l 1
 1300.2 1673 l 1
 586.429 244 l 1
 483.08 911 l 1
 181.08 911 l 1
 157.172 788 l 1
 323.172 788 l 1
 454.278 -14 l 1
 595.278 -14 l 1
EndSplineSet
EndChar

StartChar: rcaron
Encoding: 345 345 305
Width: 977
VWidth: 0
Flags: HW
LayerCount: 2
Fore
SplineSet
556.407 141 m 1
 602.67 379 l 2
 640.769 575 731.956 684 938.956 684 c 0
 953.956 684 996.762 683 997.567 682 c 1
 1031.2 855 l 1
 1018.39 856 997.195 855 974.195 855 c 0
 832.195 855 732.031 813 631.708 657 c 1
 669.029 849 l 1
 333.029 849 l 1
 305.815 709 l 1
 470.815 709 l 1
 360.407 141 l 1
 195.407 141 l 1
 168 0 l 1
 709 0 l 1
 736.407 141 l 1
 556.407 141 l 1
481.619 1171 m 1
 593.274 912 l 1
 789.274 912 l 1
 998.619 1171 l 1
 894.619 1171 l 1
 712.685 1017 l 1
 588.619 1171 l 1
 481.619 1171 l 1
661.029 849 m 0
496 0 m 0
677.029 849 m 0
EndSplineSet
EndChar

StartChar: rcommaaccent
Encoding: 343 343 306
Width: 977
VWidth: 0
Flags: HW
LayerCount: 2
Fore
SplineSet
556.407 141 m 1
 602.67 379 l 2
 640.769 575 731.956 684 938.956 684 c 0
 953.956 684 996.762 683 997.567 682 c 1
 1031.2 855 l 1
 1018.39 856 997.195 855 974.195 855 c 0
 832.195 855 732.031 813 631.708 657 c 1
 669.029 849 l 1
 333.029 849 l 1
 305.815 709 l 1
 470.815 709 l 1
 360.407 141 l 1
 195.407 141 l 1
 168 0 l 1
 709 0 l 1
 736.407 141 l 1
 556.407 141 l 1
661.029 849 m 0
496 0 m 0
EndSplineSet
EndChar

StartChar: registered
Encoding: 174 174 307
Width: 1538
VWidth: 0
Flags: HW
LayerCount: 2
Fore
SplineSet
543.675 307 m 1
 825.675 307 l 1
 840.059 381 l 1
 758.059 381 l 1
 799.462 594 l 1
 881.462 594 l 1
 977.675 307 l 1
 1143.67 307 l 1
 1158.06 381 l 1
 1070.06 381 l 1
 988.989 607 l 1
 1087.65 631 1142.54 687 1158.67 770 c 0
 1181.22 886 1100.75 935 973.746 935 c 2
 665.746 935 l 1
 651.361 861 l 1
 738.361 861 l 1
 645.059 381 l 1
 558.059 381 l 1
 543.675 307 l 1
851.361 861 m 1
 960.361 861 l 2
 1028.36 861 1056.59 821 1046.28 768 c 0
 1037.15 721 1003.62 672 916.623 672 c 2
 814.623 672 l 1
 851.361 861 l 1
986.678 1125 m 0
 1265.68 1125 1454.25 917 1393.21 603 c 0
 1332.95 293 1064.3 89 785.3 89 c 0
 506.3 89 317.953 293 378.211 603 c 0
 439.441 918 707.678 1125 986.678 1125 c 0
764.307 -19 m 0
 1118.31 -19 1459.12 227 1532.79 606 c 0
 1606.46 985 1361.67 1233 1007.67 1233 c 0
 654.671 1233 314.659 986 240.795 606 c 0
 167.124 227 411.307 -19 764.307 -19 c 0
EndSplineSet
EndChar

StartChar: ring
Encoding: 730 730 308
Width: 499
VWidth: 0
Flags: HW
LayerCount: 2
Fore
SplineSet
355.153 1076 m 0
 365.261 1128 411.396 1175 477.396 1175 c 0
 543.396 1175 572.261 1128 562.153 1076 c 0
 552.045 1024 504.909 977 438.909 977 c 0
 372.909 977 345.046 1024 355.153 1076 c 0
276.542 1078 m 0
 259.048 988 311.108 906 425.108 906 c 0
 539.108 906 624.048 988 641.542 1078 c 0
 658.647 1166 607.809 1244 490.81 1244 c 0
 374.81 1244 293.647 1166 276.542 1078 c 0
414.029 849 m 0
EndSplineSet
EndChar

StartChar: ring.cap
Encoding: 65551 -1 309
Width: 499
VWidth: 0
Flags: HW
LayerCount: 2
Fore
SplineSet
477.396 1175 m 0
 543.396 1175 572.261 1128 562.153 1076 c 0
 552.045 1024 504.909 977 438.909 977 c 0
 372.909 977 345.046 1024 355.153 1076 c 0
 365.261 1128 411.396 1175 477.396 1175 c 0
490.81 1244 m 0
 374.81 1244 293.647 1166 276.542 1078 c 0
 259.048 988 311.108 906 425.108 906 c 0
 539.108 906 624.048 988 641.542 1078 c 0
 658.647 1166 607.809 1244 490.81 1244 c 0
414.029 849 m 0
EndSplineSet
EndChar

StartChar: s
Encoding: 115 115 310
Width: 1005
VWidth: 0
Flags: HW
PickledData: "(dp1
S'com.typemytype.robofont.layerData'
p2
(dp3
s."
LayerCount: 2
Fore
SplineSet
539.724 -22 m 1
 745.724 -22 893.551 80 922.124 227 c 0
 957.113 407 829.581 466 697.385 501 c 0
 565.188 536 428.326 547 444.654 631 c 0
 456.511 692 524.509 728 622.509 728 c 0
 710.509 728 763.261 701 794.931 653 c 1
 781.519 584 l 1
 943.519 584 l 1
 994.834 848 l 1
 832.834 848 l 1
 822.532 795 l 1
 778.668 842 705.139 865 627.139 865 c 0
 438.139 865 292.146 757 265.516 620 c 0
 232.082 448 359.392 393 490.782 359 c 0
 622.174 325 757.646 312 740.541 224 c 0
 727.129 155 656.131 119 543.131 119 c 0
 448.131 119 377.935 154 352.986 216 c 1
 366.01 283 l 1
 210.01 283 l 1
 155 0 l 1
 311 0 l 1
 320.913 51 l 1
 370.583 3 435.307 -19 540.307 -19 c 1
 539.724 -22 l 1
663.445 846 m 0
498.417 -3 m 0
EndSplineSet
EndChar

StartChar: sacute
Encoding: 347 347 311
Width: 1013
VWidth: 0
Flags: HW
LayerCount: 2
Fore
SplineSet
541.307 -19 m 1
 436.307 -19 371.583 3 321.913 51 c 1
 312 0 l 1
 156 0 l 1
 211.01 283 l 1
 367.01 283 l 1
 353.986 216 l 1
 378.935 154 449.131 119 544.131 119 c 0
 657.131 119 728.129 155 741.541 224 c 0
 758.646 312 623.174 325 491.782 359 c 0
 360.392 393 233.082 448 266.516 620 c 0
 293.146 757 439.139 865 628.139 865 c 0
 706.139 865 779.668 842 823.532 795 c 1
 833.834 848 l 1
 995.834 848 l 1
 944.519 584 l 1
 782.519 584 l 1
 795.931 653 l 1
 764.261 701 711.509 728 623.509 728 c 0
 525.509 728 457.511 692 445.654 631 c 0
 429.326 547 566.188 536 698.385 501 c 0
 830.581 466 958.113 407 923.124 227 c 0
 894.551 80 746.724 -22 540.724 -22 c 1
 541.307 -19 l 1
782.577 965 m 1
 1058.06 1271 l 1
 800.058 1271 l 1
 616.577 965 l 1
 782.577 965 l 1
664.445 846 m 0
499.417 -3 m 0
786.001 854 m 0
EndSplineSet
EndChar

StartChar: scaron
Encoding: 353 353 312
Width: 1013
VWidth: 0
Flags: HW
LayerCount: 2
Fore
SplineSet
541.307 -19 m 1
 436.307 -19 371.583 3 321.913 51 c 1
 312 0 l 1
 156 0 l 1
 211.01 283 l 1
 367.01 283 l 1
 353.986 216 l 1
 378.935 154 449.131 119 544.131 119 c 0
 657.131 119 728.129 155 741.541 224 c 0
 758.646 312 623.174 325 491.782 359 c 0
 360.392 393 233.082 448 266.516 620 c 0
 293.146 757 439.139 865 628.139 865 c 0
 706.139 865 779.668 842 823.532 795 c 1
 833.834 848 l 1
 995.834 848 l 1
 944.519 584 l 1
 782.519 584 l 1
 795.931 653 l 1
 764.261 701 711.509 728 623.509 728 c 0
 525.509 728 457.511 692 445.654 631 c 0
 429.326 547 566.188 536 698.385 501 c 0
 830.581 466 958.113 407 923.124 227 c 0
 894.551 80 746.724 -22 540.724 -22 c 1
 541.307 -19 l 1
469.619 1171 m 1
 581.274 912 l 1
 777.274 912 l 1
 986.619 1171 l 1
 882.619 1171 l 1
 700.685 1017 l 1
 576.619 1171 l 1
 469.619 1171 l 1
665.029 849 m 0
664.445 846 m 0
499.417 -3 m 0
EndSplineSet
EndChar

StartChar: scedilla
Encoding: 351 351 313
Width: 870
VWidth: 0
Flags: HW
LayerCount: 2
Fore
SplineSet
473.724 -22 m 1
 679.724 -22 827.551 80 856.124 227 c 0
 891.113 407 763.581 466 631.385 501 c 0
 499.188 536 362.326 547 378.654 631 c 0
 390.511 692 458.509 728 556.509 728 c 0
 644.509 728 697.261 701 728.931 653 c 1
 715.519 584 l 1
 877.519 584 l 1
 928.834 848 l 1
 766.834 848 l 1
 756.532 795 l 1
 712.668 842 639.139 865 561.139 865 c 0
 372.139 865 226.146 757 199.516 620 c 0
 166.082 448 293.392 393 424.782 359 c 0
 556.174 325 691.646 312 674.541 224 c 0
 661.129 155 590.131 119 477.131 119 c 0
 382.131 119 311.935 154 286.986 216 c 1
 300.01 283 l 1
 144.01 283 l 1
 89 0 l 1
 245 0 l 1
 254.913 51 l 1
 304.583 3 369.307 -19 474.307 -19 c 1
 473.724 -22 l 1
221.412 -358 m 1
 235.829 -361 277.635 -362 290.635 -362 c 0
 441.635 -362 520.853 -294 536.985 -211 c 0
 549.037 -149 516.007 -108 450.729 -94 c 0
 447.923 -93 445.117 -92 442.117 -92 c 1
 477.972 5 l 1
 405.972 5 l 1
 335.482 -157 l 1
 391.705 -161 419.817 -181 413.014 -216 c 0
 404.072 -262 351.156 -277 283.156 -277 c 0
 268.156 -277 253.351 -276 236.935 -273 c 1
 221.412 -358 l 1
433 0 m 0
597.445 846 m 0
432.417 -3 m 0
EndSplineSet
EndChar

StartChar: scircumflex
Encoding: 349 349 314
Width: 1013
VWidth: 0
Flags: HW
LayerCount: 2
Fore
SplineSet
541.307 -19 m 1
 436.307 -19 371.583 3 321.913 51 c 1
 312 0 l 1
 156 0 l 1
 211.01 283 l 1
 367.01 283 l 1
 353.986 216 l 1
 378.935 154 449.131 119 544.131 119 c 0
 657.131 119 728.129 155 741.541 224 c 0
 758.646 312 623.174 325 491.782 359 c 0
 360.392 393 233.082 448 266.516 620 c 0
 293.146 757 439.139 865 628.139 865 c 0
 706.139 865 779.668 842 823.532 795 c 1
 833.834 848 l 1
 995.834 848 l 1
 944.519 584 l 1
 782.519 584 l 1
 795.931 653 l 1
 764.261 701 711.509 728 623.509 728 c 0
 525.509 728 457.511 692 445.654 631 c 0
 429.326 547 566.188 536 698.385 501 c 0
 830.581 466 958.113 407 923.124 227 c 0
 894.551 80 746.724 -22 540.724 -22 c 1
 541.307 -19 l 1
596.577 965 m 1
 746.561 1217 l 1
 798.577 965 l 1
 978.577 965 l 1
 902.528 1294 l 1
 619.528 1294 l 1
 421.577 965 l 1
 596.577 965 l 1
664.445 846 m 0
499.417 -3 m 0
678.195 855 m 0
EndSplineSet
EndChar

StartChar: scommaaccent
Encoding: 537 537 315
Width: 1013
VWidth: 0
Flags: HW
LayerCount: 2
Fore
SplineSet
540.724 -22 m 1
 746.724 -22 894.551 80 923.124 227 c 0
 958.113 407 830.581 466 698.385 501 c 0
 566.188 536 429.326 547 445.654 631 c 0
 457.511 692 525.509 728 623.509 728 c 0
 711.509 728 764.261 701 795.931 653 c 1
 782.519 584 l 1
 944.519 584 l 1
 995.834 848 l 1
 833.834 848 l 1
 823.532 795 l 1
 779.668 842 706.139 865 628.139 865 c 0
 439.139 865 293.146 757 266.516 620 c 0
 233.082 448 360.392 393 491.782 359 c 0
 623.174 325 758.646 312 741.541 224 c 0
 728.129 155 657.131 119 544.131 119 c 0
 449.131 119 378.935 154 353.986 216 c 1
 367.01 283 l 1
 211.01 283 l 1
 156 0 l 1
 312 0 l 1
 321.913 51 l 1
 371.583 3 436.307 -19 541.307 -19 c 1
 540.724 -22 l 1
664.445 846 m 0
499.417 -3 m 0
EndSplineSet
EndChar

StartChar: section
Encoding: 167 167 316
Width: 891
VWidth: 0
Flags: HW
LayerCount: 2
Fore
SplineSet
750.834 421 m 0
 745.003 391 730.338 367 715.033 350 c 1
 677.67 379 633.113 407 568.916 442 c 0
 410.827 529 362.603 569 380.291 660 c 0
 385.733 688 400.787 714 420.286 732 c 1
 466.095 695 525.457 666 591.46 630 c 0
 736.298 552 765.023 494 750.834 421 c 0
416.04 -185 m 0
 634.04 -185 769.56 -64 803.382 110 c 0
 815.822 174 806.457 239 779.398 285 c 1
 844.396 321 906.558 399 921.914 478 c 0
 949.321 619 867.483 697 659.06 808 c 1
 546.333 866 480.554 898 500.574 1001 c 0
 519.818 1100 590.51 1155 682.51 1155 c 0
 798.51 1155 804.572 1037 785.912 941 c 1
 885.912 941 950.631 991 963.654 1058 c 0
 984.647 1166 900.004 1245 708.004 1245 c 0
 520.004 1245 365.343 1149 332.882 982 c 0
 315.388 892 335.559 826 365.783 786 c 1
 296.562 754 240.316 691 226.127 618 c 0
 201.052 489 254.558 399 419.258 310 c 0
 638.933 190 670.546 152 653.052 62 c 0
 634.391 -34 560.146 -97 455.146 -97 c 0
 327.146 -97 281.943 10 309.935 154 c 1
 223.935 154 155.382 110 138.859 25 c 0
 119.616 -74 170.04 -185 416.04 -185 c 0
EndSplineSet
EndChar

StartChar: semicolon
Encoding: 59 59 317
Width: 519
VWidth: 0
Flags: HW
LayerCount: 2
Fore
SplineSet
201.979 324 m 1
 154.551 80 l 1
 284.551 80 l 1
 263.169 -30 227.255 -81 118.506 -90 c 1
 98.4844 -193 l 1
 301.873 -191 374.146 -97 408.939 82 c 2
 456.174 325 l 1
 201.979 324 l 1
304.333 866 m 1
 256.71 621 l 1
 510.71 621 l 1
 558.333 866 l 1
 304.333 866 l 1
EndSplineSet
EndChar

StartChar: seven
Encoding: 55 55 318
Width: 997
VWidth: 0
Flags: HW
LayerCount: 2
Fore
SplineSet
927.765 1074 m 1
 696.502 836 469.358 470 382.407 141 c 1
 219.407 141 l 1
 192 0 l 1
 706 0 l 1
 733.407 141 l 1
 584.407 141 l 1
 653.082 448 884.834 848 1130.71 1084 c 1
 1156.17 1215 l 1
 357.172 1215 l 1
 294.388 892 l 1
 452.388 892 l 1
 487.765 1074 l 1
 927.765 1074 l 1
EndSplineSet
EndChar

